<?xml version="1.0" encoding="utf-8"?>
<!-- Generator: Adobe Illustrator 24.1.2, SVG Export Plug-In . SVG Version: 6.00 Build 0)  -->
<svg version="1.1" id="Layer_1" xmlns="http://www.w3.org/2000/svg" xmlns:xlink="http://www.w3.org/1999/xlink" x="0px" y="0px"
	 viewBox="0 0 558 657" style="enable-background:new 0 0 558 657;" xml:space="preserve">
<style type="text/css">
	.st0{fill-rule:evenodd;clip-rule:evenodd;fill:#1950BD;}
</style>
<path class="st0" d="M79.5,43.6C59.2,59.8,23,107.5,7.9,178.6c-10.5,49.4-9.2,93.8,0,155.8c13,88,40.2,170.4,61.1,202.1
	c44.1,66.6,100.6,103.8,127.3,113.2c28.4,10,107,15.3,196-18.6c64.4-24.5,112.8-65.4,125.8-83.1c31-42.1,38.5-87.8,39.5-159
	c1.1-84.9-9.5-171-21.9-197.7C487.5,88.3,389.4,38.1,327.8,18C267.1-1.9,204.3-5.9,147.9,9.4C117.1,17.7,95,31.1,79.5,43.6z"/>
</svg>
