<?xml version="1.0" encoding="utf-8"?>
<!-- Generator: Adobe Illustrator 24.1.2, SVG Export Plug-In . SVG Version: 6.00 Build 0)  -->
<svg version="1.1" id="Layer_1" xmlns="http://www.w3.org/2000/svg" xmlns:xlink="http://www.w3.org/1999/xlink" x="0px" y="0px"
	 viewBox="0 0 608.4 590.9" style="enable-background:new 0 0 608.4 590.9;" xml:space="preserve">
<style type="text/css">
	.st0{fill:#FFFFFF;}
</style>
<path class="st0" d="M451.2,276.4c-21.9,0-43.6,4.6-63.6,13.5V144.7c0-6.2-5-11.2-11.2-11.2H362V99.3c0-6.2-5-11.2-11.2-11.2h-25.1
	V74.6c0-6.2-5-11.2-11.2-11.2c-6.2,0-11.2,5-11.2,11.2v13.4h-25.8c-6.2,0-11.2,5-11.2,11.2v34.3h-15V89.1c0-6.2-5-11.2-11.2-11.2
	h-28.8V43c0-6.2-5-11.2-11.2-11.2h-64.5V11.2c0-6.2-5-11.2-11.2-11.2c-6.2,0-11.2,5-11.2,11.2v20.5H51.3c-6.2,0-11.2,5-11.2,11.2
	v34.9H11.2C5,77.8,0,82.9,0,89.1V501c0,6.2,5,11.2,11.2,11.2H315c38.1,66.1,118.2,95.3,190,69.2c71.7-26.1,114.4-99.9,101.1-175.1
	C592.8,331.2,527.5,276.4,451.2,276.4z M62.5,54.2h126.3v23.7H62.5V54.2z M160.2,489.7h-24.7V421h24.7V489.7z M113.1,489.7h-22V421
	h22V489.7z M228.9,489.7h-46.2v-79.9c0-6.2-5-11.2-11.2-11.2H79.9c-6.2,0-11.2,5-11.2,11.2v79.9H22.4V100.3h206.5L228.9,489.7z
	 M288.8,110.5h50.8v23h-50.8V110.5z M251.4,489.7V156h113.8v146.1c-8.1,5.3-15.7,11.4-22.7,18.1c-1.1-0.3-2.2-0.5-3.4-0.5h-60.9
	c-6.2,0-11.2,5-11.2,11.2c0,6.2,5,11.2,11.2,11.2h45.3c-6.6,9.1-12.1,18.9-16.6,29.2h-28.7c-6.2,0-11.2,5-11.2,11.2
	s5,11.2,11.2,11.2h21c-2.9,10.9-4.5,22.1-5,33.3h-16c-6.2,0-11.2,5-11.2,11.2c0,6.2,5,11.2,11.2,11.2h16.7
	c1.4,13.8,4.6,27.3,9.5,40.2H251.4z M451.2,568.5c-74.5,0-134.8-60.4-134.8-134.8c0-74.5,60.4-134.8,134.8-134.8
	S586,359.2,586,433.6C585.9,508.1,525.6,568.4,451.2,568.5L451.2,568.5z"/>
<path class="st0" d="M57.7,218.3h136c6.2,0,11.2-5,11.2-11.2c0-6.2-5-11.2-11.2-11.2h-136c-6.2,0-11.2,5-11.2,11.2
	C46.5,213.3,51.5,218.3,57.7,218.3z"/>
<path class="st0" d="M57.7,280.9h136c6.2,0,11.2-5,11.2-11.2c0-6.2-5-11.2-11.2-11.2h-136c-6.2,0-11.2,5-11.2,11.2
	C46.5,275.9,51.5,280.9,57.7,280.9z"/>
<path class="st0" d="M57.7,343.5h136c6.2,0,11.2-5,11.2-11.2c0-6.2-5-11.2-11.2-11.2h-136c-6.2,0-11.2,5-11.2,11.2
	C46.5,338.4,51.5,343.5,57.7,343.5z"/>
<path class="st0" d="M57.7,155.7h136c6.2,0,11.2-5,11.2-11.2c0-6.2-5-11.2-11.2-11.2h-136c-6.2,0-11.2,5-11.2,11.2
	C46.5,150.7,51.5,155.7,57.7,155.7z"/>
<path class="st0" d="M278.1,286.3h58.5c6.2,0,11.2-5,11.2-11.2c0-6.2-5-11.2-11.2-11.2h-58.5c-6.2,0-11.2,5-11.2,11.2
	C266.8,281.3,271.9,286.3,278.1,286.3z"/>
<path class="st0" d="M278.1,231.9h58.5c6.2,0,11.2-5,11.2-11.2c0-6.2-5-11.2-11.2-11.2h-58.5c-6.2,0-11.2,5-11.2,11.2
	C266.8,226.9,271.9,231.9,278.1,231.9z"/>
<path class="st0" d="M511.1,354.5c-15.9-15.9-37.5-24.9-60-24.9c-22.5,0-44.1,9-60,24.9c-15.3,15.3-24.4,35.7-25.9,57.3
	c-0.8,11.9,1,23.8,5.1,34.9c4.3,11.5,10.9,22.1,19.5,31l53.1,56.6c2.1,2.3,5.1,3.5,8.2,3.5c3.1,0,6.1-1.3,8.2-3.5l53.1-56.6
	c8.5-8.9,15.1-19.4,19.5-30.9c4.1-11.2,5.9-23.1,5.1-34.9C535.6,390.2,526.4,369.8,511.1,354.5z M510.8,439
	c-3.3,8.7-8.3,16.6-14.7,23.3l-44.9,47.8l-44.9-47.8c-6.4-6.7-11.5-14.6-14.7-23.3c-3.1-8.2-4.3-17-3.8-25.7
	c1.1-16.2,7.9-31.4,19.4-42.9c11.7-11.7,27.5-18.3,44.1-18.3c16.5,0,32.4,6.6,44.1,18.3c11.4,11.5,18.3,26.8,19.4,42.9
	C515.2,422,513.9,430.8,510.8,439z"/>
<path class="st0" d="M451.2,367.7c-23.7,0-43,19.7-43,43.9c0,24.2,19.3,43.9,43,43.9c23.7,0,43-19.7,43-43.9
	C494.2,387.4,474.9,367.7,451.2,367.7z M451.2,433c-11.3,0-20.6-9.6-20.6-21.4c0-11.8,9.2-21.4,20.6-21.4c11.3,0,20.6,9.6,20.6,21.4
	C471.7,423.4,462.5,433,451.2,433z"/>
</svg>
