<?xml version="1.0" encoding="utf-8"?>
<!-- Generator: Adobe Illustrator 24.1.2, SVG Export Plug-In . SVG Version: 6.00 Build 0)  -->
<svg version="1.1" id="Capa_1" xmlns="http://www.w3.org/2000/svg" xmlns:xlink="http://www.w3.org/1999/xlink" x="0px" y="0px"
	 viewBox="0 0 506.8 458.7" style="enable-background:new 0 0 506.8 458.7;" xml:space="preserve">
<style type="text/css">
	.st0{fill:#FFFFFF;}
</style>
<g>
	<path class="st0" d="M253.5,171.7c-62.4,0-113.2,50.8-113.2,113.2S191.1,398,253.5,398s113.2-50.8,113.2-113.2
		S315.9,171.7,253.5,171.7z M253.5,383c-54.1,0-98.2-44-98.2-98.2s44-98.2,98.2-98.2s98.2,44,98.2,98.2S307.6,383,253.5,383z"/>
	<path class="st0" d="M283.4,254.9v-32.4c0-6.9-5.6-12.5-12.5-12.5H236c-6.9,0-12.5,5.6-12.5,12.5v32.4h-32.4
		c-6.9,0-12.5,5.6-12.5,12.5v34.9c0,6.9,5.6,12.5,12.5,12.5h32.4v32.4c0,6.9,5.6,12.5,12.5,12.5h34.9c6.9,0,12.5-5.6,12.5-12.5
		v-32.4h32.4c6.9,0,12.5-5.6,12.5-12.5v-34.9c0-6.9-5.6-12.5-12.5-12.5H283.4z M313.3,299.8h-37.4c-4.1,0-7.5,3.4-7.5,7.5v37.4
		h-29.9v-37.4c0-4.1-3.4-7.5-7.5-7.5h-37.4v-29.9H231c4.1,0,7.5-3.4,7.5-7.5V225h29.9v37.4c0,4.1,3.4,7.5,7.5,7.5h37.4V299.8z"/>
	<path class="st0" d="M502,340.3c4.1,0,7.5-3.4,7.5-7.5V144.5c0-18.5-15-33.5-33.5-33.5h-37v-8.6c0-8.5-6.9-15.4-15.4-15.4h-40.3
		c-0.1,0-0.3,0-0.4,0l0-57.7c0-16.2-13-29.3-29.1-29.3H210.9c-4.1,0-7.5,3.4-7.5,7.5s3.4,7.5,7.5,7.5h142.9
		c7.8,0,14.1,6.4,14.1,14.3l0,81.7h-18.6V54.5c0-11.3-9.1-20.5-20.4-20.5H178c-11.2,0-20.4,9.2-20.4,20.5V111H139v-8.6c0,0,0,0,0,0
		l0-73.1c0-7.9,6.3-14.3,14.1-14.3h22.9c4.1,0,7.5-3.4,7.5-7.5S180.1,0,175.9,0H153C137,0,124,13.1,124,29.3l0,57.7
		c-0.1,0-0.3,0-0.4,0H83.3c-8.5,0-15.4,6.9-15.4,15.4v8.6H31c-18.5,0-33.5,15-33.5,33.5v280.7c0,18.5,15,33.5,33.5,33.5h445
		c18.5,0,33.5-15,33.5-33.5v-57.4c0-4.1-3.4-7.5-7.5-7.5s-7.5,3.4-7.5,7.5v57.4c0,10.2-8.3,18.5-18.5,18.5h-65V175h12.6
		c5.9,0,11-3.3,13.6-8.1c1.2-2.2,1.9-4.7,1.9-7.3V126H476c10.2,0,18.5,8.3,18.5,18.5v188.3C494.5,336.9,497.8,340.3,502,340.3
		L502,340.3z M383.3,102h40.3c0.2,0,0.4,0.2,0.4,0.4v57.2c0,0,0,0.1,0,0.1c-0.1,0.1-0.2,0.2-0.3,0.2c-14.6,0-25.7,0-40.3,0
		c-0.2,0-0.4-0.2-0.4-0.4L383.3,102z M172.6,54.5c0-3,2.4-5.5,5.4-5.5h151c3,0,5.4,2.5,5.4,5.5V111c-11.7,0-157.1,0-161.7,0V54.5z
		 M82.9,102.4c0-0.2,0.2-0.4,0.4-0.4h40.3c0.6,0,0.4-3.2,0.4,57.6c0,0.2-0.2,0.4-0.4,0.4c-14.6,0-25.7,0-40.2,0
		c-0.2,0-0.4-0.2-0.4-0.4L82.9,102.4z M12.5,425.2V144.5c0-10.2,8.3-18.5,18.5-18.5h36.9v33.6c0,8.5,6.9,15.4,15.4,15.4h0H96v268.7
		H31C20.8,443.7,12.5,435.4,12.5,425.2z M396,443.7H111V175h12.6h0c8.5,0,15.4-6.9,15.4-15.4V126h228.9v33.6
		c0,8.5,6.9,15.4,15.4,15.4H396V443.7z"/>
</g>
</svg>
