<?xml version="1.0" encoding="utf-8"?>
<!-- Generator: Adobe Illustrator 24.1.2, SVG Export Plug-In . SVG Version: 6.00 Build 0)  -->
<svg version="1.1" id="Layer_1" xmlns="http://www.w3.org/2000/svg" xmlns:xlink="http://www.w3.org/1999/xlink" x="0px" y="0px"
	 viewBox="0 0 1442 194" style="enable-background:new 0 0 1442 194;" xml:space="preserve">
<style type="text/css">
	.st0{fill-rule:evenodd;clip-rule:evenodd;fill:#FFFFFF;}
</style>
<path class="st0" d="M0,0c16.2,6.9,39.6,16.8,68,28.4c54.6,22.2,109.2,42.9,140,54c127.7,46.1,253.8,65.4,271,68
	c90.7,13.5,162.1,14.2,242.5,15c58.9,0.6,137.8-2.9,241.5-15c17.8-2.1,183.7-34.7,271.6-68.2C1306,55,1313,52,1374,28.4
	c41.9-16.2,68-28.4,68-28.4c0,64.7,0,129.3,0,194c-480.7,0-961.3,0-1442,0C0,129.3,0,64.7,0,0z"/>
</svg>
