<?xml version="1.0" encoding="utf-8"?>
<!-- Generator: Adobe Illustrator 24.1.2, SVG Export Plug-In . SVG Version: 6.00 Build 0)  -->
<svg version="1.1" id="Layer_1" xmlns="http://www.w3.org/2000/svg" xmlns:xlink="http://www.w3.org/1999/xlink" x="0px" y="0px"
	 viewBox="0 0 510 544" style="enable-background:new 0 0 510 544;" xml:space="preserve">
<style type="text/css">
	.st0{fill-rule:evenodd;clip-rule:evenodd;fill:#FFFFFF;}
</style>
<path class="st0" d="M378.1,49.2C298.2-2.1,165.6-29,76,45.5C-6.4,113.9-3.2,236.1,2.8,286.4c8.1,67.4,34.5,123.6,71.7,165.5
	c38,42.8,96.6,86.4,165.5,91.2c126.2,8.9,254.3-103.7,268.5-239.8C520.4,188.3,449.5,95.1,378.1,49.2z M126.6,449.9
	c-6.3,3.5-25.2-8.5-33.7-21.9c-0.5-0.7-0.9-1.5-1.4-2.3c-5.6-10.2-8.3-24.3-2.9-27.1c5.6-2.9,18.8,6.4,26.6,15
	C127.2,426.8,132.8,446.4,126.6,449.9z"/>
</svg>
