<?xml version="1.0" encoding="utf-8"?>
<!-- Generator: Adobe Illustrator 28.3.0, SVG Export Plug-In . SVG Version: 6.00 Build 0)  -->
<svg version="1.1" id="Layer_1" xmlns="http://www.w3.org/2000/svg" xmlns:xlink="http://www.w3.org/1999/xlink" x="0px" y="0px"
	 viewBox="0 0 542.3 542.3" style="enable-background:new 0 0 542.3 542.3;" xml:space="preserve">
<style type="text/css">
	.st0{fill-rule:evenodd;clip-rule:evenodd;fill:#FFFFFF;}
</style>
<path class="st0" d="M402.2,49.5c-85-51.1-226.1-77.9-321.4-3.7C-6.9,114-3.5,235.8,2.9,285.9c8.6,67.2,36.7,123.2,76.3,164.9
	c40.4,42.7,102.8,86.1,176.1,90.9c134.3,8.9,270.6-103.4,285.7-239C553.6,188.2,478.1,95.3,402.2,49.5z M134.6,448.9
	c-6.7,3.5-26.8-8.5-35.9-21.8c-0.5-0.7-1-1.5-1.5-2.3c-6-10.2-8.8-24.2-3.1-27c6-2.9,20,6.4,28.3,14.9
	C135.2,425.9,141.2,445.4,134.6,448.9z"/>
</svg>
