<?xml version="1.0" encoding="utf-8"?>
<!-- Generator: Adobe Illustrator 24.1.2, SVG Export Plug-In . SVG Version: 6.00 Build 0)  -->
<svg version="1.1" id="Layer_1" xmlns="http://www.w3.org/2000/svg" xmlns:xlink="http://www.w3.org/1999/xlink" x="0px" y="0px"
	 viewBox="0 0 1183 752" style="enable-background:new 0 0 1183 752;" xml:space="preserve">
<style type="text/css">
	.st0{fill-rule:evenodd;clip-rule:evenodd;fill:#2378FF;}
</style>
<path class="st0" d="M235.2,235.1c54.1,68.9,133.6,88.1,161.3,95.2c74.5,19.3,123.7,48.7,198.6,66.1c69.7,16.1,217.7,60.5,333.7,97
	c163.9,51.7,254.4,89.3,254.4,129.9c0,54.4-128.6,106.8-239.6,123.3c-174.8,26-263-54.2-445.8-94.6c-189.8-41.9-314.3-5.9-407.3-106
	c-29-31.2-74.3-162.4-87.1-319C-7.2,99.2,7.8,25.5,39.5,8.4c36.8-20,101.4-2.6,133,37.8c38,48.6,8.3,105.7,51.1,172.6
	C226.8,223.9,230.9,229.5,235.2,235.1z"/>
</svg>
