<svg xmlns="http://www.w3.org/2000/svg" xmlns:xlink="http://www.w3.org/1999/xlink" width="999.713" height="239.56" viewBox="0 0 9039 2166">
  <defs>
    <style>
      .cls-1 {
        fill: #fff;
      }

      .cls-1, .cls-2 {
        fill-rule: evenodd;
      }

      .cls-2 {
        fill: url(#linear-gradient);
      }
    </style>
    <linearGradient id="linear-gradient" x1="1422.375" y1="2166.81" x2="1422.375" y2="-0.219" gradientUnits="userSpaceOnUse">
      <stop offset="0" stop-color="#fff"/>
      <stop offset="0.41" stop-color="#fff"/>
      <stop offset="1" stop-color="#e2ecf6"/>
    </linearGradient>
  </defs>
  <path id="Wypełnienie_kolorem_2" data-name="Wypełnienie kolorem 2" class="cls-1" d="M7162,733c75.91-1.527,137.37,9.317,190,31,12.93,5.328,25.26,9.844,37,15,2.89,1.268,13.74,4.208,15,6v74h-1c-6.51-5.985-15.55-7.792-24-12-21.36-10.639-45.51-19.023-70-27-7.37-2.4-13.32-1.857-21-4-18.82-5.253-41.85-5.2-63-10h-34c-32.3-.008-61.32,2.458-86,10-30.25,9.244-54.34,17.062-77,33-71.58,50.354-90.04,147.223-90,270,0.01,29.38,3.08,67.52,10,92,21,74.27,49.9,127.16,116,156,18,7.85,35.91,10.43,57,16,11.21,2.96,25.82,3.23,38,6h16c9.5,2.04,29.96,3.5,41,1,20.54-4.64,42.35-1.91,62-7,28.6-7.41,56.74-13.3,82-24,9.35-3.96,19.66-8.16,29-13,4.85-2.52,9.35-6.36,15-8v73c-37.41,16.58-76.22,30.09-120,42-16.95,4.61-35.55,4.01-53,8h-12c-11.32,2.46-30.87,3.51-42,1q-18.495-.495-37-1c-26.2-5.96-52.48-6.19-76-14-84.41-28.04-140.08-77.76-174-156-10.7-24.67-14.36-50.25-22-79-8.83-33.2-9.99-72.72-10-114q0.495-25.995,1-52,1.995-19.005,4-38c7.69-31.877,10.55-63.216,22-91,34.64-84.09,87.84-138.393,177-168,20.14-6.688,42.14-7.938,64-13C7134.87,733.945,7155.57,737.013,7162,733Zm728,430c0.56-56.21,1.36-107.58-22-139-40.44-54.386-168.2-49.873-236-22-11.6,4.77-24.43,10.43-35,17-6.22,3.87-11.58,10.47-19,13V956c69.99-39.759,212.83-62.867,302-24,48.23,21.024,72.97,62.148,86,119q0.495,12,1,24c4.44,20.73,1,49.29,1,72v147c0,59.01-.73,107.04-34,132-24.34,18.26-51.98,27.51-87,36l-52,6h-14c-15.94,3.37-52.21,4.64-69,1-15.03-3.26-28.22-.52-42-4-33.93-8.58-63.47-17.41-88-35-22.57-16.18-40.6-41.79-50-71-3.59-11.15-3.41-23.94-6-36v-17c0-24.95,2.95-47.34,9-66,20.25-62.45,55.33-89.22,120-107,13.08-3.6,27.47-3.09,41-6h23c13-2.64,56.36-.15,70,3,23.53,5.44,46.68,8.43,67,17C7866.65,1151.49,7878.29,1160.93,7890,1163Zm528-176c-71.26-8.691-143.2,2.368-203,15v452h-77V964c10.16-2.033,20.09-7.3,29-11,16.79-6.972,34.9-11.356,52-17,25.87-8.539,53.87-11.189,81-18,10.6-2.662,22.08-1.66,32-4,18.39-4.336,74.84-2.781,85,5,2.3,3.668,1,13.5,1,19v49Zm562,214H8592c-1.63,107.31,40.87,171.13,124,194,22.59,6.22,49.6,4.9,76,4q22.995-2.505,46-5c26.09-6.65,51.2-12.07,74-22,11.69-5.09,22.95-14,35-18v79c-15.38,3.78-30.61,12.88-46,18-24.16,8.05-50.46,9.85-77,16-12.57,2.91-24.72-.85-38,2-14.2,3.04-53.4,2.17-67-1-23.48-5.47-45.94-8.34-66-17-58.27-25.15-94.67-68.83-119-128-8.13-19.78-10.6-42.83-16-65q-0.495-7.995-1-16c-3.81-17.32-6.34-66.61-2-86q0.495-12,1-24l6-39c7.69-27.32,14.59-55.02,28-77,26.33-43.144,63.85-75.735,116-93,11.63-3.85,22.18-3.929,35-7,17.6-4.215,56.16-7.688,77-3l38,6c20.17,5.712,40.7,12.864,57,23C8948.02,988.65,8979.66,1079.48,8980,1201Zm-385-70h304c0.27-61.57-28.11-107.54-67-131-13.7-8.263-29.06-9.67-47-14-15.39-3.714-50.99-6.079-69-2-14.77,3.345-30.14,5.437-43,11C8623.04,1016.62,8602.5,1066.92,8595,1131Zm-872,65c-6.25,3.74-23.92,1.86-32,4-16.21,4.3-33.09,8.98-46,17a90.309,90.309,0,0,0-39,50c-15.08,47.27,10.68,90.35,36,108,20.97,14.62,85.44,34.54,125,26h19c9.59-.12,21.54-1.11,30-3,27.74-6.22,52.12-4.06,66-24,8.56-12.3,8-31.85,8-53v-95C7843.24,1205.23,7792.25,1196.32,7723,1196Z"/>
  <path id="Wypełnienie_kolorem_1" data-name="Wypełnienie kolorem 1" class="cls-1" d="M6434,710v744H6276V711c8.52-2.864,23.62-1.082,34-1,3.82,1.809,28.64,0,37,0C6376.83,710,6402.91,710.088,6434,710ZM3224,742h236c39.06,0,88.97-2.637,122,5,11.79,2.725,21.7,1.084,33,4,33.77,8.711,69.12,15.687,96,32,14.79,8.978,28.62,19.045,42,29,10.31,7.672,22.32,16.828,30,27,27.27,36.136,46.23,70.387,62,119,6.18,19.041,7.25,39.871,12,60q0.495,8.5,1,17c1.84,8.36,2.8,20.61,3,30v20c2.68,12.56,1.8,40.5-1,53-3.63,16.24-.3,32.62-4,48q-4.995,24.495-10,49c-12.22,37.61-25.52,71.86-46,101-37.52,53.4-92.84,84.87-164,105-49.79,14.08-110.97,13-174,13H3224V742Zm2037,24h166V914h118v122H5427v201c0,30.61-3.69,68.59,9,87,15.72,22.81,63.64,16.59,88,6,7.22-3.14,14.08-8.44,21-12v137c-11.5,2.99-22.45,9.31-34,13q-22.005,3.495-44,7h-20c-26.97,0-50.63-1.91-71-8-53.36-15.95-84.05-39.02-104-88-13.28-32.62-11-80.04-11-126V1036h-79V914h79V766ZM3397,876v445c90.65,0.83,165.78,2.45,218-35,37.11-26.61,52.47-68.22,65-120,4.93-20.36,4-43.2,4-67,0-70.23-12.4-122.984-42-163-7.38-9.979-17.82-17.706-28-25-23.7-16.985-49.8-25.166-84-33l-21-1c-10.16-2.191-25.13-1-37-1h-75Zm1068,350H4109c0.77,12.3,6,23.57,10,33,20.14,47.49,44.38,62.05,99,75,14.34,3.4,48.78,6.87,66,3q15.495-2.505,31-5c35.98-10.11,70.5-20.25,102-35v137q-20.505,7.5-41,15-28.995,7.005-58,14l-51,6h-19c-17.13,3.7-62.31,1.78-78-2-19.36-4.66-39.62-6.87-57-14-77.27-31.69-127.85-82.26-155-164-6.98-21.01-6.65-44.49-12-68v-22c-2.98-13.89-.04-49.84,3-63q0.495-7.995,1-16c10.02-40.9,17.91-77.87,37-109,29.41-47.968,71.88-82.7,130-102,14.88-4.942,31.28-6.268,47-10l18-1c22.99-5.023,75.17-2.6,96,3,26.67,7.17,52.25,13.928,73,27C4435.94,981.5,4464.73,1087.49,4465,1226ZM5883,898c129.56-1.954,220.36,37.845,248,138,6.89,24.97,5,57.24,5,88q-0.495,75.495-1,151c0,37.97,3.68,82.97-8,110-13.25,30.64-43.77,49.26-75,62-24.05,9.81-52.28,11.69-80,18q-14.505,1.005-29,2c-10.71,2.28-23.78-.57-36,2-14.27,3.01-41.74,3.09-56,0q-13.5-.495-27-1c-17.65-3.91-36.09-3.93-53-9-59.78-17.93-100.59-45.78-123-101-4.87-12.01-6-26.66-9-40-4.34-19.31-2.06-51.47,2-68,2.54-10.32,2.33-18.95,6-28,19.67-48.43,52.53-76.42,104-93q11.505-1.995,23-4c21.21-5.36,71.58-8.56,96-3,23.9,5.44,48.04,7.43,69,16,12.88,5.27,26.08,14.24,39,18v-43c-3.06-5.09-1.19-14.02-3-20-5.6-18.49-16.21-34.66-31-44-55.61-35.11-155.59-15.95-208,7a279.807,279.807,0,0,0-36,19c-4.71,2.99-8.23,7.93-14,10V945c38.13-20.819,79.64-29.175,128-41l47-5C5867.69,897.492,5878.01,901.141,5883,898Zm-798,556H4926V1211c0-54.06,5.74-116.65-17-148-12.2-16.83-30.55-22.89-54-29-10.54-2.75-38.55-6.21-53-3-17.88,3.97-35.79,6.37-51,12-4.21,1.56-14.06,2.44-16,6v405H4576V960c8.09-2.007,15.69-7.807,23-11,14.4-6.289,30.34-11.079,45-16,31.34-10.522,65.76-14.335,99-23l67-9c10.32-2.387,22.42.2,32-2,7.97-1.833,22.58-.467,29,1h20c20.24,4.607,42.24,4.549,60,10,11.92,3.657,22.08,4.5,33,9,36.09,14.873,68.48,40.692,84,76,19.17,43.6,17,107.05,17,171v288Zm-977-330h199c-1.19-41.74-18.9-78.37-46-95-8.76-5.38-18.52-6.15-30-9C4158.25,1001.92,4110.3,1063.68,4108,1124Zm1870,113c-8.66-1.22-17.06-4.82-25-7-8.25-2.26-17.21-2.29-25-4q-16.995-.495-34-1c-44.94,0-81.58,7.32-94,40-4.27,11.23-6.29,33.44-1,46,15.14,35.97,65.98,57.3,122,45,20.91-4.59,35.35-1.47,49-13,8.1-6.84,8-20.9,8-36v-70Z"/>
  <path id="Wypełnienie_gradientem_1" data-name="Wypełnienie gradientem 1" class="cls-2" d="M2413,368q4.995,32.5,10,65c3.64,16.008.04,36.192,4,54v45c0,19.164,1.72,40.41-2,57q-0.495,13.5-1,27a240.741,240.741,0,0,0-5,45h1c10.62-16.263,30.31-26.556,42-42,28.93-38.212,58.51-65.693,79-114,13.04-30.752,18.45-69.85-2-98-9.84-13.539-28.53-24.265-45-31l-33-10c33.47,0.663,66.75,6.391,93,15,39.25,12.87,72.74,29.573,88,66,3.59,8.572,2.75,16.486,5,27,2.48,11.583,1.01,28.283-2,39-3.97,14.122-8.33,28.082-14,41-10.42,23.746-25.85,44.911-40,65-33.04,46.92-72.03,88.021-113,127a498.807,498.807,0,0,1-43,37c-7.11,5.358-12.87,13.634-20,19-6.39,4.814-22.92,14.17-24,23q-12,47.495-24,95c-16.1,49.275-28.55,100.68-43,152-8.45,30-10.44,59.59-19,90-14.14,50.24-19.93,105.53-34,156-5.02,18.02-4.93,35-10,53-15.68,55.7-22.08,115.02-38,171-9.84,34.59-15.26,71.03-26,106-28.55,92.99-51.23,187.56-87,272-33.76,79.69-69.56,167.57-135,215-22.11,16.02-60.14,41.48-101,28-23.91-7.89-37.68-28.17-50-48-22.71-36.54-36.21-82.15-51-127q-4.005-16.5-8-33c-16.86-51.82-25.61-107.66-43-160-25.11-75.56-46.43-151.9-85-214-17.66-28.44-38.58-52.49-61-76-13.62,3.13-26.81,12.6-39,18-25.25,11.2-50.34,22.13-75,33-61.09,26.94-123.25,47.99-186,74-21.82,9.05-45.15,15.63-68,25-13.68,5.61-29.15,12.07-44,16q-9,24.495-18,49c-11.11,29.75-18.16,61.81-28,92-4.23,12.98-4.73,24.91-9,38-20.77,63.64-31.45,134.27-56,194-17.66,42.97-34.08,97.43-75,116-46.408,21.06-100.155-14.27-123-37-49.464-49.21-83.138-113.08-113-182-6-13.85-9.2-26.93-15-41-8.547-20.74-14.775-42.78-23-65-3.892-10.51-9.224-21.81-11-34-10.084.07-19.619,2.84-28,5-16.389,4.23-33.43,4.2-49,8q-51.995,6.495-104,13-17.5,1.005-35,2c-27.881,6.1-65.018,3.99-97,4-129.867.03-234.179-19.07-309-73-39.98-28.82-69.985-70.3-70-139,0-14.53-.213-27.6,3-40,7.662-29.57,15.731-56.38,27-82a325.172,325.172,0,0,1,19-37c4.377-7.17,11.163-14.55,14-23h1v3c-6.342,8.18-6.519,21.02-10,32-18.456,58.21,1.274,110.26,32,141,54.531,54.55,150.578,73.98,259,74,38.468,0.01,81.893,2.25,115-5q11-.495,22-1,43-5.505,86-11c15.189-3.69,31.917-3.87,48-8,54.958-14.11,112.921-18.82,166-35,58.625-17.87,118.222-30.71,176-50,121.65-40.62,242.17-80.12,355-129,24.36-10.55,47.88-18.42,72-29,29.51-12.95,59.74-28.14,89-41,41.82-18.38,80.6-36.75,115-62,8.03-5.9,14.16-15.07,22-21,17.39-13.15,33.86-30.59,47-48,12.03-15.94,28.06-29.76,40-46,27.36-37.21,54.43-75.02,79-115,10.3-16.77,16.63-34.92,27-52,25.99-42.793,43.61-91.791,64-140,7.44-17.6,13.33-36.259,21-55,2.82-6.9,6.72-14.5,8-23-4.72-.573-9.87-2.07-14-3-20.5-4.621-41.41,4.962-53,11-27.04,14.09-44.48,35.552-60,61-7.86,12.9-11.15,28.048-19,41-18.01,29.7-34.94,59.506-54,88-19.09,28.53-42.74,53.95-63,81-13.67,18.25-31.91,40.43-50,54a576.807,576.807,0,0,1-114,67c-20.21,8.85-40.05,14.42-61,23-19.84,8.12-42,16.68-64,22v-1c5.16-4.96,8.66-12.24,13-18,12.49-16.58,35.91-33.89,54-45,16.06-9.86,34.59-14.04,53-22,22.69-9.82,43.67-23.61,60-40,11.08-11.12,34.99-43.53,21-66-12.04-19.35-60.82-8.41-80-2a550.812,550.812,0,0,0-113,53c-21.94,13.37-49.74,23.33-74,34-51.41,22.61-118.6,55.2-150,97-8.22,10.95-16.83,22.3-24,34-4.92,8.02-7.04,16.86-12,25-9.03,14.82-26.6,37.87-40,48-23.25,17.58-46.6,35.4-72,51-68.529,42.1-152.133,70.43-235,98-19.03,6.33-40.543,12.7-60,19-9.353,3.03-17.549,2.96-27,6-11.046,3.55-24.147,7.87-37,9v-1h-1c-0.605-12.82-5.762-26.63-9-38-6.364-22.35-8.94-45.47-15-67-3.694-13.13-3.273-24.81-7-38-12.165-43.06-17.313-90.55-29-134-6.057-22.52-8.007-45.6-14-67-1.93-6.89-.636-19.66-6-23-6.328,8.88-19.211,15.44-28,22-18.075,13.49-33.873,30.31-52,44-10.5,7.92-18.531,20.09-29,28a240.963,240.963,0,0,0-45,45c-8.6,11.39-21.384,20.5-30,32-12.333,16.46-23.512,32.37-35,50-18.8,28.84-48.59,85.93-22,129,11.875,19.24,32.754,30.12,55,39,7.2,2.87,17.726,1.82,24,6a222.3,222.3,0,0,1-55-6c-11.642-2.9-21.246-2.51-32-6-35.507-11.53-63.423-25.62-82-54-11.695-17.86-19.782-49.07-12-78q5-16.005,10-32c17.72-41.91,44.482-75.83,70-110,5.359-7.18,13.637-12.91,19-20,15.882-21,36-43.13,57-59q9.5-10.005,19-20c16.044-12.13,29.107-28.02,45-40,24.378-18.38,46.383-40.1,71-58,6.628-4.82,26.338-15.97,28-24q-8.5-33-17-66c-22.058-59.343-33.946-125.231-52-189-4.8-16.953-4.535-32.65-9-50-7.7-29.913-8.578-64.447-16-96-2.962-12.59-1.289-26.129-4-38q-2-32.5-4-65V531c0-19.446-1.837-40.967,2-58,3.5-15.535-.517-31.913,3-47,3.187-13.671,2.386-28.694,6-43,6.031-23.872,9.714-49.895,17-72,3.578-10.856,4.428-20.3,8-31,24.244-72.6,54.058-140.9,110-182,52.186-38.34,113.887-61.784,185-82L800,6l25-2c9.531-2.106,22.18-2.95,33-3h20c13.144-2.805,50.178.049,63,3l23,2c83.48,21.1,162.12,40.627,236,71q44.49,14,89,28v1h-1c-6.29,8.518-18.26,13.841-27,20-19.23,13.548-37.96,27.662-58,41-35.12,23.369-71.52,46.6-108,69-17.47,10.729-36.29,17.248-54,28-17.32,10.514-36.43,18.427-56,27-8.8,3.853-17.671,9.458-28,12v1h2c7.082-4.606,17.315-4.143,26-7,16.36-5.382,33.85-9.244,51-15,52.3-17.552,106.28-31.735,158-51,85.96-32.018,175.87-57.368,260-92,33.68-13.865,69.06-22.442,102-36,18.51-7.616,37.67-10.532,57-17,37.67-12.606,76.87-25.173,114-39,45.2-16.833,93.63-26.456,142-39,14.5-3.76,28.37-1.58,44-5,15-3.281,39.71-4.225,55-2l40,1c23.25,5.289,47.71,3.706,70,10,45.38,12.811,87.5,23.623,127,41,23.64,10.4,47.47,24.607,68,39,7.59,5.321,21.7,21.8,31,23,8.72-5.425,39.14-2.088,52-5,8.28-1.874,18.43.155,28-2,22.46-5.059,56.84-3,83-3,21.23,0,45.45-2.318,64,2l27,1,61,8c22.09,5.781,44.92,8.949,66,16,62.32,20.845,112.5,52.084,141,107,8.21,15.825,12.09,33.454,17,54,1.9,7.929-.8,17.079,0,23,0.5,3.719,1.45,13.818,0,20-4.55,19.4-6.06,38.272-12,56-7.93,23.68-19.7,53.771-32,74-6.3,10.361-13.59,20.879-19,32h-1v-3c6.8-7.611,8.77-27.352,12-39,17.73-64.017-10-118.212-46-145-25.56-19.021-53.64-32.876-88-44-18.19-5.889-38.04-7.5-57-12l-57-6h-19c-15.05-3.167-66.02-3.265-81,0-6.83,1.488-16.41-.219-22,1l-42,2c-28.86,6.441-61.16,5.433-89,12-28.55,6.735-56.19,5.829-84,13-62.3,16.067-127.26,24.009-186,43-10.76,3.477-20.29,3.51-31,7-51.02,16.633-103.31,29.066-154,46-107.73,35.992-214.42,74.438-315,118-27.38,11.86-53.84,21.094-81,33s-55.04,26.163-82,38c-32.17,14.122-62.83,27.919-90,47-36.39,25.555-75.33,67.395-102,103-3.93,5.242-10.1,9.74-14,15-17.99,24.262-36.63,48.274-54,73-35.44,50.451-63.95,107.671-90,167-7.4,16.847-16.621,34.93-24,52-7.82,18.09-12.412,35.56-20,54-6.017,14.62-13.021,30.62-17,47h2c12.392,8.67,41.64.93,52-3,42.18-16.01,63.32-48.68,83-87,21.92-42.684,43.6-81.324,70-119,13.83-19.742,30.72-37.875,45-57,20.11-26.929,43.96-55.118,71-75,39.01-28.68,82.13-48.334,130-69,16.47-7.109,35.04-14.075,52-21,5.22-2.13,9.79-1.868,15-4,9.57-3.911,20.66-9.309,32-11v1c-5.53,5.268-9.37,12.85-14,19-13.03,17.3-38.03,34.417-57,46-12.33,7.527-25.73,10.145-40,16-21.02,8.624-54.18,25.8-67,42-10.97,13.857-21.33,26.619-26,47-2.68,11.674,2.92,25.435,10,28,4.68,4.611,21.19,7.542,32,5,20.03-4.709,39.15-8.2,57-15a541.356,541.356,0,0,0,89-44c15.39-9.393,32.24-15.615,49-23,27.43-12.088,55.01-25.685,83-38,44.05-19.381,85.63-51.5,112-89,10.27-14.6,16.34-31.441,26-47,12.07-19.426,29.96-39.456,48-53,86.14-64.66,193.81-107.315,307-145,30.57-10.177,60.83-14.885,93-24,25.93-7.347,55.86-11.227,83-18,16.25-4.055,31.34-2.159,48-6C2355.38,370.381,2385.82,368.4,2413,368ZM65,1437c0.8,1.02.355,0.27,1,2H65v-2Z"/>
</svg>
