<?xml version="1.0" encoding="utf-8"?>
<!-- Generator: Adobe Illustrator 28.2.0, SVG Export Plug-In . SVG Version: 6.00 Build 0)  -->
<svg version="1.1" id="Warstwa_1" xmlns="http://www.w3.org/2000/svg" xmlns:xlink="http://www.w3.org/1999/xlink" x="0px" y="0px"
	 viewBox="0 0 1255.5 246.7" style="enable-background:new 0 0 1255.5 246.7;" xml:space="preserve">
<style type="text/css">
	
		.st0{fill-rule:evenodd;clip-rule:evenodd;fill:url(#Wypełnienie_gradientem_1_00000114047823273811841420000006943214891356667041_);stroke:#1A2980;stroke-width:4;stroke-miterlimit:10;}
	.st1{fill:#1A2980;}
</style>
<linearGradient id="Wypełnienie_gradientem_1_00000093144681211878009380000015011679642521106819_" gradientUnits="userSpaceOnUse" x1="-199.5184" y1="-4343.8896" x2="-199.5184" y2="-2176.8762" gradientTransform="matrix(0.1106 0 0 -0.1106 181.8823 -237.2419)">
	<stop  offset="0" style="stop-color:#FFFFFF"/>
	<stop  offset="0.41" style="stop-color:#FFFFFF"/>
	<stop  offset="1" style="stop-color:#1A2980"/>
</linearGradient>
<path id="Wypełnienie_gradientem_1" style="fill-rule:evenodd;clip-rule:evenodd;fill:url(#Wypełnienie_gradientem_1_00000093144681211878009380000015011679642521106819_);stroke:#1A2980;stroke-width:4;stroke-miterlimit:10;" d="
	M269.4,44.2c0.4,2.4,0.7,4.8,1.1,7.2c0.4,1.8,0,4,0.4,6v5c0,2.1,0.2,4.5-0.2,6.3c0,1-0.1,2-0.1,3c-0.3,1.6-0.5,3.3-0.6,5h0.1
	c1.2-1.8,3.4-2.9,4.6-4.6c3.2-4.2,6.5-7.3,8.7-12.6c1.4-3.4,2-7.7-0.2-10.8c-1.1-1.5-3.2-2.7-5-3.4l-3.6-1.1
	c3.7,0.1,7.4,0.7,10.3,1.7c4.3,1.4,8,3.3,9.7,7.3c0.4,0.9,0.3,1.8,0.6,3c0.3,1.3,0.1,3.1-0.2,4.3c-0.4,1.6-0.9,3.1-1.5,4.5
	c-1.2,2.6-2.9,5-4.4,7.2c-3.7,5.2-8,9.7-12.5,14c-1.5,1.5-3.1,2.8-4.8,4.1c-0.8,0.6-1.4,1.5-2.2,2.1c-0.7,0.5-2.5,1.6-2.7,2.5
	c-0.9,3.5-1.8,7-2.7,10.5c-1.8,5.4-3.2,11.1-4.8,16.8c-0.9,3.3-1.2,6.6-2.1,10c-1.6,5.6-2.2,11.7-3.8,17.3c-0.6,2-0.5,3.9-1.1,5.9
	c-1.7,6.2-2.4,12.7-4.2,18.9c-1.1,3.8-1.7,7.9-2.9,11.7c-3.2,10.3-5.7,20.7-9.6,30.1c-3.7,8.8-7.7,18.5-14.9,23.8
	c-2.4,1.8-6.7,4.6-11.2,3.1c-2.6-0.9-4.2-3.1-5.5-5.3c-2.5-4-4-9.1-5.6-14c-0.3-1.2-0.6-2.4-0.9-3.6c-1.9-5.7-2.8-11.9-4.8-17.7
	c-2.8-8.4-5.1-16.8-9.4-23.7c-2-3.1-4.3-5.8-6.7-8.4c-1.5,0.3-3,1.4-4.3,2c-2.8,1.2-5.6,2.4-8.3,3.6c-6.8,3-13.6,5.3-20.6,8.2
	c-2.4,1-5,1.7-7.5,2.8c-1.5,0.6-3.2,1.3-4.9,1.8c-0.7,1.8-1.3,3.6-2,5.4c-1.2,3.3-2,6.8-3.1,10.2c-0.5,1.4-0.5,2.8-1,4.2
	c-2.3,7-3.5,14.9-6.2,21.5c-2,4.8-3.8,10.8-8.3,12.8c-5.1,2.3-11.1-1.6-13.6-4.1c-5.5-5.4-9.2-12.5-12.5-20.1c-0.7-1.5-1-3-1.7-4.5
	c-0.9-2.3-1.6-4.7-2.5-7.2c-0.4-1.2-1-2.4-1.2-3.8c-1.1,0-2.2,0.3-3.1,0.6c-1.8,0.5-3.7,0.5-5.4,0.9c-3.8,0.5-7.7,1-11.5,1.4
	c-1.3,0.1-2.6,0.1-3.9,0.2c-3.1,0.7-7.2,0.4-10.7,0.4c-14.4,0-25.9-2.1-34.2-8.1c-4.4-3.2-7.7-7.8-7.7-15.4c0-1.6,0-3.1,0.3-4.4
	c0.8-3.3,1.7-6.2,3-9.1c0.6-1.4,1.3-2.8,2.1-4.1c0.5-0.8,1.2-1.6,1.5-2.5h0.1v0.3c-0.7,0.9-0.7,2.3-1.1,3.5
	c-2,6.4,0.1,12.2,3.5,15.6c6,6,16.7,8.2,28.6,8.2c4.3,0,9.1,0.2,12.7-0.6c0.8,0,1.6-0.1,2.4-0.1c3.2-0.4,6.3-0.8,9.5-1.2
	c1.7-0.4,3.5-0.4,5.3-0.9c6.1-1.6,12.5-2.1,18.4-3.9c6.5-2,13.1-3.4,19.5-5.5c13.5-4.5,26.8-8.9,39.3-14.3c2.7-1.2,5.3-2,8-3.2
	c3.3-1.4,6.6-3.1,9.8-4.5c4.6-2,8.9-4.1,12.7-6.9c0.9-0.7,1.6-1.7,2.4-2.3c1.9-1.5,3.7-3.4,5.2-5.3c1.3-1.8,3.1-3.3,4.4-5.1
	c3-4.1,6-8.3,8.7-12.7c1.1-1.9,1.8-3.9,3-5.8c2.9-4.7,4.8-10.2,7.1-15.5c0.8-1.9,1.5-4,2.3-6.1c0.3-0.8,0.7-1.6,0.9-2.5
	c-0.5-0.1-1.1-0.2-1.5-0.3c-2.3-0.5-4.6,0.5-5.9,1.2c-3,1.6-4.9,3.9-6.6,6.7c-0.9,1.4-1.2,3.1-2.1,4.5c-2,3.3-3.9,6.6-6,9.7
	c-2.1,3.2-4.7,6-7,9c-1.5,2-3.5,4.5-5.5,6c-3.9,2.9-8.1,5.4-12.6,7.4c-2.2,1-4.4,1.6-6.7,2.5c-2.2,0.9-4.6,1.8-7.1,2.4v-0.1
	c0.6-0.5,1-1.4,1.4-2c1.4-1.8,4-3.7,6-5c1.8-1.1,3.8-1.6,5.9-2.4c2.5-1.1,4.8-2.6,6.6-4.4c1.2-1.2,3.9-4.8,2.3-7.3
	c-1.3-2.1-6.7-0.9-8.8-0.2c-4.4,1.5-8.6,3.4-12.5,5.9c-2.4,1.5-5.5,2.6-8.2,3.8c-5.7,2.5-13.1,6.1-16.6,10.7
	c-0.9,1.2-1.9,2.5-2.7,3.8c-0.5,0.9-0.8,1.9-1.3,2.8c-1,1.6-2.9,4.2-4.4,5.3c-2.6,1.9-5.2,3.9-8,5.6c-7.6,4.7-16.8,7.8-26,10.8
	c-2.1,0.7-4.5,1.4-6.6,2.1c-1,0.3-1.9,0.3-3,0.7c-1.2,0.4-2.7,0.9-4.1,1v-0.1h-0.1c-0.1-1.4-0.6-2.9-1-4.2c-0.7-2.5-1-5-1.7-7.4
	c-0.4-1.5-0.4-2.7-0.8-4.2c-1.3-4.8-1.9-10-3.2-14.8c-0.7-2.5-0.9-5-1.5-7.4c-0.2-0.8-0.1-2.2-0.7-2.5c-0.7,1-2.1,1.7-3.1,2.4
	c-2,1.5-3.7,3.4-5.8,4.9c-1.2,0.9-2,2.2-3.2,3.1c-1.9,1.4-3.5,3.1-5,5c-1,1.3-2.4,2.3-3.3,3.5c-1.4,1.8-2.6,3.6-3.9,5.5
	c-2.1,3.2-5.4,9.5-2.4,14.3c1.3,2.1,3.6,3.3,6.1,4.3c0.8,0.3,2,0.2,2.7,0.7c-2,0-4.1-0.2-6.1-0.7c-1.3-0.3-2.3-0.3-3.5-0.7
	c-3.9-1.3-7-2.8-9.1-6c-1.3-2-2.2-5.4-1.3-8.6c0.4-1.2,0.7-2.4,1.1-3.5c2-4.6,4.9-8.4,7.7-12.2c0.6-0.8,1.5-1.4,2.1-2.2
	c1.8-2.3,4-4.8,6.3-6.5c0.7-0.7,1.4-1.5,2.1-2.2c1.8-1.3,3.2-3.1,5-4.4c2.7-2,5.1-4.4,7.9-6.4c0.7-0.5,2.9-1.8,3.1-2.7
	c-0.6-2.4-1.3-4.9-1.9-7.3c-2.4-6.6-3.8-13.9-5.8-20.9c-0.5-1.9-0.5-3.6-1-5.5c-0.9-3.3-0.9-7.1-1.8-10.6c-0.3-1.4-0.1-2.9-0.4-4.2
	c-0.1-2.4-0.3-4.8-0.4-7.2v-3.1c0-2.2-0.2-4.5,0.2-6.4c0.4-1.7-0.1-3.5,0.3-5.2c0.4-1.5,0.3-3.2,0.7-4.8c0.7-2.6,1.1-5.5,1.9-8
	c0.4-1.2,0.5-2.2,0.9-3.4c2.7-8,6-15.6,12.2-20.1c5.8-4.2,12.6-6.8,20.5-9.1L91,4.2L93.7,4c1.1-0.2,2.5-0.3,3.6-0.3h2.2
	c1.5-0.3,5.5,0,7,0.3l2.5,0.2c9.2,2.3,17.9,4.5,26.1,7.9c3.3,1,6.6,2.1,9.8,3.1v0.1H145c-0.7,0.9-2,1.5-3,2.2
	c-2.1,1.5-4.2,3.1-6.4,4.5c-3.9,2.6-7.9,5.2-11.9,7.6c-1.9,1.2-4,1.9-6,3.1c-1.9,1.2-4,2-6.2,3c-1,0.4-2,1-3.1,1.3v0.1h0.2
	c0.8-0.5,1.9-0.5,2.9-0.8c1.8-0.6,3.7-1,5.6-1.7c5.8-1.9,11.8-3.5,17.5-5.6c9.5-3.5,19.5-6.3,28.8-10.2c3.7-1.5,7.6-2.5,11.3-4
	c2-0.8,4.2-1.2,6.3-1.9c4.2-1.4,8.5-2.8,12.6-4.3c5-1.9,10.4-2.9,15.7-4.3c1.6-0.4,3.1-0.2,4.9-0.6c1.7-0.4,4.4-0.5,6.1-0.2l4.4,0.1
	c2.6,0.6,5.3,0.4,7.7,1.1c5,1.4,9.7,2.6,14,4.5c2.6,1.2,5.3,2.7,7.5,4.3c0.8,0.6,2.4,2.4,3.4,2.5c1-0.6,4.3-0.2,5.8-0.6
	c0.9-0.2,2,0,3.1-0.2c2.5-0.6,6.3-0.3,9.2-0.3c2.3,0,5-0.3,7.1,0.2l3,0.1l6.7,0.9c2.4,0.6,5,1,7.3,1.8c6.9,2.3,12.4,5.8,15.6,11.8
	c0.9,1.8,1.3,3.7,1.9,6c0.2,0.9-0.1,1.9,0,2.5c0.1,0.4,0.2,1.5,0,2.2c-0.5,2.1-0.7,4.2-1.3,6.2c-0.9,2.6-2.2,5.9-3.5,8.2
	c-0.7,1.1-1.5,2.3-2.1,3.5h-0.1v-0.3c0.8-0.8,1-3,1.3-4.3c2-7.1-1.1-13.1-5.1-16c-2.8-2.1-5.9-3.6-9.7-4.9c-2-0.7-4.2-0.8-6.3-1.3
	l-6.3-0.7h-2.1c-1.7-0.4-7.3-0.4-9,0c-0.8,0.2-1.8,0-2.4,0.1l-4.6,0.2c-3.2,0.7-6.8,0.6-9.8,1.3c-3.2,0.7-6.2,0.6-9.3,1.4
	c-6.9,1.8-14.1,2.7-20.6,4.8c-1.2,0.4-2.2,0.4-3.4,0.8c-5.6,1.8-11.4,3.2-17,5.1c-11.9,4-23.7,8.2-34.8,13.1c-3,1.3-6,2.3-9,3.6
	c-3,1.3-6.1,2.9-9.1,4.2c-3.6,1.6-6.9,3.1-10,5.2c-4,2.8-8.3,7.5-11.3,11.4c-0.4,0.6-1.1,1.1-1.5,1.7c-2,2.7-4.1,5.3-6,8.1
	c-3.9,5.6-7.1,11.9-10,18.5c-0.8,1.9-1.8,3.9-2.7,5.8c-0.9,2-1.4,3.9-2.2,6c-0.7,1.6-1.4,3.4-1.9,5.2h0.2c1.4,1,4.6,0.1,5.8-0.3
	c4.7-1.8,7-5.4,9.2-9.6c2.4-4.7,4.8-9,7.7-13.2c1.5-2.2,3.4-4.2,5-6.3c2.2-3,4.9-6.1,7.9-8.3c4.3-3.2,9.1-5.3,14.4-7.6
	c1.8-0.8,3.9-1.6,5.8-2.3c0.6-0.2,1.1-0.2,1.7-0.4c1.1-0.4,2.3-1,3.5-1.2v0.1c-0.6,0.6-1,1.4-1.5,2.1c-1.4,1.9-4.2,3.8-6.3,5.1
	c-1.4,0.8-2.8,1.1-4.4,1.8c-2.3,1-6,2.9-7.4,4.6c-1.2,1.5-2.4,2.9-2.9,5.2c-0.3,1.3,0.3,2.8,1.1,3.1c0.5,0.5,2.3,0.8,3.5,0.6
	c2.2-0.5,4.3-0.9,6.3-1.7c3.4-1.3,6.7-2.9,9.8-4.9c1.7-1,3.6-1.7,5.4-2.5c3-1.3,6.1-2.8,9.2-4.2c4.9-2.1,9.5-5.7,12.4-9.8
	c1.1-1.6,1.8-3.5,2.9-5.2c1.3-2.1,3.3-4.4,5.3-5.9c9.5-7.2,21.4-11.9,34-16c3.4-1.1,6.7-1.6,10.3-2.7c2.9-0.8,6.2-1.2,9.2-2
	c1.8-0.4,3.5-0.2,5.3-0.7C263,44.5,266.4,44.3,269.4,44.2z M9.7,162.5c0.1,0.1,0,0,0.1,0.2H9.7V162.5z"/>
<g>
	<g>
		<path class="st1" d="M367.8,169.3V55.9h45.6c19.3,0,33.4,4.8,42.5,14.4c9.1,9.6,13.6,23.7,13.6,42.4c0,18.6-4.5,32.7-13.6,42.2
			c-9.1,9.6-23.2,14.4-42.5,14.4H367.8z M395.3,148h14.8c10.2,0,17.9-2.8,23.2-8.5c5.3-5.7,7.9-14.6,7.9-26.9
			c0-12.5-2.6-21.5-7.9-27.1s-13-8.4-23.2-8.4h-14.8V148z"/>
		<path class="st1" d="M526.7,171.8c-8.6,0-16.2-1.8-22.9-5.4c-6.6-3.6-11.8-8.7-15.5-15.3c-3.7-6.6-5.5-14.5-5.5-23.7
			c0-15,3.7-26.5,11.1-34.8c7.4-8.2,18-12.3,31.9-12.3c9.5,0,17.2,2,23,6.1c5.8,4.1,10.1,10,12.8,17.9c2.7,7.8,4,17.3,3.9,28.6
			h-65.5l-2.7-16.1h47.3l-3.7,8c-0.1-9.2-1.4-15.6-3.9-19.4c-2.5-3.7-6.6-5.6-12.2-5.6c-3.2,0-6,0.8-8.6,2.4
			c-2.6,1.6-4.5,4.2-5.9,7.9c-1.4,3.7-2.1,8.8-2.1,15.2c0,8.2,2,14.4,5.9,18.9c3.9,4.4,10.2,6.6,18.8,6.6c3.2,0,6.3-0.4,9.4-1.1
			c3.1-0.7,6-1.6,8.8-2.6c2.7-1,5-1.9,7-2.7V166c-4.1,1.7-8.6,3.1-13.7,4.2C539.3,171.3,533.4,171.8,526.7,171.8z"/>
		<path class="st1" d="M583.3,90.6c2.2-1.1,5-2.3,8.5-3.5c3.5-1.2,7.4-2.2,11.6-3.1c4.2-0.9,8.4-1.6,12.7-2.2
			c4.2-0.6,8.2-0.9,11.8-0.9c7.7,0,14.3,1,19.7,3c5.4,2,9.6,5.2,12.5,9.6c2.9,4.4,4.3,10.4,4.3,18v57.8h-25.3v-52.7
			c0-2.2-0.3-4.1-0.9-5.9c-0.6-1.8-1.6-3.4-2.8-4.7c-1.2-1.3-2.9-2.3-5.1-3.1c-2.2-0.7-4.8-1.1-7.8-1.1c-2.6,0-5.2,0.3-7.8,0.9
			c-2.6,0.6-4.6,1.3-5.9,2v64.6h-25.3V90.6z"/>
		<path class="st1" d="M722.1,172.7c-10,0-17.4-2.4-22.3-7.1c-4.9-4.7-7.3-11.4-7.3-20v-43h-12.6V83.3h12.6V59.6H719v23.6h18.9v19.4
			H719v39.8c0,2.9,0.6,5.1,1.9,6.5c1.2,1.4,3.3,2.1,6.3,2.1c1.7,0,3.6-0.3,5.6-1c2-0.7,3.7-1.5,5.1-2.5v21.8c-2.4,1.2-5,2.1-7.7,2.6
			C727.4,172.4,724.7,172.7,722.1,172.7z"/>
		<path class="st1" d="M790.2,171.8c-5.2,0-10.1-0.5-14.7-1.4c-4.6-1-8.6-2.5-12.1-4.8c-3.5-2.2-6.2-5.2-8.1-9
			c-1.9-3.8-2.9-8.5-2.9-14.2c0-5.3,1.1-10,3.3-13.9c2.2-4,5.6-7,10.1-9.2c4.5-2.2,10.3-3.2,17.2-3.2c3.9,0,7.6,0.4,11.2,1.2
			c3.6,0.8,6.9,1.9,9.8,3.2c2.9,1.4,5.2,2.8,6.9,4.4l1,12.2c-2.3-1.4-5-2.4-8.2-3.2c-3.2-0.8-6.6-1.2-10.2-1.2
			c-5.6,0-9.6,0.8-12.2,2.5c-2.5,1.6-3.8,4.2-3.8,7.7c0,2.2,0.6,4.1,1.9,5.8c1.2,1.7,2.9,3,5,3.9c2.1,0.9,4.3,1.4,6.5,1.4
			c5.8,0,9.8-0.4,12.2-1.2c2.3-0.8,3.5-2.4,3.5-4.8v-31.6c0-5.2-1.7-9-5-11.3c-3.3-2.3-8.1-3.5-14.2-3.5c-5,0-10,0.9-15,2.6
			c-5,1.8-9.2,3.9-12.3,6.4V88.2c2.9-1.8,7.5-3.5,13.7-5.1c6.2-1.6,13.1-2.4,20.8-2.4c2.7,0,5.7,0.2,9,0.7c3.3,0.5,6.6,1.3,9.9,2.5
			c3.3,1.2,6.3,2.9,9.1,5.2c2.8,2.3,5,5.2,6.7,8.7c1.7,3.5,2.5,7.9,2.5,13.1l-0.2,40.6c0,4.9-1.6,8.8-4.9,11.8
			c-3.3,3-8,5.2-14.2,6.5C806.4,171.1,799,171.8,790.2,171.8z"/>
		<path class="st1" d="M879.5,169.3h-25.2V50.8h25.2V169.3z"/>
		<path class="st1" d="M952.6,170.6c-17.5,0-30.6-4.9-39.4-14.6c-8.8-9.7-13.2-24.3-13.2-43.5c0-19.3,4.4-33.8,13.2-43.5
			c8.8-9.7,21.9-14.6,39.4-14.6c6,0,11.9,0.7,17.7,2.2c5.8,1.5,11.4,3.5,16.8,6.1v11.7c-5.2-2.8-10.6-5-16.2-6.4
			c-5.6-1.4-11.2-2.1-17-2.1c-9.5,0-17.3,1.6-23.4,4.9c-6.1,3.3-10.5,8.4-13.4,15.2c-2.9,6.9-4.3,15.7-4.3,26.4
			c0,10.8,1.4,19.6,4.3,26.4c2.9,6.9,7.4,11.9,13.4,15.2c6.1,3.3,13.9,4.9,23.4,4.9c5.8,0,11.4-0.7,17-2c5.6-1.4,10.9-3.5,16.2-6.3
			v11.7c-3.6,1.7-7.3,3.2-11.1,4.4c-3.8,1.2-7.7,2.2-11.6,2.8C960.5,170.3,956.6,170.6,952.6,170.6z"/>
		<path class="st1" d="M1039.3,171.8c-3.7,0-7.5-0.4-11.3-1.2c-3.8-0.8-7.3-2.2-10.5-4.1c-3.2-1.9-5.8-4.6-7.8-7.9
			c-2-3.3-3-7.6-3-12.7c0-7,1.3-12.7,4-16.9c2.7-4.2,6.3-7.3,11-9.2c4.7-1.9,10.1-2.8,16.2-2.8c4.6,0,8.7,0.3,12.1,0.9
			c3.4,0.6,6.4,1.4,9.1,2.5c2.7,1.1,5.1,2.3,7.2,3.7l2.4,11.2c-2.6-1.9-6.4-3.6-11.3-5c-4.9-1.4-10.3-2.1-16.2-2.1
			c-7.1,0-12.6,1.4-16.5,4.1c-3.9,2.7-5.8,6.7-5.8,11.9c0,4.2,1.2,7.5,3.5,10c2.3,2.5,5.3,4.2,8.8,5.3c3.6,1,7.2,1.5,11,1.5
			c7.4,0,12.9-0.5,16.7-1.6c3.8-1.1,5.7-3.5,5.7-7.4V113c0-6.6-1.9-11.4-5.8-14.5c-3.9-3.1-9.3-4.6-16.5-4.6c-4.5,0-9.3,0.7-14.4,2
			c-5,1.3-9.4,3.4-13,6.2V89.9c3.5-2.3,8.2-4,14.1-5.2c5.9-1.2,11.6-1.8,17.2-1.8c3.7,0,7.2,0.4,10.4,1.1c3.2,0.7,6,1.8,8.5,3.2
			c2.5,1.4,4.6,3.2,6.4,5.4c1.8,2.2,3.1,4.8,4.1,7.6c1,2.9,1.4,6.1,1.4,9.8v41.1c0,6-1.8,10.5-5.4,13.4c-3.6,2.9-8.2,4.9-13.9,5.8
			C1052,171.4,1045.9,171.8,1039.3,171.8z"/>
		<path class="st1" d="M1104.2,169.3v-78c1.4-0.6,4-1.5,7.9-2.9s8.6-2.6,14.1-3.7c5.5-1.1,11.2-1.7,17.1-1.7c0.9,0,1.8,0.1,2.7,0.3
			c0.9,0.2,1.8,0.5,2.7,0.7v10.9c-2.9-0.3-5.8-0.5-8.6-0.5c-2.8,0-5.5,0.1-8.1,0.4c-2.6,0.3-5.2,0.7-7.8,1.1
			c-2.6,0.5-5.2,0.9-7.8,1.4v72.1H1104.2z"/>
		<path class="st1" d="M1203.3,171.8c-8,0-15-1.7-20.9-5c-5.9-3.3-10.4-8.4-13.6-15c-3.2-6.7-4.8-15-4.8-25
			c0-14.6,3.3-25.6,9.9-32.9c6.6-7.3,15.7-11,27.3-11c9.1,0,16.3,2,21.8,6.1c5.5,4.1,9.4,9.6,11.8,16.5c2.4,6.9,3.5,14.7,3.4,23.5
			h-68.2l0.9-11.2h59.3l-4.8,1.7c-0.3-8.5-2.5-14.8-6.4-19c-3.9-4.2-9.9-6.3-17.9-6.3c-5.6,0-10.2,1-13.9,3.1
			c-3.7,2-6.4,5.6-8.2,10.6c-1.8,5-2.7,12.1-2.7,21.2c0,10.3,2.4,18.2,7.2,23.5c4.8,5.4,11.6,8.1,20.3,8.1c4.2,0,8-0.3,11.6-0.9
			c3.5-0.6,6.7-1.5,9.7-2.6c2.9-1.1,5.6-2.4,7.8-3.7v12.6c-4.1,1.9-8.6,3.4-13.5,4.4C1214.6,171.3,1209.2,171.8,1203.3,171.8z"/>
	</g>
</g>
</svg>
