<svg xmlns="http://www.w3.org/2000/svg" viewBox="0 0 62 62"><defs><style>.cls-1{fill:#0867ff;}</style></defs><title>Zasób 4</title><g id="Warstwa_2" data-name="Warstwa 2"><g id="Layer_1" data-name="Layer 1"><path d="M37,42H5a5,5,0,0,1-5-5V3A3,3,0,0,1,3,0H39a3,3,0,0,1,3,3V37A5,5,0,0,1,37,42ZM3,2A1,1,0,0,0,2,3V37a3,3,0,0,0,3,3H37a3,3,0,0,0,3-3V3a1,1,0,0,0-1-1Z"/><path class="cls-1" d="M37,4H5A1,1,0,0,0,4,5V29H38V5A1,1,0,0,0,37,4Z"/><path d="M41,30H1a1,1,0,0,1,0-2H41a1,1,0,0,1,0,2Z"/><path d="M33,38a3,3,0,1,1,3-3A3,3,0,0,1,33,38Zm0-4a1,1,0,1,0,1,1A1,1,0,0,0,33,34Z"/><path d="M19,38H15a1,1,0,0,1-1-1V33a1,1,0,0,1,1-1h4a1,1,0,0,1,1,1v4A1,1,0,0,1,19,38Zm-3-2h2V34H16Z"/><path d="M11,38H7a1,1,0,0,1-1-1V33a1,1,0,0,1,1-1h4a1,1,0,0,1,1,1v4A1,1,0,0,1,11,38ZM8,36h2V34H8Z"/><circle cx="23" cy="35" r="1"/><circle cx="27" cy="35" r="1"/><circle cx="9" cy="14" r="1"/><circle cx="15" cy="15" r="1"/><circle cx="20" cy="19" r="1"/><circle cx="23" cy="25" r="1"/><path d="M33,10H25a1,1,0,0,1,0-2h8a1,1,0,0,1,0,2Z"/><path d="M33,14H25a1,1,0,0,1,0-2h8a1,1,0,0,1,0,2Z"/><path d="M27,26a1,1,0,0,1-1-.87A16.34,16.34,0,0,0,9.87,11H9A1,1,0,0,1,9,9h.87A18.34,18.34,0,0,1,28,24.87,1,1,0,0,1,27.13,26Z"/><path d="M12,62H2a2,2,0,0,1-2-2V53a1,1,0,0,1,1-1H13a1,1,0,0,1,1,1v7A2,2,0,0,1,12,62ZM2,54v6H12V54Z"/><path d="M13,58H1a1,1,0,0,1,0-2H13a1,1,0,0,1,0,2Z"/><path d="M10,54a1,1,0,0,1-1-.76l-1.76-7a.29.29,0,0,0-.54,0L5,53.24A1,1,0,1,1,3,52.76l1.76-7a2.28,2.28,0,0,1,4.42,0l1.76,7A1,1,0,0,1,10.24,54,1,1,0,0,1,10,54Z"/><path d="M37,62H12a1,1,0,0,1,0-2H36V56H13a1,1,0,0,1,0-2H37a1,1,0,0,1,1,1v6A1,1,0,0,1,37,62Z"/><path d="M41,61H37a1,1,0,0,1,0-2h3V57H37a1,1,0,0,1,0-2h4a1,1,0,0,1,1,1v4A1,1,0,0,1,41,61Z"/><path d="M54,52H44a1,1,0,0,1-1-1V47a1,1,0,0,1,1-1H54a1,1,0,0,1,1,1v4A1,1,0,0,1,54,52Zm-9-2h8V48H45Z"/><path d="M34.07,52A4.08,4.08,0,0,1,30,47.93,3.93,3.93,0,0,1,33.93,44a1,1,0,1,1,0,2A1.94,1.94,0,0,0,32,47.93,2.07,2.07,0,0,0,34.07,50a2,2,0,0,0,1.15-.35l2.23-1.48A1,1,0,0,1,38,48h6a1,1,0,0,1,0,2H38.3l-2,1.32A4.11,4.11,0,0,1,34.07,52Z"/><path d="M47,33H41a1,1,0,0,1,0-2h5V27H41a1,1,0,0,1,0-2h6a1,1,0,0,1,1,1v6A1,1,0,0,1,47,33Z"/><path d="M57,59H41a1,1,0,0,1,0-2H57a3,3,0,0,0,3-3V33a3,3,0,0,0-3-3H47a1,1,0,0,1,0-2H57a5,5,0,0,1,5,5V54A5,5,0,0,1,57,59Z"/><path d="M54.08,50a1,1,0,0,1-1-1,1,1,0,0,1,1-1h.08A5.91,5.91,0,0,0,60,42.08a1,1,0,0,1,2,0A7.92,7.92,0,0,1,54.08,50Z"/></g></g></svg>