<svg xmlns="http://www.w3.org/2000/svg" viewBox="0 0 62 62"><defs><style>.cls-1{fill:#0867ff;}</style></defs><title>Zasób 3</title><g id="Warstwa_2" data-name="Warstwa 2"><g id="Layer_1" data-name="Layer 1"><path class="cls-1" d="M39.92,46.08a12.68,12.68,0,0,0-3.19-5.35,12.73,12.73,0,0,1-3.73-9V30.5A7.5,7.5,0,0,1,40.5,23a7.7,7.7,0,0,1,4,1.16A4.94,4.94,0,0,0,47,25a3.6,3.6,0,0,0,.92-.14c0-.72.08-1.44.08-2.17V11a1,1,0,0,0-.75-1l-21-5.33a1.06,1.06,0,0,0-.5,0L4.75,10A1,1,0,0,0,4,11V22.69A38.63,38.63,0,0,0,25.55,57.48a1.06,1.06,0,0,0,.9,0A38.79,38.79,0,0,0,40,46.33Z"/><path d="M26,62a1.1,1.1,0,0,1-.4-.08A42.88,42.88,0,0,1,0,22.69V7A1,1,0,0,1,.77,6l25-6a.9.9,0,0,1,.46,0l25,6A1,1,0,0,1,52,7V23a1,1,0,0,1-2,0V7.79L26,2,2,7.79v14.9A40.88,40.88,0,0,0,26,59.91,41.12,41.12,0,0,0,40.24,49.19a1,1,0,0,1,1.52,1.3A43,43,0,0,1,26.4,61.92,1.1,1.1,0,0,1,26,62Z"/><path d="M22,50.38a1,1,0,0,1-.61-.21A34.36,34.36,0,0,1,11.86,38.7a1,1,0,1,1,1.77-.92,32.56,32.56,0,0,0,9,10.81,1,1,0,0,1,.18,1.4A1,1,0,0,1,22,50.38Z"/><circle cx="11.11" cy="34.74" r="1"/><path d="M26,57a1,1,0,0,1-1-1V6a1,1,0,0,1,2,0V56A1,1,0,0,1,26,57Z"/><path d="M26,36a1,1,0,0,1-.33-.06l-20-7a1,1,0,1,1,.66-1.88L26,33.94l6.67-2.33a1,1,0,0,1,.66,1.88l-7,2.45A1,1,0,0,1,26,36Z"/><path d="M47,30a9.94,9.94,0,0,1-5.52-1.84,1,1,0,1,1,1.11-1.66,7.26,7.26,0,0,0,8.82,0,1,1,0,1,1,1.11,1.66A9.94,9.94,0,0,1,47,30Z"/><path d="M50.72,54A2.72,2.72,0,0,1,48,51.28V41a1,1,0,0,0-2,0V51.28a2.72,2.72,0,0,1-5.33.78L39,46.36A11.7,11.7,0,0,0,36,41.44a13.68,13.68,0,0,1-4-9.71V30.5A8.51,8.51,0,0,1,40.5,22,8.62,8.62,0,0,1,45,23.31,4,4,0,0,0,47,24a4,4,0,0,0,2-.69A8.62,8.62,0,0,1,53.5,22,8.51,8.51,0,0,1,62,30.5v1.23a13.68,13.68,0,0,1-4,9.71A11.7,11.7,0,0,0,55,46.36l-1.71,5.7A2.71,2.71,0,0,1,50.72,54ZM47,38a3,3,0,0,1,3,3V51.28a.72.72,0,0,0,1.41.21l1.71-5.7A13.85,13.85,0,0,1,56.56,40,11.62,11.62,0,0,0,60,31.73V30.5A6.51,6.51,0,0,0,53.5,24,6.6,6.6,0,0,0,50,25a5.16,5.16,0,0,1-6,0,6.6,6.6,0,0,0-3.48-1A6.51,6.51,0,0,0,34,30.5v1.23A11.62,11.62,0,0,0,37.44,40a13.85,13.85,0,0,1,3.44,5.77l1.71,5.7A.72.72,0,0,0,44,51.28V41A3,3,0,0,1,47,38Z"/></g></g></svg>