<?xml version="1.0" encoding="utf-8"?>
<!-- Generator: Adobe Illustrator 28.3.0, SVG Export Plug-In . SVG Version: 6.00 Build 0)  -->
<svg version="1.1" id="Layer_1" xmlns="http://www.w3.org/2000/svg" xmlns:xlink="http://www.w3.org/1999/xlink" x="0px" y="0px"
	 viewBox="0 0 383.9 375.6" style="enable-background:new 0 0 383.9 375.6;" xml:space="preserve">
<style type="text/css">
	.st0{display:none;fill:#5766CE;}
	.st1{display:none;fill:#1A2980;}
	.st2{clip-path:url(#SVGID_00000038413529129239943060000012030230152028656260_);fill:#FCF2B6;}
	.st3{clip-path:url(#SVGID_00000161601863931390893410000002602730181468457116_);fill:#ECECF1;}
	.st4{clip-path:url(#SVGID_00000147927380690818080990000002805553977972022967_);fill:#D3D3D8;}
	.st5{fill:#FFF5F5;}
	.st6{fill:#24D3B5;}
	.st7{fill:#126E66;}
	.st8{fill:#FF50B5;}
	.st9{fill:#FF2EA6;}
</style>
<g>
	<path class="st0" d="M398.9,194.1c0,103.7-84.1,187.8-187.8,187.8S23.3,297.8,23.3,194.1S107.4,6.3,211.1,6.3
		S398.9,90.4,398.9,194.1L398.9,194.1z"/>
	<path class="st1" d="M390.2,250.8c-24,76-95.1,131.1-179.1,131.1c-83.9,0-155-55.1-179.1-131.1L390.2,250.8L390.2,250.8z"/>
	<g>
		<g>
			<defs>
				<rect id="SVGID_1_" x="14.9" y="6.1" width="384" height="376"/>
			</defs>
			<clipPath id="SVGID_00000043422363534725549240000014452498423356798887_">
				<use xlink:href="#SVGID_1_"  style="overflow:visible;"/>
			</clipPath>
			<path style="clip-path:url(#SVGID_00000043422363534725549240000014452498423356798887_);fill:#FCF2B6;" d="M350.5,276.3
				c1.7,1.6,2.4,4,1.6,6.2l0,0c-1.7,5.2-3.7,10.2-6,14.9c-4.2,8.6-15.8,10.3-22.2,3.2c-8.9-9.8-14.6-25-14.6-42.1
				c0-24.1,11.4-44.6,27.1-51.3c6-2.6,12.9,0.3,15.4,6.3c0.6,1.4,1.2,2.9,1.7,4.4c0.8,2.3,0,4.9-1.9,6.5c-4.4,3.5-7.2,8.9-7.2,14.9
				c0,3.2,0.8,6.2,2.2,8.9c0.9,1.6,0.9,3.6,0,5.2c-1.4,2.7-2.2,5.7-2.2,8.9C344.5,267.8,346.8,272.8,350.5,276.3L350.5,276.3z"/>
		</g>
		<g>
			<defs>
				<rect id="SVGID_00000098916017009127091670000003819996224884047261_" x="14.9" y="6.1" width="384" height="376"/>
			</defs>
			<clipPath id="SVGID_00000017496890606611807160000009891412451738678942_">
				<use xlink:href="#SVGID_00000098916017009127091670000003819996224884047261_"  style="overflow:visible;"/>
			</clipPath>
			<path style="clip-path:url(#SVGID_00000017496890606611807160000009891412451738678942_);fill:#ECECF1;" d="M257.2,167.4
				l-51.1,134.2c-4.3,11.3-18,15.7-28.1,9c-4.6-3-7.6-7.9-8.2-13.3l-4.9-39.2c0,0-0.6-19.7-8.5-34.9c-7.2-13.8-26.8-13.9-33.7,0
				c-6.4,12.9-8.3,33.8-8.3,33.8l-5,40.2c-0.7,5.4-3.7,10.3-8.2,13.3c-10.1,6.7-23.7,2.3-28.1-9L21.9,167.4
				c-7.8-20.5-9.1-42.9-3.8-64.2l10.1-40.5C33,43.7,52,32.1,71,36.5l19,4.4c7.3,1.7,15,0.9,22-2c18-7.6,37.3-7.6,55.2,0
				c6.9,2.9,14.6,3.7,22,2l19-4.4c19-4.4,38,7.3,42.7,26.2l10.1,40.5C266.3,124.4,265,146.9,257.2,167.4L257.2,167.4z"/>
		</g>
		<g>
			<defs>
				<rect id="SVGID_00000112596138879074295640000014464778888382434981_" x="14.9" y="6.1" width="384" height="376"/>
			</defs>
			<clipPath id="SVGID_00000029757624977672403990000003197750363324996747_">
				<use xlink:href="#SVGID_00000112596138879074295640000014464778888382434981_"  style="overflow:visible;"/>
			</clipPath>
			<path style="clip-path:url(#SVGID_00000029757624977672403990000003197750363324996747_);fill:#D3D3D8;" d="M200.4,309.4
				L200.4,309.4c-6.1,5-15.2,5.9-22.4,1.1c-4.6-3-7.6-7.9-8.2-13.3l-4.9-39.1c0,0-0.6-19.7-8.5-34.9c-3.5-6.8-10.1-10.3-16.7-10.4
				c13.2-2.6,35.8,1.3,40.5,10.4c7.9,15.2,8.5,34.9,8.5,34.9l4.9,39.1C194.2,302,196.7,306.4,200.4,309.4L200.4,309.4z M52.8,167.4
				c-7.8-20.5-9.1-42.9-3.8-64.2l10.1-40.5c2.8-11.3,10.7-19.9,20.6-24.2l-8.7-2c-19-4.4-38,7.3-42.7,26.2l-10.2,40.5
				c-5.3,21.3-4,43.7,3.8,64.2L73,301.6c4.3,11.3,18,15.7,28.1,9c2-1.3,3.7-3,5-4.9c-0.9-1.2-1.6-2.6-2.1-4.1L52.8,167.4z"/>
		</g>
	</g>
	<path class="st5" d="M198.3,169.2c-10.9-9.8-0.2-25.5-4.3-55.3c-2.7-20-9.2-25.5-4.5-33.7c5.6-9.9,22.3-14.6,33.4-9.5
		c21.3,9.7,15.5,51.4,14.9,55.4c-3.1,20.6-15.2,47.3-29.6,47.3C203,173.4,199.2,170.1,198.3,169.2L198.3,169.2z"/>
	<path class="st6" d="M323,163.5c-0.9,0.5-1.7,0.9-2.6,1.3c-39,19.7-70.1-37.7-32.4-59.7c0.8-0.5,1.7-0.9,2.5-1.4
		c25.4-13.8,47-5,75.1-5.7c2.8-0.1,4.4,3.1,2.8,5.4C354,124,348.1,149.8,323,163.5L323,163.5z"/>
	<path class="st7" d="M315,130.8c-21.2,11.1-37.6,29.5-46.3,51.8c5.2,11.3,8,24.1,8,37.5c0,3.2-2.6,5.8-5.7,5.8
		c-3.2,0-5.7-2.6-5.7-5.8c0-34.9-21.5-63.2-47.9-63.2c-3.2,0-5.8-2.6-5.8-5.8s2.6-5.8,5.8-5.8c16.2,0,31.2,8,42.5,22.4
		c0.6,0.8,1.2,1.6,1.8,2.4c10.3-21.2,27.1-38.7,48.1-49.6c2.8-1.5,6.3-0.4,7.8,2.4C319,125.9,317.9,129.3,315,130.8L315,130.8z"/>
	<path class="st8" d="M346.7,296.2c-15.5,32.9-43.8,52.4-68.3,45c-2.6-0.8-5-1.8-7.4-3.1c-1.5-0.9-3.4-0.9-5,0
		c-2.3,1.3-4.8,2.4-7.4,3.1c-28.4,8.6-61.8-19-74.6-61.5c-12.9-42.5-0.3-84,28.1-92.6c9.8-2.9,20.1-1.6,30,3.1c16.7,8,36.1,8,52.8,0
		c9.9-4.7,20.2-6.1,30-3.1c12.2,3.7,21.5,13.4,27.1,26.7c-7,2.8-12,9.7-12,17.8l0,0c0,2.3-1.4,4.4-3.6,5.3
		c-6.9,2.9-11.7,9.7-11.7,17.7c0,4.4,1.5,8.5,4,11.7c2.4,3.1,3.8,6.8,3.6,10.7c0,0.2,0,0.4,0,0.6
		C332.3,286.6,338.4,294.1,346.7,296.2L346.7,296.2z"/>
	<path class="st9" d="M265,338.7c-2,1-4.1,1.9-6.3,2.6c-28.4,8.6-61.8-19-74.6-61.5c-12.9-42.5-0.3-84,28.1-92.6
		c9.4-2.8,19.3-1.7,28.8,2.6c-23.9,12.4-33.6,50.7-21.8,90C227.8,308.2,245.7,330,265,338.7L265,338.7z"/>
</g>
</svg>
