<?xml version="1.0" encoding="utf-8"?>
<!-- Generator: Adobe Illustrator 24.1.2, SVG Export Plug-In . SVG Version: 6.00 Build 0)  -->
<svg version="1.1" id="Layer_1" xmlns="http://www.w3.org/2000/svg" xmlns:xlink="http://www.w3.org/1999/xlink" x="0px" y="0px"
	 viewBox="0 0 376 384" style="enable-background:new 0 0 376 384;" xml:space="preserve">
<style type="text/css">
	.st0{clip-path:url(#SVGID_2_);fill:#1A2980;}
	.st1{fill:#0867FF;}
	.st2{fill:#FFF5F5;}
	.st3{fill:#97BFFD;}
	.st4{fill:#5596FB;}
	.st5{fill:#B9B9BE;}
	.st6{fill:#7FBED7;}
	.st7{fill:#A6D2E3;}
	.st8{fill:#D3D3D8;}
	.st9{fill:#ECECF1;}
	.st10{fill:#58AACB;}
	.st11{fill:#8CC5DB;}
	.st12{fill:#B4E7FD;}
</style>
<g>
	<g>
		<defs>
			<rect id="SVGID_1_" width="376" height="384"/>
		</defs>
		<clipPath id="SVGID_2_">
			<use xlink:href="#SVGID_1_"  style="overflow:visible;"/>
		</clipPath>
		<path class="st0" d="M375.8,193.4c1.1,77.2-44.9,144.4-111.1,174.2c-0.7,0.3-1.7-2.3-2.4-2c-12.1,5.3-25,9.3-38.3,12
			c-1.2,0.2-2,3.4-3.2,3.6c-4.6,0.8-9.2,1.5-13.9,1.9c-0.7,0.1-1.8-3.3-2.5-3.3c-5.5,0.5-11.5,0.6-17.1,0.6
			c-5.4,0-10.3-0.1-15.6-0.5c-1-0.1-1.6,3.3-2.5,3.2c-4.3-0.4-8.5-1-12.7-1.7c-5.3-8.1-14.4-13-24.1-13h-19.5
			C46,339.1-0.6,272,0.2,194.2C1.3,91,84.8,8.4,188,8.4C290.8,8.4,374.3,91,375.8,193.4L375.8,193.4z M375.8,193.4"/>
	</g>
	<path class="st1" d="M297.4,161c0,71-57.6,128.6-128.6,128.6c-71,0-128.6-57.6-128.6-128.6c0-71,57.6-128.6,128.6-128.6
		S297.4,90,297.4,161L297.4,161z M297.4,161"/>
	<path class="st2" d="M306,99.6c0,3.2-2.6,5.8-5.7,5.8h-3.8v3.8c0,3.2-2.6,5.7-5.8,5.7c-3.2,0-5.8-2.6-5.8-5.7v-3.8h-3.8
		c-3.2,0-5.7-2.6-5.7-5.8c0-3.2,2.6-5.7,5.7-5.7h3.8v-3.8c0-3.2,2.6-5.7,5.8-5.7c3.2,0,5.8,2.6,5.8,5.7v3.8h3.8
		C303.5,93.9,306,96.5,306,99.6L306,99.6z M306,99.6"/>
	<path class="st3" d="M145.1,184c0,3.2-2.6,5.7-5.7,5.7h-3.8v3.8c0,3.2-2.6,5.8-5.7,5.8c-3.2,0-5.8-2.6-5.8-5.8v-3.8h-3.8
		c-3.2,0-5.8-2.6-5.8-5.7c0-3.2,2.6-5.8,5.8-5.8h3.8v-3.8c0-3.2,2.6-5.8,5.8-5.8c3.2,0,5.7,2.6,5.7,5.8v3.8h3.8
		C142.5,178.2,145.1,180.8,145.1,184L145.1,184z M145.1,184"/>
	<path class="st4" d="M336.7,260.6c0,3.2-2.6,5.8-5.8,5.8h-3.8v3.8c0,3.2-2.6,5.8-5.7,5.8c-3.2,0-5.8-2.6-5.8-5.8v-3.8h-3.8
		c-3.2,0-5.7-2.6-5.7-5.8c0-3.2,2.6-5.7,5.7-5.7h3.8V251c0-3.2,2.6-5.8,5.8-5.8c3.2,0,5.7,2.6,5.7,5.8v3.8h3.8
		C334.1,254.9,336.7,257.4,336.7,260.6L336.7,260.6z M336.7,260.6"/>
	<path class="st5" d="M180.2,129.8h15.6v124.6h-15.6V129.8z M114.2,253l-9.6-34c-1-3.4-4.1-5.7-7.5-5.7L63.7,95.1
		c-1.2-4.1-5.5-6.5-9.6-5.4c-4.1,1.2-6.5,5.5-5.4,9.6l33.4,118.2c-2.9,1.8-4.4,5.3-3.4,8.8l9.6,34l5.4-1.5l13.7,48.4l15-4.2
		l-13.7-48.4L114.2,253z M305.2,157.7c-4.1-1.2-8.4,1.2-9.6,5.3l-17,59.1c-3.4,0-6.5,2.2-7.5,5.6L260.6,264l5.4,1.6l-13.3,46.1
		l15,4.3l13.3-46.1l5.4,1.6l10.5-36.3c1-3.4-0.5-7-3.4-8.8l17-59.1C311.7,163.2,309.4,158.9,305.2,157.7L305.2,157.7z M305.2,157.7"
		/>
	<path class="st6" d="M207.2,200.9v178.4c0,1.3-0.1,2.5-0.4,3.7c-6.2,0.6-12.5,0.9-18.9,0.9c-6.4,0-12.7-0.3-18.9-0.9
		c-0.2-1.2-0.4-2.4-0.4-3.7V200.9c0-10.6,8.6-19.2,19.2-19.2C198.6,181.7,207.2,190.3,207.2,200.9L207.2,200.9z M95.2,235.1
		C84.9,238,79,248.6,81.9,258.9l30.9,109.5c13.8,6,28.4,10.4,43.6,13l-37.5-132.9C116,238.2,105.4,232.3,95.2,235.1L95.2,235.1z
		 M280.4,243.9c-10.2-2.9-20.8,2.9-23.8,13.1l-35.8,124.1c15.3-2.7,30-7.3,43.9-13.5l28.8-100C296.4,257.5,290.6,246.9,280.4,243.9
		L280.4,243.9z M280.4,243.9"/>
	<path class="st7" d="M207.2,200.9v178.4c0,1.3-0.1,2.5-0.4,3.7c-6.2,0.6-12.5,0.9-18.9,0.9c-1.5,0-3.1,0-4.6-0.1V195.5
		c0-5.4,2.2-10.2,5.8-13.7C199.2,182.4,207.2,190.7,207.2,200.9L207.2,200.9z M118.9,248.4c-2.8-9.8-12.7-15.7-22.6-13.6
		c-2.5,4.3-3.3,9.6-1.8,14.8l35.3,125.2c8.6,2.8,17.5,5,26.6,6.5L118.9,248.4z M281.5,244.3c-4.4,2.4-7.9,6.4-9.4,11.6l-35.1,121.6
		c9.5-2.6,18.8-5.9,27.6-9.8l28.8-100C296.3,257.9,291,247.7,281.5,244.3L281.5,244.3z M281.5,244.3"/>
	<path class="st6" d="M198.7,354.5c0,3.2-2.6,5.7-5.8,5.7h-11.5c-3.2,0-5.7-2.6-5.7-5.7c0-3.2,2.6-5.8,5.7-5.8H193
		C196.2,348.7,198.7,351.3,198.7,354.5L198.7,354.5z M193,324.6h-11.5c-3.2,0-5.7,2.6-5.7,5.8c0,3.2,2.6,5.8,5.7,5.8H193
		c3.2,0,5.8-2.6,5.8-5.8C198.7,327.2,196.2,324.6,193,324.6L193,324.6z M195.4,383.9c2-0.9,3.3-2.9,3.3-5.2c0-3.2-2.6-5.7-5.7-5.7
		h-11.5c-3.2,0-5.7,2.6-5.7,5.7c0,2.3,1.3,4.2,3.2,5.2c3,0.1,6,0.2,9.1,0.2C190.5,384,192.9,384,195.4,383.9L195.4,383.9z
		 M193,276.3h-11.5c-3.2,0-5.7,2.6-5.7,5.7c0,3.2,2.6,5.8,5.7,5.8H193c3.2,0,5.8-2.6,5.8-5.8C198.7,278.9,196.2,276.3,193,276.3
		L193,276.3z M193,228h-11.5c-3.2,0-5.7,2.6-5.7,5.8c0,3.2,2.6,5.7,5.7,5.7H193c3.2,0,5.8-2.6,5.8-5.7
		C198.7,230.6,196.2,228,193,228L193,228z M193,300.5h-11.5c-3.2,0-5.7,2.6-5.7,5.7s2.6,5.8,5.7,5.8H193c3.2,0,5.8-2.6,5.8-5.8
		S196.2,300.5,193,300.5L193,300.5z M193,252.2h-11.5c-3.2,0-5.7,2.6-5.7,5.8c0,3.2,2.6,5.7,5.7,5.7H193c3.2,0,5.8-2.6,5.8-5.7
		C198.7,254.7,196.2,252.2,193,252.2L193,252.2z M125.7,324.8l-11.1,3.1c-3.1,0.9-4.8,4-4,7.1c0.9,3.1,4,4.8,7.1,4l11.1-3.1
		c3.1-0.9,4.8-4,4-7.1C131.9,325.7,128.7,324,125.7,324.8L125.7,324.8z M138.8,371.3l-10.6,3c5.7,1.9,11.5,3.6,17.4,4.9
		c0.5-1.2,0.7-2.6,0.3-3.9C145,372.2,141.8,370.4,138.8,371.3L138.8,371.3z M117.2,358.3c0.9,3.1,4,4.8,7.1,4l11.1-3.1
		c3.1-0.9,4.8-4,4-7.1c-0.9-3.1-4-4.8-7.1-4l-11.1,3.1C118.1,352,116.3,355.2,117.2,358.3L117.2,358.3z M112.5,278.3l-11.1,3.1
		c-3.1,0.9-4.8,4-4,7.1c0.9,3.1,4,4.8,7.1,4l11.1-3.1c3.1-0.9,4.8-4,4-7.1C118.8,279.3,115.6,277.5,112.5,278.3L112.5,278.3z
		 M119.1,301.6l-11.1,3.1c-3.1,0.9-4.8,4-4,7.1c0.9,3.1,4,4.8,7.1,4l11.1-3.1c3.1-0.9,4.8-4,4-7.1
		C125.3,302.5,122.1,300.7,119.1,301.6L119.1,301.6z M276.3,296.9c0.9-3.1-0.9-6.2-3.9-7.1l-11-3.2c-3.1-0.9-6.2,0.9-7.1,3.9
		s0.9,6.2,3.9,7.1l11,3.2C272.2,301.7,275.4,300,276.3,296.9L276.3,296.9z M269.6,320.1c0.9-3.1-0.9-6.2-3.9-7.1l-11-3.2
		c-3-0.9-6.2,0.9-7.1,3.9s0.9,6.2,3.9,7.1l11,3.2C265.5,324.9,268.7,323.2,269.6,320.1L269.6,320.1z M262.9,343.3
		c0.9-3.1-0.9-6.2-3.9-7.1l-11-3.2c-3.1-0.9-6.2,0.9-7.1,3.9c-0.9,3.1,0.9,6.2,3.9,7.1l11,3.2C258.8,348.1,262,346.4,262.9,343.3
		L262.9,343.3z M256.2,366.5c0.9-3.1-0.9-6.2-3.9-7.1l-11-3.2c-3.1-0.9-6.2,0.9-7.1,3.9c-0.9,3.1,0.9,6.2,3.9,7.1l11,3.2
		C252.1,371.3,255.3,369.6,256.2,366.5L256.2,366.5z M256.2,366.5"/>
	<path class="st8" d="M72.9,156.1c-4.1,1.2-8.4-1.2-9.6-5.4L48.7,99.4c-1.2-4.1,1.2-8.4,5.4-9.6c4.1-1.2,8.4,1.2,9.6,5.4l14.5,51.4
		C79.4,150.7,77,155,72.9,156.1L72.9,156.1z M367.3,135.7c8.2-28.4-8.3-58.2-36.7-66.4c-4.1-1.2-8.3,1.2-9.5,5.2
		c-1.2,4.1,1.2,8.3,5.2,9.5c20.3,5.9,32.1,27.1,26.2,47.4c-5.9,20.3-27.1,32.1-47.4,26.2c-4.1-1.2-8.3,1.2-9.5,5.2
		c-1.2,4.1,1.2,8.3,5.2,9.5C329.3,180.6,359.1,164.1,367.3,135.7L367.3,135.7z M367.3,135.7"/>
	<path class="st8" d="M188,0c44.4,0,80.5,36,80.5,80.5c0,44.4-36,80.5-80.5,80.5s-80.5-36-80.5-80.5C107.5,36,143.6,0,188,0L188,0z
		 M207.2,218.1h-38.4v-17.1c0-10.6,8.6-19.2,19.2-19.2c10.6,0,19.2,8.6,19.2,19.2V218.1z M118.9,248.4
		c-2.9-10.2-13.5-16.2-23.7-13.3C84.9,238,79,248.6,81.9,258.9l4.7,16.5l37-10.4L118.9,248.4z M293.5,267.7
		c2.9-10.2-2.9-20.8-13.1-23.8c-10.2-2.9-20.8,2.9-23.8,13.1l-4.7,16.5l36.9,10.6L293.5,267.7z M293.5,267.7"/>
	<path class="st9" d="M268.5,80.8c-0.1,30.8-17.5,57.6-43.1,71c-5.2,2.7-11.4-1.1-11.4-6.9c0-2.9,1.6-5.5,4.2-6.9
		c20.6-10.9,34.7-32.5,34.7-57.4c0-35.8-28.7-64.7-64.6-64.9c-24.8-0.1-46.4,13.7-57.4,34c-1.4,2.5-4,4.1-6.8,4.1h0
		c-5.9,0-9.7-6.3-6.9-11.4C130.8,17.1,157.4,0,188,0C232.3,0,268.6,36.4,268.5,80.8L268.5,80.8z M207.2,200.9v17.1h-23.8v-22.6
		c0-5.4,2.2-10.2,5.8-13.7C199.2,182.4,207.2,190.7,207.2,200.9L207.2,200.9z M96.3,234.9c-2.5,4.3-3.3,9.6-1.8,14.8l6.1,21.7
		l22.9-6.5l-4.7-16.5C116.1,238.6,106.2,232.7,96.3,234.9L96.3,234.9z M281.5,244.3c-4.4,2.4-7.9,6.4-9.4,11.6l-6.3,21.7l22.9,6.6
		l4.7-16.5C296.3,257.9,291,247.7,281.5,244.3L281.5,244.3z M281.5,244.3"/>
	<path class="st10" d="M188,15.6c35.8,0,64.9,29.1,64.9,64.9c0,35.8-29.1,64.9-64.9,64.9s-64.9-29.1-64.9-64.9
		C123.1,44.6,152.2,15.6,188,15.6L188,15.6z M188,15.6"/>
	<path class="st11" d="M252.9,80.5c0,12.7-3.7,24.6-10,34.6c-10,6.3-21.9,10-34.6,10c-35.8,0-64.9-29.1-64.9-64.9
		c0-12.7,3.7-24.6,10-34.6c10-6.3,21.9-10,34.6-10C223.8,15.6,252.9,44.6,252.9,80.5L252.9,80.5z M252.9,80.5"/>
	<path class="st12" d="M223.3,46.7c9.3,9.3,13.8,20,10,23.8c-3.8,3.8-14.5-0.7-23.8-10c-9.3-9.3-13.8-20-10-23.8
		C203.3,32.9,214,37.4,223.3,46.7L223.3,46.7z M223.3,46.7"/>
</g>
</svg>
