<?xml version="1.0" encoding="utf-8"?>
<!-- Generator: Adobe Illustrator 24.1.2, SVG Export Plug-In . SVG Version: 6.00 Build 0)  -->
<svg version="1.1" id="Layer_1" xmlns="http://www.w3.org/2000/svg" xmlns:xlink="http://www.w3.org/1999/xlink" x="0px" y="0px"
	 viewBox="0 0 384 375.9" style="enable-background:new 0 0 384 375.9;" xml:space="preserve">
<style type="text/css">
	.st0{fill:#1A2980;}
	.st1{fill:#199A8E;}
	.st2{fill:#168C80;}
	.st3{fill:#ECECF1;}
	.st4{fill:#D3D3D8;}
	.st5{fill:#FFF5F5;}
	.st6{fill:#20B7A1;}
	.st7{fill:#24D3B5;}
	.st8{fill:#B9B9BE;}
	.st9{clip-path:url(#SVGID_2_);fill:#FFF5F5;}
	.st10{clip-path:url(#SVGID_2_);fill:#20B7A1;}
	.st11{clip-path:url(#SVGID_2_);fill:#24D3B5;}
	.st12{fill:#93E2C6;}
</style>
<g>
	<path class="st0" d="M375.6,188c0,103.7-84.1,187.8-187.8,187.8S0,291.7,0,188S84.1,0.2,187.8,0.2S375.6,84.3,375.6,188L375.6,188z
		 M375.6,188"/>
	<path class="st1" d="M382.9,186.7L55.4,274.4l-27-100.7l327.5-87.7L382.9,186.7z M382.9,186.7"/>
	<path class="st2" d="M97.9,263l-42.5,11.4l-27-100.7L70,162.5L97.9,263z M97.9,263"/>
	<path class="st3" d="M131.7,190.7c0.1,5.9-4.5,10.8-10.4,11l-5.9,0.2c-2.3,0.1-26.9,6.7-28.9,7.8l-5.2,2.8
		c-5.2,2.8-11.7,0.9-14.5-4.3l-6.1-11c-3.2-5.8-4.6-12.4-3.9-19l20-33.4l14.7-4.3l34,19.3c3.9,5.4,6,11.8,6.1,18.4L131.7,190.7z
		 M342.9,132.5l-0.2-12.6c-0.1-6.6-2.3-13.1-6.1-18.4l-34-19.3l-14.7,4.3l-20,33.4c0,0.4-0.1,0.7-0.1,1.1l-33.3-18.9l-14.7,4.3
		l-20,33.4c-0.1,0.8-0.1,1.6-0.2,2.4c-0.4-0.7-0.9-1.3-1.3-2l-34-19.3l-14.7,4.3l-20,33.4c-0.7,6.6,0.7,13.2,3.9,19l6.1,11
		c2.9,5.1,9.3,7.1,14.5,4.3l5.2-2.8c2-1.1,26.7-7.7,28.9-7.8l5.9-0.2c5.9-0.2,10.5-5.1,10.4-11l-0.2-11l5.4,9.6
		c2.9,5.1,9.3,7.1,14.5,4.3l5.2-2.8c2-1.1,26.7-7.7,28.9-7.8l5.9-0.2c5.9-0.2,10.5-5.1,10.4-11l-0.1-8.3l3.2,5.8
		c2.9,5.1,9.3,7.1,14.5,4.3l5.2-2.8c2-1.1,26.7-7.7,28.9-7.8l5.9-0.2C338.4,143.3,343,138.4,342.9,132.5L342.9,132.5z M342.9,132.5"
		/>
	<path class="st4" d="M70.1,135.4c-3.5-1.2-13.3,42.7-13.3,42.7c-0.7,6.6,0.7,13.2,3.9,19l6.1,11c2.9,5.1,9.3,7.1,14.5,4.3l2.4-1.3
		c-3.2-0.5-17.1-18.3-11.2-38.4C72.5,172.8,90.1,133.2,70.1,135.4L70.1,135.4z M143.1,115.9c-3.5-1.2-13.3,42.7-13.3,42.7
		c-0.7,6.6,0.7,13.2,3.9,19l6.1,11c2.9,5.1,9.3,7.1,14.5,4.3l2.4-1.3c-3.2-0.5-17.1-18.3-11.2-38.4
		C145.5,153.2,163.1,113.6,143.1,115.9L143.1,115.9z M213.2,97.1c-3.5-1.2-13.3,42.7-13.3,42.7c-0.7,6.6,0.7,13.2,3.9,19l6.1,11
		c2.9,5.1,9.3,7.1,14.5,4.3l2.4-1.3c-3.2-0.5-17.1-18.3-11.2-38.4C215.6,134.4,233.2,94.9,213.2,97.1L213.2,97.1z M281.2,77.2
		c-3.5-1.2-13.3,42.7-13.3,42.7c-0.7,6.6,0.7,13.2,3.9,19l6.1,11c2.9,5.1,9.3,7.1,14.5,4.3l2.4-1.3c-3.2-0.5-17.1-18.3-11.2-38.4
		C283.6,114.6,301.3,75,281.2,77.2L281.2,77.2z M281.2,77.2"/>
	<path class="st5" d="M105.6,164.2c4.2-1.1,9.8,5.7,12.3,11.5c0.5,1.1,5.4,12.9,0,17.3c-2.8,2.3-8.1,2.3-10.5-0.2
		c-2-2-0.5-4.2-1.3-10.2c-1.1-9-5.5-12.8-3.1-16.5C103.3,165.8,104.1,164.6,105.6,164.2L105.6,164.2z M178.6,144.6
		c4.2-1.1,9.8,5.7,12.3,11.5c0.5,1.1,5.4,12.8,0,17.3c-2.9,2.3-8.1,2.3-10.5-0.2c-2-2-0.5-4.2-1.3-10.2c-1.1-9-5.5-12.8-3.1-16.5
		C176.3,146.3,177.2,145,178.6,144.6L178.6,144.6z M248.7,125.8c4.2-1.1,9.8,5.7,12.3,11.5c0.5,1.1,5.4,12.9,0,17.3
		c-2.8,2.3-8.1,2.3-10.5-0.2c-2-2-0.5-4.2-1.3-10.2c-1.1-9-5.5-12.8-3.1-16.5C246.4,127.5,247.3,126.2,248.7,125.8L248.7,125.8z
		 M316.8,106c4.2-1.1,9.8,5.7,12.3,11.5c0.5,1.1,5.4,12.9,0,17.3c-2.8,2.3-8.1,2.3-10.5-0.2c-2-2-0.5-4.2-1.3-10.2
		c-1.1-9-5.5-12.8-3.1-16.5C314.4,107.6,315.3,106.4,316.8,106L316.8,106z M316.8,106"/>
	<path class="st6" d="M355.9,85.9c-9.1,7.2-13.6,19.4-10.4,31.3l1.1,3.4c0.7,2.1-0.6,4.4-2.8,5c-2.1,0.6-4.2-0.6-4.8-2.6l-1.1-3.7
		c-4.3-16-20.8-25.5-36.8-21.2l-5.5,1.5c-4,1.1-7.6,2.9-10.6,5.3c0,0,0,0.1,0,0.1c-9.1,7.2-13.6,19.4-10.4,31.3l1,3.1
		c0.7,2.2-0.6,4.6-2.8,5.2c-2.1,0.6-4.3-0.6-4.9-2.7l-1.1-3.5c-4.3-16-20.8-25.5-36.8-21.2l-5.3,1.4c-16,4.3-25.5,20.8-21.2,36.8
		c0,0,0.4,1.6,0.9,3.3c0.6,2.2-0.7,4.4-2.9,5l-0.1,0c-2.1,0.6-4.3-0.7-4.9-2.8l-0.9-3.5c-4.3-16-20.8-25.5-36.8-21.2l-5.3,1.4
		c-16,4.3-25.5,20.8-21.2,36.8c0,0,0.4,1.7,0.8,3.5c0.5,2.2-0.8,4.3-3,4.9l-0.1,0c-2.2,0.6-4.5-0.8-5-3l-0.7-3.3
		c-4.3-16-20.8-25.5-36.8-21.2l-5.3,1.4c-16,4.3-25.5,20.8-21.2,36.8c0,0,0.4,1.1,0.9,2.4c0.8,2.2-0.5,4.7-2.8,5.3l-0.1,0
		c-2,0.5-4.1-0.6-4.8-2.5l-1.1-3.1c-3.2-11.9-13.2-20.3-24.7-21.9c-4-28,2.9-55.5,15.1-79.5l213.2-52.1l46.4-17.4
		C325.7,39.4,345.4,59.7,355.9,85.9L355.9,85.9z M355.9,85.9"/>
	<path class="st7" d="M355.9,85.9c-9.1,7.2-13.6,19.4-10.4,31.3l1.1,3.4c0.7,2.1-0.6,4.4-2.8,5c-2.1,0.6-4.2-0.6-4.8-2.6l-1.1-3.7
		c-4.3-16-20.8-25.5-36.8-21.2l-5.5,1.5c-4,1.1-7.6,2.9-10.6,5.3c0,0,0,0.1,0,0.1c-9.1,7.2-13.6,19.4-10.4,31.3l1,3.1
		c0.7,2.2-0.6,4.6-2.8,5.2c-2.1,0.6-4.3-0.6-4.9-2.7l-1.1-3.5c-4.3-16-20.8-25.5-36.8-21.2l-5.3,1.4c-16,4.3-25.5,20.8-21.2,36.8
		c0,0,0.4,1.6,0.9,3.3c0.6,2.2-0.7,4.4-2.9,5l-0.1,0c-2.1,0.6-4.3-0.7-4.9-2.8l-0.9-3.5c-4.3-16-20.8-25.5-36.8-21.2l-5.3,1.4
		c-16,4.3-25.5,20.8-21.2,36.8c0,0,0.4,1.7,0.8,3.5c0.5,2.2-0.8,4.3-3,4.9l-0.1,0c-2.2,0.6-4.5-0.8-5-3l-0.7-3.3
		c-4.3-16-20.8-25.5-36.8-21.2l-5.3,1.4c-16,4.3-25.5,20.8-21.2,36.8c0,0,0.4,1.1,0.9,2.4c0.8,2.2-0.5,4.7-2.8,5.3l-0.1,0
		c-2,0.5-4.1-0.6-4.8-2.5l-1.1-3.1c-3.2-11.9-13.2-20.3-24.7-21.9c-4-28,2.9-55.5,15.1-79.5l213.2-52.1l45.7-18
		C324.9,38.8,345.4,59.7,355.9,85.9L355.9,85.9z M355.9,85.9"/>
	<path class="st4" d="M358.3,181.5l-4.4,43.1c-0.4,3.6-36.7,13.4-38.8,10.4l-25.4-35.1c-0.9-1.2-1.6-2.5-2.3-3.8
		c0.1,1.7,0,3.3-0.1,5l-4.4,43.1c-0.4,3.6-36.7,13.4-38.8,10.4l-25.4-35.1c-0.9-1.2-1.7-2.5-2.3-3.8c0.1,1.7,0,3.3-0.1,5l-4.4,43.1
		c-0.4,3.6-36.7,13.4-38.8,10.4l-25.4-35.1c-0.9-1.2-1.6-2.5-2.3-3.8c0.1,1.7,0,3.3-0.1,5l-4.4,43.1c-0.4,3.6-36.7,13.4-38.8,10.4
		l-25.4-35.1c-3.9-5.4-6-11.8-6.1-18.4l-0.2-12.6c-0.1-5.9,4.5-10.8,10.4-11l5.9-0.2c2.3-0.1,4.5-0.9,6.3-2.3
		c4.6-3.6,10.3-5.1,16.1-4.3c2.3,0.3,4.6-0.1,6.6-1.1l5.2-2.8c5.2-2.8,11.7-0.9,14.5,4.3l6.1,11c0.1,0.2,0.2,0.3,0.3,0.5
		c0-0.4,0-0.8,0-1.1l-0.2-12.6c-0.1-5.9,4.5-10.8,10.4-11l5.9-0.2c2.3-0.1,4.5-0.9,6.3-2.3c4.6-3.6,10.3-5.1,16.1-4.3
		c2.3,0.3,4.6-0.1,6.6-1.1l5.2-2.8c5.2-2.8,11.7-0.9,14.5,4.3l6.1,11c0.1,0.2,0.2,0.3,0.3,0.5c0-0.4,0-0.8,0-1.1l-0.2-12.6
		c-0.1-5.9,4.5-10.8,10.4-11l5.9-0.2c2.3-0.1,4.5-0.9,6.3-2.3c4.6-3.6,10.3-5.1,16.1-4.3c2.3,0.3,4.6-0.1,6.6-1.1l5.2-2.8
		c5.2-2.8,11.7-0.9,14.5,4.3l6.1,11c0.1,0.2,0.2,0.3,0.3,0.5c0-0.4,0-0.8,0-1.1l-0.2-12.6c-0.1-5.9,4.5-10.8,10.4-11l5.9-0.2
		c2.3-0.1,4.5-0.9,6.3-2.3c4.6-3.6,10.3-5.1,16.1-4.3c2.3,0.3,4.6-0.1,6.6-1.1l5.2-2.8c5.2-2.8,11.7-0.9,14.5,4.3l6.1,11
		C357.7,168.3,359,174.9,358.3,181.5L358.3,181.5z M358.3,181.5"/>
	<path class="st8" d="M170.7,245.9c0,0,10.2,23,9.8,23.5c0,0-5.3,7.8-7.5,4.8l-25.4-35.1c-3.9-5.4-6-11.8-6.1-18.4l-0.2-12.6
		c-0.1-5.9,4.5-10.8,10.4-11l2.7-0.1C150.1,211.8,166.8,240.5,170.7,245.9L170.7,245.9z M83.3,216.6l-2.7,0.1
		c-5.9,0.2-10.5,5.1-10.4,11l0.2,12.6c0.1,6.6,2.3,13.1,6.1,18.4l25.4,35.1c2.1,3,7.5-4.9,7.5-4.9c0.5-0.5-9.8-23.5-9.8-23.5
		C95.7,260.1,79,231.4,83.3,216.6L83.3,216.6z M225.4,177.4l-2.7,0.1c-5.9,0.2-10.5,5.1-10.4,11l0.2,12.6c0.1,6.6,2.3,13.1,6.1,18.4
		l25.4,35.1c2.1,3,7.5-4.9,7.5-4.9c0.5-0.5-9.8-23.5-9.8-23.5C237.9,220.9,221.2,192.2,225.4,177.4L225.4,177.4z M312.8,206.6
		c-3.9-5.4-20.6-34-16.3-48.9l-2.7,0.1c-5.9,0.2-10.5,5.1-10.4,11l0.2,12.6c0.1,6.6,2.3,13.1,6.1,18.4l25.4,35.1
		c2.1,3,7.5-4.9,7.5-4.9C323.1,229.6,312.8,206.6,312.8,206.6L312.8,206.6z M312.8,206.6"/>
	<g>
		<defs>
			<rect id="SVGID_1_" width="384" height="376"/>
		</defs>
		<clipPath id="SVGID_2_">
			<use xlink:href="#SVGID_1_"  style="overflow:visible;"/>
		</clipPath>
		<path class="st9" d="M265.2,208.1c-3.9-2-2.1-7.4-5.6-15.8c-2.4-5.6-4.7-6.7-4-9.5c0.9-3.3,5.4-6,9-5.4c7,1.2,8.5,13.8,8.7,15
			c0.7,6.2-0.7,15-4.9,16.1C267,209,265.6,208.3,265.2,208.1L265.2,208.1z M336.3,188.5c-3.9-2-2.1-7.4-5.6-15.8
			c-2.3-5.6-4.7-6.7-4-9.5c0.8-3.3,5.4-6,9-5.4c7,1.2,8.5,13.8,8.7,15c0.7,6.2-0.7,15-4.9,16.1C338,189.4,336.7,188.7,336.3,188.5
			L336.3,188.5z M123.1,247.4c-3.9-2-2.1-7.4-5.6-15.8c-2.4-5.6-4.7-6.7-4-9.5c0.8-3.3,5.4-6,9-5.4c7,1.2,8.5,13.8,8.7,15
			c0.7,6.2-0.7,15-4.9,16.1C124.8,248.2,123.4,247.5,123.1,247.4L123.1,247.4z M194.2,227.8c-3.9-2-2.1-7.4-5.6-15.8
			c-2.3-5.6-4.7-6.7-4-9.5c0.8-3.3,5.4-6,9-5.4c7,1.2,8.5,13.8,8.7,15c0.7,6.2-0.7,15-4.9,16.1C195.9,228.6,194.5,227.9,194.2,227.8
			L194.2,227.8z M194.2,227.8"/>
		<path class="st10" d="M367.7,262.1l-48.8,12.1l-212.4,58.2c-22.5-14.6-40.6-31.7-51.1-58c9.1-7.2,13.6-19.4,10.4-31.3l-1.3-4.2
			c-0.7-2.2,0.6-4.5,2.8-5.1l0.1,0c2.2-0.6,4.4,0.7,5,2.8c0.6,2.2,1.3,4.4,1.3,4.4c4.3,16,20.8,25.5,36.8,21.2l5.3-1.4
			c16-4.3,25.5-20.8,21.2-36.8l-1.7-5.2c-0.7-2.2,0.5-4.5,2.8-5.1l0.1,0c2.1-0.6,4.3,0.6,5,2.7c0.8,2.6,1.8,5.5,1.8,5.5
			c4.3,16,20.8,25.5,36.8,21.2l5.3-1.4c16-4.3,25.5-20.8,21.2-36.8l-1-4.3c-0.5-2.1,0.8-4.2,2.8-4.8l0.1,0c2.2-0.6,4.5,0.8,5.1,3
			c0.5,2,0.9,4,0.9,4c4.3,16,20.8,25.5,36.8,21.2l5.3-1.4c16-4.3,25.5-20.8,21.2-36.8l-1.4-4.8c-0.6-2.2,0.7-4.5,2.9-5.1
			c2.2-0.6,4.4,0.7,5,2.8l1.4,5c3.2,11.9,13.2,20.3,24.7,21.9c0,0,0,0.1,0,0.1c3.9,0.5,7.9,0.3,11.9-0.8l5.5-1.5
			c16-4.3,25.5-20.8,21.2-36.8l-1.6-5.5c-0.6-2.1,0.6-4.3,2.8-4.9c2.1-0.6,4.2,0.7,4.8,2.7l1.6,5.6c3.2,11.9,13.2,20.3,24.7,21.9
			C386.9,214.6,379.9,238.1,367.7,262.1L367.7,262.1z M367.7,262.1"/>
		<path class="st11" d="M367.7,262.1l-48.8,12.1l-212.4,58.2c-22.5-14.6-40.6-31.7-51.1-58c9.1-7.2,13.6-19.4,10.4-31.3l-1.3-4.2
			c-0.7-2.2,0.6-4.5,2.8-5.1l0.1,0c2.2-0.6,4.4,0.7,5,2.8c0.6,2.2,1.3,4.4,1.3,4.4c4.3,16,20.8,25.5,36.8,21.2l5.3-1.4
			c16-4.3,25.5-20.8,21.2-36.8l-1.7-5.2c-0.7-2.2,0.5-4.5,2.8-5.1l0.1,0c2.1-0.6,4.3,0.6,5,2.7c0.8,2.6,1.8,5.5,1.8,5.5
			c4.3,16,20.8,25.5,36.8,21.2l5.3-1.4c16-4.3,25.5-20.8,21.2-36.8l-1-4.3c-0.5-2.1,0.8-4.2,2.8-4.8l0.1,0c2.2-0.6,4.5,0.8,5.1,3
			c0.5,2,0.9,4,0.9,4c4.3,16,20.8,25.5,36.8,21.2l5.3-1.4c16-4.3,25.5-20.8,21.2-36.8l-1.4-4.8c-0.6-2.2,0.7-4.5,2.9-5.1
			c2.2-0.6,4.4,0.7,5,2.8l1.4,5c3.2,11.9,13.2,20.3,24.7,21.9c0,0,0,0.1,0,0.1c3.9,0.5,7.9,0.3,11.9-0.8l5.5-1.5
			c16-4.3,25.5-20.8,21.2-36.8l-1.6-5.5c-0.6-2.1,0.6-4.3,2.8-4.9c2.1-0.6,4.2,0.7,4.8,2.7l1.6,5.6c3.2,11.9,13.2,20.3,24.7,21.9
			C386.9,214.6,379.9,238.1,367.7,262.1L367.7,262.1z M367.7,262.1"/>
	</g>
	<path class="st6" d="M61,193.5c0,0,0.4,1.1,0.9,2.4c0.8,2.2-0.5,4.7-2.8,5.3l-0.1,0c-2,0.5-4.1-0.6-4.8-2.5l-1.1-3.1
		c-3.2-11.9-13.2-20.3-24.7-21.9c-4-28,2.9-55.5,15.1-79.5l45.1-11c-11.7,24.2-18.3,51.3-18.5,80C61.9,170.5,57.9,182.1,61,193.5
		L61,193.5z M61,193.5"/>
	<path class="st6" d="M152.2,319.8l-45.7,12.5c-22.5-14.6-40.6-31.7-51.1-58c9.1-7.2,13.6-19.4,10.4-31.3l-1.3-4.2
		c-0.7-2.2,0.6-4.5,2.8-5.1l0.1,0c2.2-0.6,4.4,0.7,5,2.8c0.6,2.2,1.3,4.4,1.3,4.4c3.2,11.8,12.9,20,24.1,21.9
		C111.7,285.4,130.3,304.9,152.2,319.8L152.2,319.8z M152.2,319.8"/>
	<path class="st1" d="M367.6,258.8c4.3,16.2-51,45-123.6,64.5c-72.6,19.5-135,22.1-139.3,6c-4.3-16.2,51-45,123.6-64.5
		C300.9,245.3,363.3,242.6,367.6,258.8L367.6,258.8z M367.6,258.8"/>
	<path class="st12" d="M306,28.9c4.3,16.2-51,45-123.6,64.5c-72.6,19.5-135,22.1-139.3,6c-4.3-16.2,51-45,123.6-64.5
		C239.3,15.5,301.7,12.8,306,28.9L306,28.9z M306,28.9"/>
</g>
</svg>
