<svg id="Layer_1" data-name="Layer 1" xmlns="http://www.w3.org/2000/svg" viewBox="0 0 1442 138"><defs><style>.cls-1{fill:#fff;fill-rule:evenodd;}</style></defs><path class="cls-1" d="M1442,85c0,.18-72.64,23.64-110.25,31.43-46.66,9.67-92.14,12.15-145.5,15-50.72,2.71-105.84,7.39-144,6A914.24,914.24,0,0,1,879.5,117.18C828,105.86,787.93,89.42,736.25,78.93a872,872,0,0,0-132-16.5c-57.62-2.72-120.31,1.14-192,12.75-74.32,12-118.33,27.35-189.75,18-30.5-4-69.48-12.57-99-20.25-11.39-3-51.88-11.19-86.25-9.75C25.41,63.68,0,68.07,0,68V0H1442"/></svg>