<?xml version="1.0" encoding="utf-8"?>
<!-- Generator: Adobe Illustrator 28.3.0, SVG Export Plug-In . SVG Version: 6.00 Build 0)  -->
<svg version="1.1" id="Layer_1" xmlns="http://www.w3.org/2000/svg" xmlns:xlink="http://www.w3.org/1999/xlink" x="0px" y="0px"
	 viewBox="0 0 384 383.9" style="enable-background:new 0 0 384 383.9;" xml:space="preserve">
<style type="text/css">
	.st0{display:none;fill:#0867FF;}
	.st1{fill:#0867FF;}
	.st2{fill:#FFFFFF;}
	.st3{clip-path:url(#SVGID_00000060028922895412563350000004976926880479936128_);fill:#0867FF;}
	.st4{clip-path:url(#SVGID_00000006675791936028924800000006039895460874914443_);fill:#0867FF;}
	.st5{display:none;fill:#FFFFFF;}
</style>
<g>
	<path class="st0" d="M44.9,306.2C21.1,274.5,7.3,234.8,8.3,191.9C10.5,91.6,92.1,12.2,192.4,12.4c101.3,0.2,183.4,82.4,183.4,183.8
		c0,41.4-13.7,79.7-36.8,110.4c-0.7,0.9-2,0.9-2.7,0c-33.7-42.6-85.8-69.9-144.3-69.9c-58.3,0-110.3,27.2-144,69.6
		C47.2,307.2,45.6,307.2,44.9,306.2L44.9,306.2z"/>
	<path class="st1" d="M339,306.4c-33.5,44.6-86.9,73.5-147,73.5S78.5,351,45,306.4V172.9c0-6.2,5-11.3,11.2-11.3h271.5
		c6.2,0,11.3,5,11.3,11.3V306.4z"/>
	<path class="st1" d="M339,368.6c0,6.3-5.1,11.3-11.3,11.3H56.2c-6.2,0-11.2-5.1-11.2-11.3V235.1c33.5-44.6,86.9-73.5,147-73.5
		s113.5,28.9,147,73.5V368.6z"/>
	<path class="st1" d="M300.8,94.1c-1,0-216.5,0-217.5,0c-3.1,0-5.6,2.5-5.6,5.6V156c0,3.1,2.5,5.6,5.6,5.6s5.6-2.5,5.6-5.6v-20.6
		h206.3V156c0,3.1,2.5,5.6,5.6,5.6s5.6-2.5,5.6-5.6V99.7C306.4,96.6,303.9,94.1,300.8,94.1L300.8,94.1z M88.9,124.1v-18.8h206.3
		v18.8C295.2,124.1,88.9,124.1,88.9,124.1z"/>
	<path class="st1" d="M139.5,165.4v26.3c0,12.4-10.1,22.5-22.5,22.5s-22.5-10.1-22.5-22.5v-26.3c0-2.1,1.7-3.8,3.8-3.8h37.5
		C137.8,161.6,139.5,163.3,139.5,165.4L139.5,165.4z M60.7,161.6H23.3c-2.1,0-3.8,1.7-3.8,3.8v26.3c0,12.4,10.1,22.5,22.5,22.5
		s22.5-10.1,22.5-22.5v-26.3C64.5,163.3,62.8,161.6,60.7,161.6L60.7,161.6z M285.8,161.6h-37.5c-2.1,0-3.8,1.7-3.8,3.8v26.3
		c0,12.4,10.1,22.5,22.5,22.5c12.4,0,22.5-10.1,22.5-22.5v-26.3C289.5,163.3,287.8,161.6,285.8,161.6L285.8,161.6z M210.7,161.6
		h-37.5c-2.1,0-3.8,1.7-3.8,3.8v26.3c0,12.4,10.1,22.5,22.5,22.5s22.5-10.1,22.5-22.5v-26.3C214.5,163.3,212.8,161.6,210.7,161.6
		L210.7,161.6z M360.8,161.6h-37.5c-2.1,0-3.8,1.7-3.8,3.8v26.3c0,12.4,10.1,22.5,22.5,22.5s22.5-10.1,22.5-22.5v-26.3
		C364.5,163.3,362.8,161.6,360.8,161.6L360.8,161.6z"/>
	<path class="st2" d="M102,165.4v26.3c0,12.4-10.1,22.5-22.5,22.5S57,204.1,57,191.7v-26.3c0-2.1,1.7-3.8,3.8-3.8h37.5
		C100.3,161.6,102,163.3,102,165.4L102,165.4z M173.3,161.6h-37.5c-2.1,0-3.8,1.7-3.8,3.8v26.3c0,12.4,10.1,22.5,22.5,22.5
		s22.5-10.1,22.5-22.5v-26.3C177,163.3,175.3,161.6,173.3,161.6L173.3,161.6z M248.3,161.6h-37.5c-2.1,0-3.8,1.7-3.8,3.8v26.3
		c0,12.4,10.1,22.5,22.5,22.5s22.5-10.1,22.5-22.5v-26.3C252,163.3,250.3,161.6,248.3,161.6L248.3,161.6z M323.3,161.6h-37.5
		c-2.1,0-3.8,1.7-3.8,3.8v26.3c0,12.4,10.1,22.5,22.5,22.5s22.5-10.1,22.5-22.5v-26.3C327,163.3,325.3,161.6,323.3,161.6
		L323.3,161.6z"/>
	<path class="st1" d="M166.1,175H11.3C5,175,0,169.9,0,163.7s5-11.3,11.3-11.3h154.9c6.2,0,11.3,5,11.3,11.3
		C177.4,169.9,172.3,175,166.1,175L166.1,175z"/>
	<path class="st1" d="M372.8,175H101.2c-6.2,0-11.3-5-11.3-11.3c0-6.2,5-11.3,11.3-11.3h271.5c6.2,0,11.3,5,11.3,11.3
		C384,169.9,379,175,372.8,175L372.8,175z"/>
	<path class="st2" d="M127.5,244.1c0-4.1,3.4-7.5,7.5-7.5h114c4.1,0,7.5,3.4,7.5,7.5v124.1c-5.4,2-10.9,3.8-16.5,5.3
		c-1.5,0.4-2.8-2.6-4.4-2.2c-13.9,3.4-28.4,5.1-43.4,5.1c-2.1,0-4.5,3.3-6.6,3.3c-7-0.2-13.9-0.9-20.6-1.9c-1.8-0.3-2.6-4-4.4-4.3
		c-4.6-0.8-9.2-1.8-13.7-3c-1.2-0.3-3.2,2.8-4.4,2.5c-5.1-1.4-10.1-3.1-15-4.9L127.5,244.1L127.5,244.1z M312,236.6h-22.5
		c-2.1,0-3.8,1.7-3.8,3.8V340c0,2.1,1.7,3.8,3.8,3.8h4.3c7.8-5.2,15.1-10.9,22-17.2v-86.2C315.8,238.3,314.1,236.6,312,236.6
		L312,236.6z M94.5,236.6H72c-2.1,0-3.8,1.7-3.8,3.8v86.2c6.9,6.3,14.2,12,22,17.2h4.3c2.1,0,3.8-1.7,3.8-3.8v-99.7
		C98.2,238.3,96.6,236.6,94.5,236.6L94.5,236.6z"/>
	<path class="st2" d="M127.5,376.2V248.6c4.9-1.9,9.9-3.6,15-5c1.2-0.3,3.2,2.9,4.4,2.6c4.5-1.2,9.1-2.3,13.7-3.1
		c1.8-0.3,2.6-4.1,4.4-4.4c6.7-1,13.6-1.7,20.6-2c2.1,0,4.5,3.4,6.6,3.4c15,0,29.5,1.7,43.4,5.2c1.6,0.4,2.9-2.7,4.4-2.3
		c5.6,1.5,11.1,3.4,16.5,5.5v127.7c0,4.2-3.4,7.7-7.5,7.7H135C130.9,383.9,127.5,380.4,127.5,376.2L127.5,376.2z M312,383.9
		c2.1,0,3.8-1.7,3.8-3.9v-88.7c-6.9-6.5-14.2-12.4-22-17.7h-4.3c-2.1,0-3.8,1.7-3.8,3.9V380c0,2.2,1.7,3.9,3.8,3.9L312,383.9
		L312,383.9z M94.5,383.9c2.1,0,3.7-1.7,3.8-3.8V277.5c0-2.2-1.7-3.9-3.8-3.9h-4.3c-7.8,5.4-15.1,11.2-22,17.7V380
		c0,2.2,1.7,3.9,3.8,3.9H94.5L94.5,383.9z"/>
	<path class="st1" d="M196.9,236.6v143.2c-1.6,0-3.2,0.1-4.9,0.1c-2.1,0-4.3,0-6.4-0.1V236.6H196.9z"/>
	<path class="st1" d="M236.2,294.5h-22.5c-2.1,0-3.8-1.7-3.8-3.8v-7.5c0-2.1,1.7-3.8,3.8-3.8h22.5c2.1,0,3.8,1.7,3.8,3.8v7.5
		C240,292.8,238.3,294.5,236.2,294.5L236.2,294.5z M180,287c0-5.3-4.3-9.6-9.6-9.6s-9.6,4.3-9.6,9.6c0,5.3,4.3,9.6,9.6,9.6
		S180,292.3,180,287L180,287z M154.3,287c0-5.3-4.3-9.6-9.6-9.6s-9.6,4.3-9.6,9.6c0,5.3,4.3,9.6,9.6,9.6S154.3,292.3,154.3,287
		L154.3,287z"/>
	<g>
		<g>
			<g>
				<g>
					<defs>
						<rect id="SVGID_1_" y="4" width="384" height="376"/>
					</defs>
					<clipPath id="SVGID_00000169550151875468786030000014579129062449547155_">
						<use xlink:href="#SVGID_1_"  style="overflow:visible;"/>
					</clipPath>
					<path style="clip-path:url(#SVGID_00000169550151875468786030000014579129062449547155_);fill:#0867FF;" d="M285,97.1
						c0,51.4-41.6,93-93,93s-93-41.6-93-93s41.6-93,93-93S285,45.8,285,97.1L285,97.1z"/>
				</g>
			</g>
		</g>
		<g>
			<g>
				<g>
					<defs>
						<rect id="SVGID_00000078034580625475614710000010375522448411991198_" y="4" width="384" height="376"/>
					</defs>
					<clipPath id="SVGID_00000091008774430145260710000009124668558779218612_">
						<use xlink:href="#SVGID_00000078034580625475614710000010375522448411991198_"  style="overflow:visible;"/>
					</clipPath>
					<path style="clip-path:url(#SVGID_00000091008774430145260710000009124668558779218612_);fill:#0867FF;" d="M285,95.6
						c0.5,32.9-16,62-41.4,78.9c-4.8,3.2-11.1-0.2-11.1-5.9c0-2.4,1.2-4.6,3.2-6c21.1-14.1,35-38.2,35-65.5
						c0-43.3-34.6-78.3-78-78.7c-30.3-0.3-56.7,16.5-70.1,41.3c-1.2,2.3-3.6,3.7-6.2,3.7c-5.4,0-8.8-5.8-6.3-10.5
						C126.3,23,158.5,3,195.2,4.2C244.5,5.9,284.2,46.3,285,95.6L285,95.6z"/>
				</g>
			</g>
		</g>
	</g>
	<path class="st2" d="M271.2,97.1c0,43.8-35.5,79.3-79.2,79.3s-79.3-35.5-79.3-79.3s35.5-79.3,79.3-79.3S271.2,53.4,271.2,97.1
		L271.2,97.1z"/>
	<path class="st1" d="M237,86.7v20.8c0,3.8-3.1,6.9-6.9,6.9h-20.8v20.8c0,3.8-3.1,6.9-6.9,6.9h-20.8c-3.8,0-6.9-3.1-6.9-6.9v-20.8
		h-20.8c-3.8,0-6.9-3.1-6.9-6.9V86.7c0-3.8,3.1-6.9,6.9-6.9h20.8V59c0-3.8,3.1-6.9,6.9-6.9h20.8c3.8,0,6.9,3.1,6.9,6.9v20.8h20.8
		C233.9,79.8,237,82.9,237,86.7L237,86.7z"/>
	<path class="st5" d="M319.7,328.3c-11.2,10.8-23.7,20.2-37.3,27.9c-2.8-1.1-4.9-3.8-4.9-7v-15c0-4.1,3.4-7.5,7.5-7.5h30
		C316.8,326.6,318.4,327.2,319.7,328.3L319.7,328.3z M97.5,326.6h-30c-1.4,0-2.7,0.4-3.8,1c11.1,10.9,23.7,20.3,37.3,28.1
		c2.4-1.3,4-3.8,4-6.7v-15C105,330,101.6,326.6,97.5,326.6L97.5,326.6z"/>
</g>
</svg>
