<?xml version="1.0" encoding="utf-8"?>
<!-- Generator: Adobe Illustrator 24.1.2, SVG Export Plug-In . SVG Version: 6.00 Build 0)  -->
<svg version="1.1" id="Layer_1" xmlns="http://www.w3.org/2000/svg" xmlns:xlink="http://www.w3.org/1999/xlink" x="0px" y="0px"
	 viewBox="0 0 384 376" style="enable-background:new 0 0 384 376;" xml:space="preserve">
<style type="text/css">
	.st0{fill:#1A2980;}
	.st1{fill:#D3D3D8;}
	.st2{fill:#ECECF1;}
	.st3{fill:#A6D2E3;}
	.st4{fill:#FF50B5;}
	.st5{fill:#FF94D2;}
	.st6{fill:#3D4EC6;}
	.st7{fill:#5766CE;}
	.st8{fill:#2B3894;}
	.st9{fill:#FFF5F5;}
	.st10{clip-path:url(#SVGID_2_);fill:#D12898;}
	.st11{clip-path:url(#SVGID_2_);fill:#FF50B5;}
	.st12{fill:#FF2EA6;}
</style>
<g>
	<path class="st0" d="M44.9,302.2C21.1,270.5,7.3,230.8,8.3,187.9C10.5,87.6,92.1,8.2,192.4,8.4c101.3,0.2,183.4,82.4,183.4,183.8
		c0,41.4-13.7,79.7-36.8,110.4c-0.7,0.9-2,0.9-2.7,0c-33.7-42.6-85.8-69.9-144.3-69.9c-58.3,0-110.3,27.2-144,69.6
		C47.2,303.2,45.6,303.2,44.9,302.2L44.9,302.2z M44.9,302.2"/>
	<path class="st1" d="M339,302.4c-33.5,44.6-86.9,73.5-147,73.5S78.5,347,45,302.4V168.9c0-6.2,5-11.3,11.2-11.3h271.5
		c6.2,0,11.3,5,11.3,11.3V302.4z M339,302.4"/>
	<path class="st2" d="M339,302.4c-33.5,44.6-86.9,73.5-147,73.5c-41,0-78.9-13.4-109.5-36.2V168.9c0-6.2,5-11.3,11.3-11.3h234
		c6.2,0,11.3,5,11.3,11.3V302.4z M339,302.4"/>
	<path class="st3" d="M300.8,90.1c-1,0-216.5,0-217.5,0c-3.1,0-5.6,2.5-5.6,5.6V152c0,3.1,2.5,5.6,5.6,5.6c3.1,0,5.6-2.5,5.6-5.6
		v-20.6h206.3V152c0,3.1,2.5,5.6,5.6,5.6c3.1,0,5.6-2.5,5.6-5.6V95.7C306.4,92.6,303.9,90.1,300.8,90.1L300.8,90.1z M88.9,120.1
		v-18.8h206.3v18.8H88.9z M88.9,120.1"/>
	<path class="st4" d="M139.5,161.4v26.3c0,12.4-10.1,22.5-22.5,22.5c-12.4,0-22.5-10.1-22.5-22.5v-26.3c0-2.1,1.7-3.8,3.8-3.8h37.5
		C137.8,157.6,139.5,159.3,139.5,161.4L139.5,161.4z M60.7,157.6H23.3c-2.1,0-3.8,1.7-3.8,3.8v26.3c0,12.4,10.1,22.5,22.5,22.5
		c12.4,0,22.5-10.1,22.5-22.5v-26.3C64.5,159.3,62.8,157.6,60.7,157.6L60.7,157.6z M285.8,157.6h-37.5c-2.1,0-3.8,1.7-3.8,3.8v26.3
		c0,12.4,10.1,22.5,22.5,22.5c12.4,0,22.5-10.1,22.5-22.5v-26.3C289.5,159.3,287.8,157.6,285.8,157.6L285.8,157.6z M210.7,157.6
		h-37.5c-2.1,0-3.8,1.7-3.8,3.8v26.3c0,12.4,10.1,22.5,22.5,22.5c12.4,0,22.5-10.1,22.5-22.5v-26.3
		C214.5,159.3,212.8,157.6,210.7,157.6L210.7,157.6z M360.8,157.6h-37.5c-2.1,0-3.8,1.7-3.8,3.8v26.3c0,12.4,10.1,22.5,22.5,22.5
		c12.4,0,22.5-10.1,22.5-22.5v-26.3C364.5,159.3,362.8,157.6,360.8,157.6L360.8,157.6z M360.8,157.6"/>
	<path class="st5" d="M102,161.4v26.3c0,12.4-10.1,22.5-22.5,22.5c-12.4,0-22.5-10.1-22.5-22.5v-26.3c0-2.1,1.7-3.8,3.8-3.8h37.5
		C100.3,157.6,102,159.3,102,161.4L102,161.4z M173.3,157.6h-37.5c-2.1,0-3.8,1.7-3.8,3.8v26.3c0,12.4,10.1,22.5,22.5,22.5
		c12.4,0,22.5-10.1,22.5-22.5v-26.3C177,159.3,175.3,157.6,173.3,157.6L173.3,157.6z M248.3,157.6h-37.5c-2.1,0-3.8,1.7-3.8,3.8
		v26.3c0,12.4,10.1,22.5,22.5,22.5c12.4,0,22.5-10.1,22.5-22.5v-26.3C252,159.3,250.3,157.6,248.3,157.6L248.3,157.6z M323.3,157.6
		h-37.5c-2.1,0-3.8,1.7-3.8,3.8v26.3c0,12.4,10.1,22.5,22.5,22.5c12.4,0,22.5-10.1,22.5-22.5v-26.3
		C327,159.3,325.3,157.6,323.3,157.6L323.3,157.6z M323.3,157.6"/>
	<path class="st1" d="M166.1,171H11.3C5,171,0,165.9,0,159.7c0-6.2,5-11.3,11.3-11.3h154.9c6.2,0,11.3,5,11.3,11.3
		C177.4,165.9,172.3,171,166.1,171L166.1,171z M166.1,171"/>
	<path class="st2" d="M372.8,171H101.2c-6.2,0-11.3-5-11.3-11.3c0-6.2,5-11.3,11.3-11.3h271.5c6.2,0,11.3,5,11.3,11.3
		C384,165.9,379,171,372.8,171L372.8,171z M372.8,171"/>
	<path class="st6" d="M127.5,240.1c0-4.1,3.4-7.5,7.5-7.5h114c4.1,0,7.5,3.4,7.5,7.5v124.1c-5.4,2-10.9,3.8-16.5,5.3
		c-1.5,0.4-2.8-2.6-4.4-2.2c-13.9,3.4-28.4,5.1-43.4,5.1c-2.1,0-4.5,3.3-6.6,3.3c-7-0.2-13.9-0.9-20.6-1.9c-1.8-0.3-2.6-4-4.4-4.3
		c-4.6-0.8-9.2-1.8-13.7-3c-1.2-0.3-3.2,2.8-4.4,2.5c-5.1-1.4-10.1-3.1-15-4.9V240.1z M312,232.6h-22.5c-2.1,0-3.8,1.7-3.8,3.8V336
		c0,2.1,1.7,3.8,3.8,3.8h4.3c7.8-5.2,15.1-10.9,22-17.2v-86.2C315.8,234.3,314.1,232.6,312,232.6L312,232.6z M94.5,232.6H72
		c-2.1,0-3.8,1.7-3.8,3.8v86.2c6.9,6.3,14.2,12,22,17.2h4.3c2.1,0,3.8-1.7,3.8-3.8v-99.7C98.2,234.3,96.6,232.6,94.5,232.6
		L94.5,232.6z M94.5,232.6"/>
	<path class="st7" d="M142.5,232.6H165v141.3c-7.7-1.1-15.2-2.7-22.5-4.8V232.6z M187.9,375.8c1.4,0,2.7,0,4.1,0
		c16.6,0,32.7-2.2,48-6.3V232.6h-52.1V375.8z M312,232.6h-12v93.1c2.5,1.9,15.8,0.9,15.8-1.1c0-24.9,0-88.2,0-88.2
		C315.8,234.3,314.1,232.6,312,232.6L312,232.6z M94.5,232.6h-12v101.7c2.5,1.9,5.1,3.7,7.7,5.4h4.3c2.1,0,3.8-1.7,3.8-3.8v-99.7
		C98.2,234.3,96.6,232.6,94.5,232.6L94.5,232.6z M94.5,232.6"/>
	<path class="st8" d="M196.9,232.6v143.2c-1.6,0-3.2,0.1-4.9,0.1c-2.1,0-4.3,0-6.4-0.1V232.6H196.9z M196.9,232.6"/>
	<path class="st9" d="M236.2,290.5h-22.5c-2.1,0-3.8-1.7-3.8-3.8v-7.5c0-2.1,1.7-3.8,3.8-3.8h22.5c2.1,0,3.8,1.7,3.8,3.8v7.5
		C240,288.8,238.3,290.5,236.2,290.5L236.2,290.5z M180,283c0-5.3-4.3-9.6-9.6-9.6c-5.3,0-9.6,4.3-9.6,9.6c0,5.3,4.3,9.6,9.6,9.6
		C175.7,292.6,180,288.3,180,283L180,283z M154.3,283c0-5.3-4.3-9.6-9.6-9.6c-5.3,0-9.6,4.3-9.6,9.6c0,5.3,4.3,9.6,9.6,9.6
		C150,292.6,154.3,288.3,154.3,283L154.3,283z M154.3,283"/>
	<g>
		<defs>
			<rect id="SVGID_1_" width="384" height="376"/>
		</defs>
		<clipPath id="SVGID_2_">
			<use xlink:href="#SVGID_1_"  style="overflow:visible;"/>
		</clipPath>
		<path class="st10" d="M285,93.1c0,51.4-41.6,93-93,93s-93-41.6-93-93s41.6-93,93-93S285,41.8,285,93.1L285,93.1z M285,93.1"/>
		<path class="st11" d="M285,91.6c0.5,32.9-16,62-41.4,78.9c-4.8,3.2-11.1-0.2-11.1-5.9c0-2.4,1.2-4.6,3.2-6
			c21.1-14.1,35-38.2,35-65.5c0-43.3-34.6-78.3-78-78.7c-30.3-0.3-56.7,16.5-70.1,41.3c-1.2,2.3-3.6,3.7-6.2,3.7
			c-5.4,0-8.8-5.8-6.3-10.5c16.2-29.9,48.4-49.9,85.1-48.7C244.5,1.9,284.2,42.3,285,91.6L285,91.6z M285,91.6"/>
	</g>
	<path class="st9" d="M271.2,93.1c0,43.8-35.5,79.3-79.2,79.3s-79.3-35.5-79.3-79.3s35.5-79.3,79.3-79.3S271.2,49.4,271.2,93.1
		L271.2,93.1z M271.2,93.1"/>
	<path class="st2" d="M264.6,125.1c-12.3,27.9-40.1,47.3-72.6,47.3c-43.8,0-79.3-35.5-79.3-79.3c0-32.4,19.5-60.3,47.3-72.6
		c-4.3,9.8-6.7,20.6-6.7,31.9c0,43.8,35.5,79.3,79.3,79.3C244,131.7,254.8,129.4,264.6,125.1L264.6,125.1z M264.6,125.1"/>
	<path class="st12" d="M237,82.7v20.8c0,3.8-3.1,6.9-6.9,6.9h-20.8v20.8c0,3.8-3.1,6.9-6.9,6.9h-20.8c-3.8,0-6.9-3.1-6.9-6.9v-20.8
		h-20.8c-3.8,0-6.9-3.1-6.9-6.9V82.7c0-3.8,3.1-6.9,6.9-6.9h20.8V55c0-3.8,3.1-6.9,6.9-6.9h20.8c3.8,0,6.9,3.1,6.9,6.9v20.8h20.8
		C233.9,75.8,237,78.9,237,82.7L237,82.7z M237,82.7"/>
	<path class="st4" d="M237,82.7v20.8c0,3.8-3.1,6.9-6.9,6.9h-20.8v20.8c0,3.8-3.1,6.9-6.9,6.9H192v-90h10.4c3.8,0,6.9,3.1,6.9,6.9
		v20.8h20.8C233.9,75.8,237,78.9,237,82.7L237,82.7z M237,82.7"/>
	<path class="st1" d="M319.7,324.3c-11.2,10.8-23.7,20.2-37.3,27.9c-2.8-1.1-4.9-3.8-4.9-7v-15c0-4.1,3.4-7.5,7.5-7.5h30
		C316.8,322.6,318.4,323.2,319.7,324.3L319.7,324.3z M97.5,322.6h-30c-1.4,0-2.7,0.4-3.8,1c11.1,10.9,23.7,20.3,37.3,28.1
		c2.4-1.3,4-3.8,4-6.7v-15C105,326,101.6,322.6,97.5,322.6L97.5,322.6z M97.5,322.6"/>
</g>
</svg>
