<?xml version="1.0" encoding="utf-8"?>
<!-- Generator: Adobe Illustrator 24.1.2, SVG Export Plug-In . SVG Version: 6.00 Build 0)  -->
<svg version="1.1" id="Layer_1" xmlns="http://www.w3.org/2000/svg" xmlns:xlink="http://www.w3.org/1999/xlink" x="0px" y="0px"
	 viewBox="0 0 384 376" style="enable-background:new 0 0 384 376;" xml:space="preserve">
<style type="text/css">
	.st0{fill:#5766CE;}
	.st1{fill:#1A2980;}
	.st2{clip-path:url(#SVGID_2_);fill:#FCF2B6;}
	.st3{clip-path:url(#SVGID_2_);fill:#ECECF1;}
	.st4{clip-path:url(#SVGID_2_);fill:#D3D3D8;}
	.st5{fill:#FFF5F5;}
	.st6{fill:#24D3B5;}
	.st7{fill:#126E66;}
	.st8{fill:#FF50B5;}
	.st9{fill:#FF2EA6;}
</style>
<g>
	<path class="st0" d="M384,188c0,103.7-84.1,187.8-187.8,187.8S8.4,291.7,8.4,188S92.5,0.2,196.2,0.2S384,84.3,384,188L384,188z
		 M384,188"/>
	<path class="st1" d="M375.3,244.7c-24,76-95.1,131.1-179.1,131.1c-83.9,0-155-55.1-179.1-131.1H375.3z M375.3,244.7"/>
	<g>
		<defs>
			<rect id="SVGID_1_" width="384" height="376"/>
		</defs>
		<clipPath id="SVGID_2_">
			<use xlink:href="#SVGID_1_"  style="overflow:visible;"/>
		</clipPath>
		<path class="st2" d="M335.6,270.2c1.7,1.6,2.4,4,1.6,6.2l0,0c-1.7,5.2-3.7,10.2-6,14.9c-4.2,8.6-15.8,10.3-22.2,3.2
			c-8.9-9.8-14.6-25-14.6-42.1c0-24.1,11.4-44.6,27.1-51.3c6-2.6,12.9,0.3,15.4,6.3c0.6,1.4,1.2,2.9,1.7,4.4c0.8,2.3,0,4.9-1.9,6.5
			c-4.4,3.5-7.2,8.9-7.2,14.9c0,3.2,0.8,6.2,2.2,8.9c0.9,1.6,0.9,3.6,0,5.2c-1.4,2.7-2.2,5.7-2.2,8.9
			C329.6,261.7,331.9,266.7,335.6,270.2L335.6,270.2z M335.6,270.2"/>
		<path class="st3" d="M242.3,161.3l-51.1,134.2c-4.3,11.3-18,15.7-28.1,9c-4.6-3-7.6-7.9-8.2-13.3L150,252c0,0-0.6-19.7-8.5-34.9
			c-7.2-13.8-26.8-13.9-33.7,0c-6.4,12.9-8.3,33.8-8.3,33.8l-5,40.2c-0.7,5.4-3.7,10.3-8.2,13.3c-10.1,6.7-23.7,2.3-28.1-9L7,161.3
			c-7.8-20.5-9.1-42.9-3.8-64.2l10.1-40.5C18.1,37.6,37.1,26,56.1,30.4l19,4.4c7.3,1.7,15,0.9,22-2c18-7.6,37.3-7.6,55.2,0
			c6.9,2.9,14.6,3.7,22,2l19-4.4c19-4.4,38,7.3,42.7,26.2l10.1,40.5C251.4,118.3,250.1,140.8,242.3,161.3L242.3,161.3z M242.3,161.3
			"/>
		<path class="st4" d="M185.5,303.3L185.5,303.3c-6.1,5-15.2,5.9-22.4,1.1c-4.6-3-7.6-7.9-8.2-13.3L150,252c0,0-0.6-19.7-8.5-34.9
			c-3.5-6.8-10.1-10.3-16.7-10.4c13.2-2.6,35.8,1.3,40.5,10.4c7.9,15.2,8.5,34.9,8.5,34.9l4.9,39.1
			C179.3,295.9,181.8,300.3,185.5,303.3L185.5,303.3z M37.9,161.3c-7.8-20.5-9.1-42.9-3.8-64.2l10.1-40.5
			C47,45.3,54.9,36.7,64.8,32.4l-8.7-2c-19-4.4-38,7.3-42.7,26.2L3.2,97.1c-5.3,21.3-4,43.7,3.8,64.2l51.1,134.2
			c4.3,11.3,18,15.7,28.1,9c2-1.3,3.7-3,5-4.9c-0.9-1.2-1.6-2.6-2.1-4.1L37.9,161.3z M37.9,161.3"/>
	</g>
	<path class="st5" d="M183.4,163.1c-10.9-9.8-0.2-25.5-4.3-55.3c-2.7-20-9.2-25.5-4.5-33.7c5.6-9.9,22.3-14.6,33.4-9.5
		c21.3,9.7,15.5,51.4,14.9,55.4c-3.1,20.6-15.2,47.3-29.6,47.3C188.1,167.3,184.3,164,183.4,163.1L183.4,163.1z M183.4,163.1"/>
	<path class="st6" d="M308.1,157.4c-0.9,0.5-1.7,0.9-2.6,1.3c-39,19.7-70.1-37.7-32.4-59.7c0.8-0.5,1.7-0.9,2.5-1.4
		c25.4-13.8,47-5,75.1-5.7c2.8-0.1,4.4,3.1,2.8,5.4C339.1,117.9,333.2,143.7,308.1,157.4L308.1,157.4z M308.1,157.4"/>
	<path class="st7" d="M300.1,124.7c-21.2,11.1-37.6,29.5-46.3,51.8c5.2,11.3,8,24.1,8,37.5c0,3.2-2.6,5.8-5.7,5.8
		c-3.2,0-5.7-2.6-5.7-5.8c0-34.9-21.5-63.2-47.9-63.2c-3.2,0-5.8-2.6-5.8-5.8s2.6-5.8,5.8-5.8c16.2,0,31.2,8,42.5,22.4
		c0.6,0.8,1.2,1.6,1.8,2.4c10.3-21.2,27.1-38.7,48.1-49.6c2.8-1.5,6.3-0.4,7.8,2.4C304.1,119.8,303,123.2,300.1,124.7L300.1,124.7z
		 M300.1,124.7"/>
	<path class="st8" d="M331.8,290.1c-15.5,32.9-43.8,52.4-68.3,45c-2.6-0.8-5-1.8-7.4-3.1c-1.5-0.9-3.4-0.9-5,0
		c-2.3,1.3-4.8,2.4-7.4,3.1c-28.4,8.6-61.8-19-74.6-61.5c-12.9-42.5-0.3-84,28.1-92.6c9.8-2.9,20.1-1.6,30,3.1c16.7,8,36.1,8,52.8,0
		c9.9-4.7,20.2-6.1,30-3.1c12.2,3.7,21.5,13.4,27.1,26.7c-7,2.8-12,9.7-12,17.8v0c0,2.3-1.4,4.4-3.6,5.3
		c-6.9,2.9-11.7,9.7-11.7,17.7c0,4.4,1.5,8.5,4,11.7c2.4,3.1,3.8,6.8,3.6,10.7c0,0.2,0,0.4,0,0.6C317.4,280.5,323.5,288,331.8,290.1
		L331.8,290.1z M331.8,290.1"/>
	<path class="st9" d="M250.1,332.6c-2,1-4.1,1.9-6.3,2.6c-28.4,8.6-61.8-19-74.6-61.5c-12.9-42.5-0.3-84,28.1-92.6
		c9.4-2.8,19.3-1.7,28.8,2.6c-23.9,12.4-33.6,50.7-21.8,90C212.9,302.1,230.8,323.9,250.1,332.6L250.1,332.6z M250.1,332.6"/>
</g>
</svg>
