<?xml version="1.0" encoding="utf-8"?>
<!-- Generator: Adobe Illustrator 28.3.0, SVG Export Plug-In . SVG Version: 6.00 Build 0)  -->
<svg version="1.1" id="Layer_1" xmlns="http://www.w3.org/2000/svg" xmlns:xlink="http://www.w3.org/1999/xlink" x="0px" y="0px"
	 viewBox="0 0 384 375.9" style="enable-background:new 0 0 384 375.9;" xml:space="preserve">
<style type="text/css">
	.st0{display:none;fill:#0867FF;}
	.st1{fill:#0867FF;}
	.st2{fill:#FFFFFF;}
	.st3{clip-path:url(#SVGID_00000182525378105910241960000012327338129155797650_);fill:#0867FF;}
	.st4{clip-path:url(#SVGID_00000145750914809619594050000007023129419029407108_);fill:#0867FF;}
	.st5{display:none;fill:#FFFFFF;}
</style>
<g>
	<path class="st0" d="M44.9,302.2C21.1,270.5,7.3,230.8,8.3,187.9C10.5,87.6,92.1,8.2,192.4,8.4c101.3,0.2,183.4,82.4,183.4,183.8
		c0,41.4-13.7,79.7-36.8,110.4c-0.7,0.9-2,0.9-2.7,0c-33.7-42.6-85.8-69.9-144.3-69.9c-58.3,0-110.3,27.2-144,69.6
		C47.2,303.2,45.6,303.2,44.9,302.2L44.9,302.2z"/>
	<path class="st1" d="M339,302.4c-33.5,44.6-86.9,73.5-147,73.5S78.5,347,45,302.4V168.9c0-6.2,5-11.3,11.2-11.3h271.5
		c6.2,0,11.3,5,11.3,11.3V302.4z"/>
	<path class="st1" d="M339,364.6c0,6.3-5.1,11.3-11.3,11.3H56.2c-6.2,0-11.2-5.1-11.2-11.3V231.1c33.5-44.6,86.9-73.5,147-73.5
		s113.5,28.9,147,73.5V364.6z"/>
	<path class="st1" d="M300.8,90.1c-1,0-216.5,0-217.5,0c-3.1,0-5.6,2.5-5.6,5.6V152c0,3.1,2.5,5.6,5.6,5.6s5.6-2.5,5.6-5.6v-20.6
		h206.3V152c0,3.1,2.5,5.6,5.6,5.6s5.6-2.5,5.6-5.6V95.7C306.4,92.6,303.9,90.1,300.8,90.1L300.8,90.1z M88.9,120.1v-18.8h206.3
		v18.8C295.2,120.1,88.9,120.1,88.9,120.1z"/>
	<path class="st1" d="M139.5,161.4v26.3c0,12.4-10.1,22.5-22.5,22.5s-22.5-10.1-22.5-22.5v-26.3c0-2.1,1.7-3.8,3.8-3.8h37.5
		C137.8,157.6,139.5,159.3,139.5,161.4L139.5,161.4z M60.7,157.6H23.3c-2.1,0-3.8,1.7-3.8,3.8v26.3c0,12.4,10.1,22.5,22.5,22.5
		s22.5-10.1,22.5-22.5v-26.3C64.5,159.3,62.8,157.6,60.7,157.6L60.7,157.6z M285.8,157.6h-37.5c-2.1,0-3.8,1.7-3.8,3.8v26.3
		c0,12.4,10.1,22.5,22.5,22.5c12.4,0,22.5-10.1,22.5-22.5v-26.3C289.5,159.3,287.8,157.6,285.8,157.6L285.8,157.6z M210.7,157.6
		h-37.5c-2.1,0-3.8,1.7-3.8,3.8v26.3c0,12.4,10.1,22.5,22.5,22.5s22.5-10.1,22.5-22.5v-26.3C214.5,159.3,212.8,157.6,210.7,157.6
		L210.7,157.6z M360.8,157.6h-37.5c-2.1,0-3.8,1.7-3.8,3.8v26.3c0,12.4,10.1,22.5,22.5,22.5s22.5-10.1,22.5-22.5v-26.3
		C364.5,159.3,362.8,157.6,360.8,157.6L360.8,157.6z"/>
	<path class="st2" d="M102,161.4v26.3c0,12.4-10.1,22.5-22.5,22.5S57,200.1,57,187.7v-26.3c0-2.1,1.7-3.8,3.8-3.8h37.5
		C100.3,157.6,102,159.3,102,161.4L102,161.4z M173.3,157.6h-37.5c-2.1,0-3.8,1.7-3.8,3.8v26.3c0,12.4,10.1,22.5,22.5,22.5
		s22.5-10.1,22.5-22.5v-26.3C177,159.3,175.3,157.6,173.3,157.6L173.3,157.6z M248.3,157.6h-37.5c-2.1,0-3.8,1.7-3.8,3.8v26.3
		c0,12.4,10.1,22.5,22.5,22.5s22.5-10.1,22.5-22.5v-26.3C252,159.3,250.3,157.6,248.3,157.6L248.3,157.6z M323.3,157.6h-37.5
		c-2.1,0-3.8,1.7-3.8,3.8v26.3c0,12.4,10.1,22.5,22.5,22.5s22.5-10.1,22.5-22.5v-26.3C327,159.3,325.3,157.6,323.3,157.6
		L323.3,157.6z"/>
	<path class="st1" d="M166.1,171H11.3C5,171,0,165.9,0,159.7s5-11.3,11.3-11.3h154.9c6.2,0,11.3,5,11.3,11.3
		C177.4,165.9,172.3,171,166.1,171L166.1,171z"/>
	<path class="st1" d="M372.8,171H101.2c-6.2,0-11.3-5-11.3-11.3c0-6.2,5-11.3,11.3-11.3h271.5c6.2,0,11.3,5,11.3,11.3
		C384,165.9,379,171,372.8,171L372.8,171z"/>
	<path class="st2" d="M127.5,240.1c0-4.1,3.4-7.5,7.5-7.5h114c4.1,0,7.5,3.4,7.5,7.5v124.1c-5.4,2-10.9,3.8-16.5,5.3
		c-1.5,0.4-2.8-2.6-4.4-2.2c-13.9,3.4-28.4,5.1-43.4,5.1c-2.1,0-4.5,3.3-6.6,3.3c-7-0.2-13.9-0.9-20.6-1.9c-1.8-0.3-2.6-4-4.4-4.3
		c-4.6-0.8-9.2-1.8-13.7-3c-1.2-0.3-3.2,2.8-4.4,2.5c-5.1-1.4-10.1-3.1-15-4.9L127.5,240.1L127.5,240.1z M312,232.6h-22.5
		c-2.1,0-3.8,1.7-3.8,3.8V336c0,2.1,1.7,3.8,3.8,3.8h4.3c7.8-5.2,15.1-10.9,22-17.2v-86.2C315.8,234.3,314.1,232.6,312,232.6
		L312,232.6z M94.5,232.6H72c-2.1,0-3.8,1.7-3.8,3.8v86.2c6.9,6.3,14.2,12,22,17.2h4.3c2.1,0,3.8-1.7,3.8-3.8v-99.7
		C98.2,234.3,96.6,232.6,94.5,232.6L94.5,232.6z"/>
	<path class="st2" d="M127.5,368.2v-124c4.9-1.8,9.9-3.5,15-4.9c1.2-0.3,3.2,2.8,4.4,2.5c4.5-1.2,9.1-2.2,13.7-3
		c1.8-0.3,2.6-4,4.4-4.3c6.7-1,13.6-1.7,20.6-1.9c2.1,0,4.5,3.3,6.6,3.3c15,0,29.5,1.7,43.4,5.1c1.6,0.4,2.9-2.6,4.4-2.2
		c5.6,1.5,11.1,3.3,16.5,5.3v124.1c0,4.1-3.4,7.5-7.5,7.5H135C130.9,375.7,127.5,372.3,127.5,368.2L127.5,368.2z M312,375.7
		c2.1,0,3.8-1.7,3.8-3.8v-86.2c-6.9-6.3-14.2-12-22-17.2h-4.3c-2.1,0-3.8,1.7-3.8,3.8v99.6c0,2.1,1.7,3.8,3.8,3.8L312,375.7
		L312,375.7z M94.5,375.7c2.1,0,3.7-1.7,3.8-3.7v-99.7c0-2.1-1.7-3.8-3.8-3.8h-4.3c-7.8,5.2-15.1,10.9-22,17.2v86.2
		c0,2.1,1.7,3.8,3.8,3.8H94.5L94.5,375.7z"/>
	<path class="st1" d="M196.9,232.6v143.2c-1.6,0-3.2,0.1-4.9,0.1c-2.1,0-4.3,0-6.4-0.1V232.6H196.9z"/>
	<path class="st1" d="M236.2,290.5h-22.5c-2.1,0-3.8-1.7-3.8-3.8v-7.5c0-2.1,1.7-3.8,3.8-3.8h22.5c2.1,0,3.8,1.7,3.8,3.8v7.5
		C240,288.8,238.3,290.5,236.2,290.5L236.2,290.5z M180,283c0-5.3-4.3-9.6-9.6-9.6s-9.6,4.3-9.6,9.6c0,5.3,4.3,9.6,9.6,9.6
		S180,288.3,180,283L180,283z M154.3,283c0-5.3-4.3-9.6-9.6-9.6s-9.6,4.3-9.6,9.6c0,5.3,4.3,9.6,9.6,9.6S154.3,288.3,154.3,283
		L154.3,283z"/>
	<g>
		<g>
			<g>
				<defs>
					<rect id="SVGID_1_" y="0" width="384" height="376"/>
				</defs>
				<clipPath id="SVGID_00000022547529267775341380000014495455134387402159_">
					<use xlink:href="#SVGID_1_"  style="overflow:visible;"/>
				</clipPath>
				<path style="clip-path:url(#SVGID_00000022547529267775341380000014495455134387402159_);fill:#0867FF;" d="M285,93.1
					c0,51.4-41.6,93-93,93s-93-41.6-93-93s41.6-93,93-93S285,41.8,285,93.1L285,93.1z"/>
			</g>
		</g>
		<g>
			<g>
				<defs>
					<rect id="SVGID_00000098209442287736927240000002477507292188948867_" y="0" width="384" height="376"/>
				</defs>
				<clipPath id="SVGID_00000069389165745180738550000015278169374086279559_">
					<use xlink:href="#SVGID_00000098209442287736927240000002477507292188948867_"  style="overflow:visible;"/>
				</clipPath>
				<path style="clip-path:url(#SVGID_00000069389165745180738550000015278169374086279559_);fill:#0867FF;" d="M285,91.6
					c0.5,32.9-16,62-41.4,78.9c-4.8,3.2-11.1-0.2-11.1-5.9c0-2.4,1.2-4.6,3.2-6c21.1-14.1,35-38.2,35-65.5c0-43.3-34.6-78.3-78-78.7
					c-30.3-0.3-56.7,16.5-70.1,41.3c-1.2,2.3-3.6,3.7-6.2,3.7c-5.4,0-8.8-5.8-6.3-10.5C126.3,19,158.5-1,195.2,0.2
					C244.5,1.9,284.2,42.3,285,91.6L285,91.6z"/>
			</g>
		</g>
	</g>
	<path class="st2" d="M271.2,93.1c0,43.8-35.5,79.3-79.2,79.3s-79.3-35.5-79.3-79.3s35.5-79.3,79.3-79.3S271.2,49.4,271.2,93.1
		L271.2,93.1z"/>
	<path class="st1" d="M237,82.7v20.8c0,3.8-3.1,6.9-6.9,6.9h-20.8v20.8c0,3.8-3.1,6.9-6.9,6.9h-20.8c-3.8,0-6.9-3.1-6.9-6.9v-20.8
		h-20.8c-3.8,0-6.9-3.1-6.9-6.9V82.7c0-3.8,3.1-6.9,6.9-6.9h20.8V55c0-3.8,3.1-6.9,6.9-6.9h20.8c3.8,0,6.9,3.1,6.9,6.9v20.8h20.8
		C233.9,75.8,237,78.9,237,82.7L237,82.7z"/>
	<path class="st5" d="M319.7,324.3c-11.2,10.8-23.7,20.2-37.3,27.9c-2.8-1.1-4.9-3.8-4.9-7v-15c0-4.1,3.4-7.5,7.5-7.5h30
		C316.8,322.6,318.4,323.2,319.7,324.3L319.7,324.3z M97.5,322.6h-30c-1.4,0-2.7,0.4-3.8,1c11.1,10.9,23.7,20.3,37.3,28.1
		c2.4-1.3,4-3.8,4-6.7v-15C105,326,101.6,322.6,97.5,322.6L97.5,322.6z"/>
</g>
</svg>
