<?xml version="1.0" encoding="utf-8"?>
<!-- Generator: Adobe Illustrator 28.3.0, SVG Export Plug-In . SVG Version: 6.00 Build 0)  -->
<svg version="1.1" id="Layer_1" xmlns="http://www.w3.org/2000/svg" xmlns:xlink="http://www.w3.org/1999/xlink" x="0px" y="0px"
	 viewBox="0 0 383.6 375.9" style="enable-background:new 0 0 383.6 375.9;" xml:space="preserve">
<style type="text/css">
	.st0{display:none;fill:#1A2980;}
	.st1{display:none;fill:#199A8E;}
	.st2{display:none;fill:#168C80;}
	.st3{fill:#1A2980;}
	.st4{display:none;fill:#D3D3D8;}
	.st5{fill:#FFFFFF;}
	.st6{display:none;fill:#20B7A1;}
	.st7{fill:#1A2980;stroke:#FFFFFF;stroke-width:9;stroke-miterlimit:10;}
	.st8{display:none;fill:#B9B9BE;}
	.st9{clip-path:url(#SVGID_00000181791223096796634310000017677205260825912706_);fill:#FFFFFF;}
	
		.st10{clip-path:url(#SVGID_00000064342820771909342910000014625475288301995940_);fill:#1A2980;stroke:#FFFFFF;stroke-width:9;stroke-miterlimit:10;}
	.st11{display:none;}
	.st12{display:inline;}
	.st13{display:inline;clip-path:url(#SVGID_00000005260621754147062550000009102971760716966793_);fill:#24D3B5;}
</style>
<g>
	<path class="st0" d="M362.4,188c0,103.7-84.1,187.8-187.8,187.8S-13.2,291.7-13.2,188S70.9,0.2,174.6,0.2S362.4,84.3,362.4,188
		L362.4,188z"/>
	<path class="st1" d="M369.7,186.7L42.2,274.4l-27-100.7L342.7,86L369.7,186.7z"/>
	<path class="st2" d="M84.7,263l-42.5,11.4l-27-100.7l41.6-11.2L84.7,263z"/>
	<path class="st3" d="M118.5,190.7c0.1,5.9-4.5,10.8-10.4,11l-5.9,0.2c-2.3,0.1-26.9,6.7-28.9,7.8l-5.2,2.8
		c-5.2,2.8-11.7,0.9-14.5-4.3l-6.1-11c-3.2-5.8-4.6-12.4-3.9-19l20-33.4l14.7-4.3l34,19.3c3.9,5.4,6,11.8,6.1,18.4L118.5,190.7z
		 M329.7,132.5l-0.2-12.6c-0.1-6.6-2.3-13.1-6.1-18.4l-34-19.3l-14.7,4.3l-20,33.4c0,0.4-0.1,0.7-0.1,1.1l-33.3-18.9l-14.7,4.3
		l-20,33.4c-0.1,0.8-0.1,1.6-0.2,2.4c-0.4-0.7-0.9-1.3-1.3-2l-34-19.3l-14.7,4.3l-20,33.4c-0.7,6.6,0.7,13.2,3.9,19l6.1,11
		c2.9,5.1,9.3,7.1,14.5,4.3l5.2-2.8c2-1.1,26.7-7.7,28.9-7.8l5.9-0.2c5.9-0.2,10.5-5.1,10.4-11l-0.2-11l5.4,9.6
		c2.9,5.1,9.3,7.1,14.5,4.3l5.2-2.8c2-1.1,26.7-7.7,28.9-7.8l5.9-0.2c5.9-0.2,10.5-5.1,10.4-11l-0.1-8.3l3.2,5.8
		c2.9,5.1,9.3,7.1,14.5,4.3l5.2-2.8c2-1.1,26.7-7.7,28.9-7.8l5.9-0.2C325.2,143.3,329.8,138.4,329.7,132.5L329.7,132.5z"/>
	<path class="st4" d="M56.9,135.4c-3.5-1.2-13.3,42.7-13.3,42.7c-0.7,6.6,0.7,13.2,3.9,19l6.1,11c2.9,5.1,9.3,7.1,14.5,4.3l2.4-1.3
		c-3.2-0.5-17.1-18.3-11.2-38.4C59.3,172.8,76.9,133.2,56.9,135.4L56.9,135.4z M129.9,115.9c-3.5-1.2-13.3,42.7-13.3,42.7
		c-0.7,6.6,0.7,13.2,3.9,19l6.1,11c2.9,5.1,9.3,7.1,14.5,4.3l2.4-1.3c-3.2-0.5-17.1-18.3-11.2-38.4
		C132.3,153.2,149.9,113.6,129.9,115.9L129.9,115.9z M200,97.1c-3.5-1.2-13.3,42.7-13.3,42.7c-0.7,6.6,0.7,13.2,3.9,19l6.1,11
		c2.9,5.1,9.3,7.1,14.5,4.3l2.4-1.3c-3.2-0.5-17.1-18.3-11.2-38.4C202.4,134.4,220,94.9,200,97.1L200,97.1z M268,77.2
		c-3.5-1.2-13.3,42.7-13.3,42.7c-0.7,6.6,0.7,13.2,3.9,19l6.1,11c2.9,5.1,9.3,7.1,14.5,4.3l2.4-1.3c-3.2-0.5-17.1-18.3-11.2-38.4
		C270.4,114.6,288.1,75,268,77.2L268,77.2z"/>
	<path class="st5" d="M92.4,164.2c4.2-1.1,9.8,5.7,12.3,11.5c0.5,1.1,5.4,12.9,0,17.3c-2.8,2.3-8.1,2.3-10.5-0.2
		c-2-2-0.5-4.2-1.3-10.2c-1.1-9-5.5-12.8-3.1-16.5C90.1,165.8,90.9,164.6,92.4,164.2L92.4,164.2z M165.4,144.6
		c4.2-1.1,9.8,5.7,12.3,11.5c0.5,1.1,5.4,12.8,0,17.3c-2.9,2.3-8.1,2.3-10.5-0.2c-2-2-0.5-4.2-1.3-10.2c-1.1-9-5.5-12.8-3.1-16.5
		C163.1,146.3,164,145,165.4,144.6L165.4,144.6z M235.5,125.8c4.2-1.1,9.8,5.7,12.3,11.5c0.5,1.1,5.4,12.9,0,17.3
		c-2.8,2.3-8.1,2.3-10.5-0.2c-2-2-0.5-4.2-1.3-10.2c-1.1-9-5.5-12.8-3.1-16.5C233.2,127.5,234.1,126.2,235.5,125.8L235.5,125.8z
		 M303.6,106c4.2-1.1,9.8,5.7,12.3,11.5c0.5,1.1,5.4,12.9,0,17.3c-2.8,2.3-8.1,2.3-10.5-0.2c-2-2-0.5-4.2-1.3-10.2
		c-1.1-9-5.5-12.8-3.1-16.5C301.2,107.6,302.1,106.4,303.6,106L303.6,106z"/>
	<path class="st6" d="M342.7,85.9c-9.1,7.2-13.6,19.4-10.4,31.3l1.1,3.4c0.7,2.1-0.6,4.4-2.8,5c-2.1,0.6-4.2-0.6-4.8-2.6l-1.1-3.7
		c-4.3-16-20.8-25.5-36.8-21.2l-5.5,1.5c-4,1.1-7.6,2.9-10.6,5.3v0.1c-9.1,7.2-13.6,19.4-10.4,31.3l1,3.1c0.7,2.2-0.6,4.6-2.8,5.2
		c-2.1,0.6-4.3-0.6-4.9-2.7l-1.1-3.5c-4.3-16-20.8-25.5-36.8-21.2l-5.3,1.4c-16,4.3-25.5,20.8-21.2,36.8c0,0,0.4,1.6,0.9,3.3
		c0.6,2.2-0.7,4.4-2.9,5h-0.1c-2.1,0.6-4.3-0.7-4.9-2.8l-0.9-3.5c-4.3-16-20.8-25.5-36.8-21.2l-5.3,1.4c-16,4.3-25.5,20.8-21.2,36.8
		c0,0,0.4,1.7,0.8,3.5c0.5,2.2-0.8,4.3-3,4.9h-0.1c-2.2,0.6-4.5-0.8-5-3l-0.7-3.3c-4.3-16-20.8-25.5-36.8-21.2l-5.3,1.4
		c-16,4.3-25.5,20.8-21.2,36.8c0,0,0.4,1.1,0.9,2.4c0.8,2.2-0.5,4.7-2.8,5.3h-0.1c-2,0.5-4.1-0.6-4.8-2.5l-1.1-3.1
		c-3.2-11.9-13.2-20.3-24.7-21.9c-4-28,2.9-55.5,15.1-79.5l213.2-52.1l46.4-17.4C312.5,39.4,332.2,59.7,342.7,85.9L342.7,85.9z"/>
	<path class="st7" d="M342.7,85.9c-9.1,7.2-13.6,19.4-10.4,31.3l1.1,3.4c0.7,2.1-0.6,4.4-2.8,5c-2.1,0.6-4.2-0.6-4.8-2.6l-1.1-3.7
		c-4.3-16-20.8-25.5-36.8-21.2l-5.5,1.5c-4,1.1-7.6,2.9-10.6,5.3v0.1c-9.1,7.2-13.6,19.4-10.4,31.3l1,3.1c0.7,2.2-0.6,4.6-2.8,5.2
		c-2.1,0.6-4.3-0.6-4.9-2.7l-1.1-3.5c-4.3-16-20.8-25.5-36.8-21.2l-5.3,1.4c-16,4.3-25.5,20.8-21.2,36.8c0,0,0.4,1.6,0.9,3.3
		c0.6,2.2-0.7,4.4-2.9,5h-0.1c-2.1,0.6-4.3-0.7-4.9-2.8l-0.9-3.5c-4.3-16-20.8-25.5-36.8-21.2l-5.3,1.4c-16,4.3-25.5,20.8-21.2,36.8
		c0,0,0.4,1.7,0.8,3.5c0.5,2.2-0.8,4.3-3,4.9h-0.1c-2.2,0.6-4.5-0.8-5-3l-0.7-3.3c-4.3-16-20.8-25.5-36.8-21.2l-5.3,1.4
		c-16,4.3-25.5,20.8-21.2,36.8c0,0,0.4,1.1,0.9,2.4c0.8,2.2-0.5,4.7-2.8,5.3h-0.1c-2,0.5-4.1-0.6-4.8-2.5l-1.1-3.1
		c-3.2-11.9-13.2-20.3-24.7-21.9c-4-28,2.9-55.5,15.1-79.5l213.2-52.1l45.7-18C311.7,38.8,332.2,59.7,342.7,85.9L342.7,85.9z"/>
	<path class="st3" d="M345.1,181.5l-4.4,43.1c-0.4,3.6-36.7,13.4-38.8,10.4l-25.4-35.1c-0.9-1.2-1.6-2.5-2.3-3.8
		c0.1,1.7,0,3.3-0.1,5l-4.4,43.1c-0.4,3.6-36.7,13.4-38.8,10.4l-25.4-35.1c-0.9-1.2-1.7-2.5-2.3-3.8c0.1,1.7,0,3.3-0.1,5l-4.4,43.1
		c-0.4,3.6-36.7,13.4-38.8,10.4l-25.4-35.1c-0.9-1.2-1.6-2.5-2.3-3.8c0.1,1.7,0,3.3-0.1,5l-4.4,43.1c-0.4,3.6-36.7,13.4-38.8,10.4
		l-25.4-35.1c-3.9-5.4-6-11.8-6.1-18.4l-0.2-12.6c-0.1-5.9,4.5-10.8,10.4-11l5.9-0.2c2.3-0.1,4.5-0.9,6.3-2.3
		c4.6-3.6,10.3-5.1,16.1-4.3c2.3,0.3,4.6-0.1,6.6-1.1l5.2-2.8c5.2-2.8,11.7-0.9,14.5,4.3l6.1,11c0.1,0.2,0.2,0.3,0.3,0.5
		c0-0.4,0-0.8,0-1.1l-0.2-12.6c-0.1-5.9,4.5-10.8,10.4-11l5.9-0.2c2.3-0.1,4.5-0.9,6.3-2.3c4.6-3.6,10.3-5.1,16.1-4.3
		c2.3,0.3,4.6-0.1,6.6-1.1l5.2-2.8c5.2-2.8,11.7-0.9,14.5,4.3l6.1,11c0.1,0.2,0.2,0.3,0.3,0.5c0-0.4,0-0.8,0-1.1l-0.2-12.6
		c-0.1-5.9,4.5-10.8,10.4-11l5.9-0.2c2.3-0.1,4.5-0.9,6.3-2.3c4.6-3.6,10.3-5.1,16.1-4.3c2.3,0.3,4.6-0.1,6.6-1.1l5.2-2.8
		c5.2-2.8,11.7-0.9,14.5,4.3l6.1,11c0.1,0.2,0.2,0.3,0.3,0.5c0-0.4,0-0.8,0-1.1l-0.2-12.6c-0.1-5.9,4.5-10.8,10.4-11l5.9-0.2
		c2.3-0.1,4.5-0.9,6.3-2.3c4.6-3.6,10.3-5.1,16.1-4.3c2.3,0.3,4.6-0.1,6.6-1.1l5.2-2.8c5.2-2.8,11.7-0.9,14.5,4.3l6.1,11
		C344.5,168.3,345.8,174.9,345.1,181.5L345.1,181.5z"/>
	<path class="st8" d="M157.5,245.9c0,0,10.2,23,9.8,23.5c0,0-5.3,7.8-7.5,4.8l-25.4-35.1c-3.9-5.4-6-11.8-6.1-18.4l-0.2-12.6
		c-0.1-5.9,4.5-10.8,10.4-11l2.7-0.1C136.9,211.8,153.6,240.5,157.5,245.9L157.5,245.9z M70.1,216.6l-2.7,0.1
		c-5.9,0.2-10.5,5.1-10.4,11l0.2,12.6c0.1,6.6,2.3,13.1,6.1,18.4l25.4,35.1c2.1,3,7.5-4.9,7.5-4.9c0.5-0.5-9.8-23.5-9.8-23.5
		C82.5,260.1,65.8,231.4,70.1,216.6L70.1,216.6z M212.2,177.4l-2.7,0.1c-5.9,0.2-10.5,5.1-10.4,11l0.2,12.6
		c0.1,6.6,2.3,13.1,6.1,18.4l25.4,35.1c2.1,3,7.5-4.9,7.5-4.9c0.5-0.5-9.8-23.5-9.8-23.5C224.7,220.9,208,192.2,212.2,177.4
		L212.2,177.4z M299.6,206.6c-3.9-5.4-20.6-34-16.3-48.9l-2.7,0.1c-5.9,0.2-10.5,5.1-10.4,11l0.2,12.6c0.1,6.6,2.3,13.1,6.1,18.4
		l25.4,35.1c2.1,3,7.5-4.9,7.5-4.9C309.9,229.6,299.6,206.6,299.6,206.6L299.6,206.6z"/>
	<g>
		<g>
			<defs>
				<rect id="SVGID_1_" x="-13.2" y="0" width="384" height="376"/>
			</defs>
			<clipPath id="SVGID_00000106866756822102205630000001794984801095328397_">
				<use xlink:href="#SVGID_1_"  style="overflow:visible;"/>
			</clipPath>
			<path style="clip-path:url(#SVGID_00000106866756822102205630000001794984801095328397_);fill:#FFFFFF;" d="M252,208.1
				c-3.9-2-2.1-7.4-5.6-15.8c-2.4-5.6-4.7-6.7-4-9.5c0.9-3.3,5.4-6,9-5.4c7,1.2,8.5,13.8,8.7,15c0.7,6.2-0.7,15-4.9,16.1
				C253.8,209,252.4,208.3,252,208.1L252,208.1z M323.1,188.5c-3.9-2-2.1-7.4-5.6-15.8c-2.3-5.6-4.7-6.7-4-9.5c0.8-3.3,5.4-6,9-5.4
				c7,1.2,8.5,13.8,8.7,15c0.7,6.2-0.7,15-4.9,16.1C324.8,189.4,323.5,188.7,323.1,188.5L323.1,188.5z M109.9,247.4
				c-3.9-2-2.1-7.4-5.6-15.8c-2.4-5.6-4.7-6.7-4-9.5c0.8-3.3,5.4-6,9-5.4c7,1.2,8.5,13.8,8.7,15c0.7,6.2-0.7,15-4.9,16.1
				C111.6,248.2,110.2,247.5,109.9,247.4L109.9,247.4z M181,227.8c-3.9-2-2.1-7.4-5.6-15.8c-2.3-5.6-4.7-6.7-4-9.5
				c0.8-3.3,5.4-6,9-5.4c7,1.2,8.5,13.8,8.7,15c0.7,6.2-0.7,15-4.9,16.1C182.7,228.6,181.3,227.9,181,227.8L181,227.8z"/>
		</g>
		<g>
			<defs>
				<rect id="SVGID_00000079450634491033088260000010816239921331085498_" x="-13.2" y="0" width="384" height="376"/>
			</defs>
			<clipPath id="SVGID_00000107555919391617702520000001869225973301777586_">
				<use xlink:href="#SVGID_00000079450634491033088260000010816239921331085498_"  style="overflow:visible;"/>
			</clipPath>
			
				<path style="clip-path:url(#SVGID_00000107555919391617702520000001869225973301777586_);fill:#1A2980;stroke:#FFFFFF;stroke-width:9;stroke-miterlimit:10;" d="
				M354.5,262.1l-48.8,12.1L93.3,332.4c-22.5-14.6-40.6-31.7-51.1-58c9.1-7.2,13.6-19.4,10.4-31.3l-1.3-4.2
				c-0.7-2.2,0.6-4.5,2.8-5.1h0.1c2.2-0.6,4.4,0.7,5,2.8c0.6,2.2,1.3,4.4,1.3,4.4c4.3,16,20.8,25.5,36.8,21.2l5.3-1.4
				c16-4.3,25.5-20.8,21.2-36.8l-1.7-5.2c-0.7-2.2,0.5-4.5,2.8-5.1h0.1c2.1-0.6,4.3,0.6,5,2.7c0.8,2.6,1.8,5.5,1.8,5.5
				c4.3,16,20.8,25.5,36.8,21.2l5.3-1.4c16-4.3,25.5-20.8,21.2-36.8l-1-4.3c-0.5-2.1,0.8-4.2,2.8-4.8h0.1c2.2-0.6,4.5,0.8,5.1,3
				c0.5,2,0.9,4,0.9,4c4.3,16,20.8,25.5,36.8,21.2l5.3-1.4c16-4.3,25.5-20.8,21.2-36.8l-1.4-4.8c-0.6-2.2,0.7-4.5,2.9-5.1
				c2.2-0.6,4.4,0.7,5,2.8l1.4,5c3.2,11.9,13.2,20.3,24.7,21.9v0.1c3.9,0.5,7.9,0.3,11.9-0.8l5.5-1.5c16-4.3,25.5-20.8,21.2-36.8
				l-1.6-5.5c-0.6-2.1,0.6-4.3,2.8-4.9c2.1-0.6,4.2,0.7,4.8,2.7l1.6,5.6c3.2,11.9,13.2,20.3,24.7,21.9
				C373.7,214.6,366.7,238.1,354.5,262.1L354.5,262.1z"/>
		</g>
		<g class="st11">
			<defs>
				<rect id="SVGID_00000151515637956340422720000016723208201701344189_" x="-13.2" y="0" width="384" height="376"/>
			</defs>
			<clipPath id="SVGID_00000096058183934482243750000006643615190530289545_" class="st12">
				<use xlink:href="#SVGID_00000151515637956340422720000016723208201701344189_"  style="overflow:visible;"/>
			</clipPath>
			<path style="display:inline;clip-path:url(#SVGID_00000096058183934482243750000006643615190530289545_);fill:#24D3B5;" d="
				M354.5,262.1l-48.8,12.1L93.3,332.4c-22.5-14.6-40.6-31.7-51.1-58c9.1-7.2,13.6-19.4,10.4-31.3l-1.3-4.2
				c-0.7-2.2,0.6-4.5,2.8-5.1h0.1c2.2-0.6,4.4,0.7,5,2.8c0.6,2.2,1.3,4.4,1.3,4.4c4.3,16,20.8,25.5,36.8,21.2l5.3-1.4
				c16-4.3,25.5-20.8,21.2-36.8l-1.7-5.2c-0.7-2.2,0.5-4.5,2.8-5.1h0.1c2.1-0.6,4.3,0.6,5,2.7c0.8,2.6,1.8,5.5,1.8,5.5
				c4.3,16,20.8,25.5,36.8,21.2l5.3-1.4c16-4.3,25.5-20.8,21.2-36.8l-1-4.3c-0.5-2.1,0.8-4.2,2.8-4.8h0.1c2.2-0.6,4.5,0.8,5.1,3
				c0.5,2,0.9,4,0.9,4c4.3,16,20.8,25.5,36.8,21.2l5.3-1.4c16-4.3,25.5-20.8,21.2-36.8l-1.4-4.8c-0.6-2.2,0.7-4.5,2.9-5.1
				c2.2-0.6,4.4,0.7,5,2.8l1.4,5c3.2,11.9,13.2,20.3,24.7,21.9v0.1c3.9,0.5,7.9,0.3,11.9-0.8l5.5-1.5c16-4.3,25.5-20.8,21.2-36.8
				l-1.6-5.5c-0.6-2.1,0.6-4.3,2.8-4.9c2.1-0.6,4.2,0.7,4.8,2.7l1.6,5.6c3.2,11.9,13.2,20.3,24.7,21.9
				C373.7,214.6,366.7,238.1,354.5,262.1L354.5,262.1z"/>
		</g>
	</g>
	<path class="st6" d="M47.8,193.5c0,0,0.4,1.1,0.9,2.4c0.8,2.2-0.5,4.7-2.8,5.3h-0.1c-2,0.5-4.1-0.6-4.8-2.5l-1.1-3.1
		c-3.2-11.9-13.2-20.3-24.7-21.9c-4-28,2.9-55.5,15.1-79.5l45.1-11c-11.7,24.2-18.3,51.3-18.5,80C48.7,170.5,44.7,182.1,47.8,193.5
		L47.8,193.5z"/>
	<path class="st6" d="M139,319.8l-45.7,12.5c-22.5-14.6-40.6-31.7-51.1-58c9.1-7.2,13.6-19.4,10.4-31.3l-1.3-4.2
		c-0.7-2.2,0.6-4.5,2.8-5.1h0.1c2.2-0.6,4.4,0.7,5,2.8c0.6,2.2,1.3,4.4,1.3,4.4c3.2,11.8,12.9,20,24.1,21.9
		C98.5,285.4,117.1,304.9,139,319.8L139,319.8z"/>
	<path class="st7" d="M354.4,258.8c4.3,16.2-51,45-123.6,64.5s-135,22.1-139.3,6c-4.3-16.2,51-45,123.6-64.5
		S350.1,242.6,354.4,258.8L354.4,258.8z"/>
	<path class="st7" d="M292.8,28.9c4.3,16.2-51,45-123.6,64.5s-135,22.1-139.3,6c-4.3-16.2,51-45,123.6-64.5
		C226.1,15.5,288.5,12.8,292.8,28.9L292.8,28.9z"/>
</g>
</svg>
