<?xml version="1.0" encoding="utf-8"?>
<!-- Generator: Adobe Illustrator 28.3.0, SVG Export Plug-In . SVG Version: 6.00 Build 0)  -->
<svg version="1.1" id="Layer_1" xmlns="http://www.w3.org/2000/svg" xmlns:xlink="http://www.w3.org/1999/xlink" x="0px" y="0px"
	 viewBox="0 0 383.9 384.1" style="enable-background:new 0 0 383.9 384.1;" xml:space="preserve">
<style type="text/css">
	.st0{display:none;}
	.st1{display:inline;}
	.st2{clip-path:url(#SVGID_00000150822217180387354750000004537782213222225556_);fill:#1A2980;}
	.st3{display:none;fill:#0867FF;}
	.st4{display:none;fill:#FFF5F5;}
	.st5{display:none;fill:#97BFFD;}
	.st6{display:none;fill:#5596FB;}
	.st7{fill:#0867FF;}
	.st8{display:none;fill:#7FBED7;}
	.st9{display:none;fill:#A6D2E3;}
	.st10{fill:#0867FF;stroke:#FFFFFF;stroke-width:6;stroke-miterlimit:10;}
	.st11{fill:#0867FF;stroke:#FFFFFF;stroke-width:9;stroke-miterlimit:10;}
	.st12{display:none;fill:#ECECF1;}
	.st13{fill:#FFFFFF;}
</style>
<g>
	<g class="st0">
		<g class="st1">
			<defs>
				<rect id="SVGID_1_" x="4" y="0.1" width="376" height="384"/>
			</defs>
			<clipPath id="SVGID_00000136411558432146166490000003622544965354013854_">
				<use xlink:href="#SVGID_1_"  style="overflow:visible;"/>
			</clipPath>
			<path style="clip-path:url(#SVGID_00000136411558432146166490000003622544965354013854_);fill:#1A2980;" d="M379.8,193.4
				c1.1,77.2-44.9,144.4-111.1,174.2c-0.7,0.3-1.7-2.3-2.4-2c-12.1,5.3-25,9.3-38.3,12c-1.2,0.2-2,3.4-3.2,3.6
				c-4.6,0.8-9.2,1.5-13.9,1.9c-0.7,0.1-1.8-3.3-2.5-3.3c-5.5,0.5-11.5,0.6-17.1,0.6c-5.4,0-10.3-0.1-15.6-0.5
				c-1-0.1-1.6,3.3-2.5,3.2c-4.3-0.4-8.5-1-12.7-1.7c-5.3-8.1-14.4-13-24.1-13h-19.5C50,339.2,3.4,272.1,4.2,194.2
				C5.3,91.1,88.8,8.5,192,8.5C294.8,8.5,378.3,91.1,379.8,193.4L379.8,193.4z"/>
		</g>
	</g>
	<path class="st3" d="M301.4,161.1c0,71-57.6,128.6-128.6,128.6S44.2,232.1,44.2,161.1S101.8,32.4,172.8,32.4
		S301.4,90.1,301.4,161.1L301.4,161.1z"/>
	<path class="st4" d="M310,99.7c0,3.2-2.6,5.8-5.7,5.8h-3.8v3.8c0,3.2-2.6,5.7-5.8,5.7c-3.2,0-5.8-2.6-5.8-5.7v-3.8h-3.8
		c-3.2,0-5.7-2.6-5.7-5.8c0-3.2,2.6-5.7,5.7-5.7h3.8v-3.8c0-3.2,2.6-5.7,5.8-5.7c3.2,0,5.8,2.6,5.8,5.7V94h3.8
		C307.5,94,310,96.6,310,99.7L310,99.7z"/>
	<path class="st5" d="M149.1,184.1c0,3.2-2.6,5.7-5.7,5.7h-3.8v3.8c0,3.2-2.6,5.8-5.7,5.8c-3.2,0-5.8-2.6-5.8-5.8v-3.8h-3.8
		c-3.2,0-5.8-2.6-5.8-5.7c0-3.2,2.6-5.8,5.8-5.8h3.8v-3.8c0-3.2,2.6-5.8,5.8-5.8c3.2,0,5.7,2.6,5.7,5.8v3.8h3.8
		C146.5,178.2,149.1,180.9,149.1,184.1L149.1,184.1z"/>
	<path class="st6" d="M340.7,260.7c0,3.2-2.6,5.8-5.8,5.8h-3.8v3.8c0,3.2-2.6,5.8-5.7,5.8c-3.2,0-5.8-2.6-5.8-5.8v-3.8h-3.8
		c-3.2,0-5.7-2.6-5.7-5.8c0-3.2,2.6-5.7,5.7-5.7h3.8v-3.9c0-3.2,2.6-5.8,5.8-5.8c3.2,0,5.7,2.6,5.7,5.8v3.8h3.8
		C338.1,254.9,340.7,257.5,340.7,260.7L340.7,260.7z"/>
	<path class="st7" d="M184.2,129.9h15.6v124.6h-15.6V129.9z M118.2,253.1l-9.6-34c-1-3.4-4.1-5.7-7.5-5.7L67.7,95.2
		c-1.2-4.1-5.5-6.5-9.6-5.4c-4.1,1.2-6.5,5.5-5.4,9.6l33.4,118.2c-2.9,1.8-4.4,5.3-3.4,8.8l9.6,34l5.4-1.5l13.7,48.4l15-4.2
		l-13.7-48.4L118.2,253.1z M309.2,157.8c-4.1-1.2-8.4,1.2-9.6,5.3l-17,59.1c-3.4,0-6.5,2.2-7.5,5.6l-10.5,36.3l5.4,1.6l-13.3,46.1
		l15,4.3L285,270l5.4,1.6l10.5-36.3c1-3.4-0.5-7-3.4-8.8l17-59.1C315.7,163.2,313.4,158.9,309.2,157.8L309.2,157.8z"/>
	<path class="st8" d="M211.2,200.9v178.4c0,1.3-0.1,2.5-0.4,3.7c-6.2,0.6-12.5,0.9-18.9,0.9s-12.7-0.3-18.9-0.9
		c-0.2-1.2-0.4-2.4-0.4-3.7V200.9c0-10.6,8.6-19.2,19.2-19.2C202.6,181.8,211.2,190.4,211.2,200.9L211.2,200.9z M99.2,235.2
		C88.9,238.1,83,248.7,85.9,259l30.9,109.5c13.8,6,28.4,10.4,43.6,13l-37.5-132.9C120,238.2,109.4,232.4,99.2,235.2L99.2,235.2z
		 M284.4,243.9c-10.2-2.9-20.8,2.9-23.8,13.1l-35.8,124.1c15.3-2.7,30-7.3,43.9-13.5l28.8-100C300.4,257.6,294.6,246.9,284.4,243.9
		L284.4,243.9z"/>
	<path id="middle_extension" class="st7" d="M211.2,204.5v178.4c0,1.3-0.1,2.5-0.4,3.7c-6.2,0.6-12.4,0.9-18.8,0.9
		c-6.4,0-12.6-0.3-18.8-0.9c-0.2-1.2-0.4-2.4-0.4-3.7V204.5c0-10.6,8.6-19.2,19.1-19.2C202.6,185.3,211.2,193.9,211.2,204.5
		L211.2,204.5z"/>
	<path id="left_extension" class="st7" d="M103.9,251.5c-10.4,2.9-16.3,13.5-13.4,23.8l31.1,109.5c13.9,6,28.5,10.4,43.8,13
		l-37.7-132.9C124.8,254.6,114.1,248.7,103.9,251.5L103.9,251.5z"/>
	<path id="right_extension" class="st7" d="M279.7,260.6c-10.2-2.9-20.9,2.9-23.9,13.1l-36,124.1c15.4-2.7,30.1-7.3,44.1-13.5
		l28.9-100C295.7,274.2,289.9,263.6,279.7,260.6L279.7,260.6z"/>
	<path class="st9" d="M211.2,200.9v178.4c0,1.3-0.1,2.5-0.4,3.7c-6.2,0.6-12.5,0.9-18.9,0.9c-1.5,0-3.1,0-4.6-0.1V195.6
		c0-5.4,2.2-10.2,5.8-13.7C203.2,182.4,211.2,190.8,211.2,200.9L211.2,200.9z M122.9,248.4c-2.8-9.8-12.7-15.7-22.6-13.6
		c-2.5,4.3-3.3,9.6-1.8,14.8l35.3,125.2c8.6,2.8,17.5,5,26.6,6.5L122.9,248.4z M285.5,244.4c-4.4,2.4-7.9,6.4-9.4,11.6L241,377.6
		c9.5-2.6,18.8-5.9,27.6-9.8l28.8-100C300.3,258,295,247.8,285.5,244.4L285.5,244.4z"/>
	<path class="st8" d="M202.7,354.6c0,3.2-2.6,5.7-5.8,5.7h-11.5c-3.2,0-5.7-2.6-5.7-5.7c0-3.2,2.6-5.8,5.7-5.8H197
		C200.2,348.8,202.7,351.4,202.7,354.6L202.7,354.6z M197,324.7h-11.5c-3.2,0-5.7,2.6-5.7,5.8c0,3.2,2.6,5.8,5.7,5.8H197
		c3.2,0,5.8-2.6,5.8-5.8C202.7,327.3,200.2,324.7,197,324.7L197,324.7z M199.4,384c2-0.9,3.3-2.9,3.3-5.2c0-3.2-2.6-5.7-5.7-5.7
		h-11.5c-3.2,0-5.7,2.6-5.7,5.7c0,2.3,1.3,4.2,3.2,5.2c3,0.1,6,0.2,9.1,0.2C194.5,384.1,196.9,384.1,199.4,384L199.4,384z
		 M197,276.4h-11.5c-3.2,0-5.7,2.6-5.7,5.7c0,3.2,2.6,5.8,5.7,5.8H197c3.2,0,5.8-2.6,5.8-5.8C202.7,279,200.2,276.4,197,276.4
		L197,276.4z M197,228.1h-11.5c-3.2,0-5.7,2.6-5.7,5.8s2.6,5.7,5.7,5.7H197c3.2,0,5.8-2.6,5.8-5.7
		C202.7,230.7,200.2,228.1,197,228.1L197,228.1z M197,300.6h-11.5c-3.2,0-5.7,2.6-5.7,5.7s2.6,5.8,5.7,5.8H197
		c3.2,0,5.8-2.6,5.8-5.8S200.2,300.6,197,300.6L197,300.6z M197,252.2h-11.5c-3.2,0-5.7,2.6-5.7,5.8s2.6,5.7,5.7,5.7H197
		c3.2,0,5.8-2.6,5.8-5.7C202.7,254.8,200.2,252.2,197,252.2L197,252.2z M129.7,324.9l-11.1,3.1c-3.1,0.9-4.8,4-4,7.1
		c0.9,3.1,4,4.8,7.1,4l11.1-3.1c3.1-0.9,4.8-4,4-7.1C135.9,325.8,132.7,324.1,129.7,324.9L129.7,324.9z M142.8,371.4l-10.6,3
		c5.7,1.9,11.5,3.6,17.4,4.9c0.5-1.2,0.7-2.6,0.3-3.9C149,372.3,145.8,370.5,142.8,371.4L142.8,371.4z M121.2,358.4
		c0.9,3.1,4,4.8,7.1,4l11.1-3.1c3.1-0.9,4.8-4,4-7.1c-0.9-3.1-4-4.8-7.1-4l-11.1,3.1C122.1,352.1,120.3,355.3,121.2,358.4
		L121.2,358.4z M116.5,278.4l-11.1,3.1c-3.1,0.9-4.8,4-4,7.1c0.9,3.1,4,4.8,7.1,4l11.1-3.1c3.1-0.9,4.8-4,4-7.1
		C122.8,279.4,119.6,277.6,116.5,278.4L116.5,278.4z M123.1,301.7l-11.1,3.1c-3.1,0.9-4.8,4-4,7.1c0.9,3.1,4,4.8,7.1,4l11.1-3.1
		c3.1-0.9,4.8-4,4-7.1C129.3,302.6,126.1,300.8,123.1,301.7L123.1,301.7z M280.3,297c0.9-3.1-0.9-6.2-3.9-7.1l-11-3.2
		c-3.1-0.9-6.2,0.9-7.1,3.9c-0.9,3,0.9,6.2,3.9,7.1l11,3.2C276.2,301.8,279.4,300.1,280.3,297L280.3,297z M273.6,320.2
		c0.9-3.1-0.9-6.2-3.9-7.1l-11-3.2c-3-0.9-6.2,0.9-7.1,3.9s0.9,6.2,3.9,7.1l11,3.2C269.5,325,272.7,323.3,273.6,320.2L273.6,320.2z
		 M266.9,343.4c0.9-3.1-0.9-6.2-3.9-7.1l-11-3.2c-3.1-0.9-6.2,0.9-7.1,3.9c-0.9,3.1,0.9,6.2,3.9,7.1l11,3.2
		C262.8,348.2,266,346.5,266.9,343.4L266.9,343.4z M260.2,366.6c0.9-3.1-0.9-6.2-3.9-7.1l-11-3.2c-3.1-0.9-6.2,0.9-7.1,3.9
		c-0.9,3.1,0.9,6.2,3.9,7.1l11,3.2C256.1,371.4,259.3,369.7,260.2,366.6L260.2,366.6z"/>
	<path class="st10" d="M76.9,156.2c-4.1,1.2-8.4-1.2-9.6-5.4L52.7,99.5c-1.2-4.1,1.2-8.4,5.4-9.6c4.1-1.2,8.4,1.2,9.6,5.4l14.5,51.4
		C83.4,150.8,81,155.1,76.9,156.2L76.9,156.2z M371.3,135.8c8.2-28.4-8.3-58.2-36.7-66.4c-4.1-1.2-8.3,1.2-9.5,5.2
		c-1.2,4.1,1.2,8.3,5.2,9.5c20.3,5.9,32.1,27.1,26.2,47.4s-27.1,32.1-47.4,26.2c-4.1-1.2-8.3,1.2-9.5,5.2c-1.2,4.1,1.2,8.3,5.2,9.5
		C333.3,180.7,363.1,164.2,371.3,135.8L371.3,135.8z"/>
	<path id="magnifying_glass_border" class="st7" d="M192,0.1c44.4,0,80.5,36,80.5,80.5c0,44.4-36,80.5-80.5,80.5s-80.5-36-80.5-80.5
		S147.6,0.1,192,0.1L192,0.1z"/>
	<path id="middle_head" class="st11" d="M211.2,218.2h-38.4v-17.1c0-10.6,8.6-19.2,19.2-19.2c10.6,0,19.2,8.6,19.2,19.2L211.2,218.2
		L211.2,218.2z"/>
	<path id="left_head" class="st11" d="M122.9,248.4c-2.9-10.2-13.5-16.2-23.7-13.3C88.9,238.1,83,248.7,85.9,259l4.7,16.5l37-10.4
		L122.9,248.4z"/>
	<path id="right_head" class="st11" d="M297.5,267.8c2.9-10.2-2.9-20.8-13.1-23.8c-10.2-2.9-20.8,2.9-23.8,13.1l-4.7,16.5l36.9,10.6
		L297.5,267.8z"/>
	<path class="st12" d="M272.5,80.9c-0.1,30.8-17.5,57.6-43.1,71c-5.2,2.7-11.4-1.1-11.4-6.9c0-2.9,1.6-5.5,4.2-6.9
		c20.6-10.9,34.7-32.5,34.7-57.4c0-35.8-28.7-64.7-64.6-64.9c-24.8-0.1-46.4,13.7-57.4,34c-1.4,2.5-4,4.1-6.8,4.1l0,0
		c-5.9,0-9.7-6.3-6.9-11.4C134.8,17.2,161.4,0.1,192,0.1C236.3,0.1,272.6,36.5,272.5,80.9L272.5,80.9z M211.2,200.9v17.1h-23.8
		v-22.6c0-5.4,2.2-10.2,5.8-13.7C203.2,182.4,211.2,190.8,211.2,200.9L211.2,200.9z M100.3,234.9c-2.5,4.3-3.3,9.6-1.8,14.8
		l6.1,21.7l22.9-6.5l-4.7-16.5C120.1,238.7,110.2,232.8,100.3,234.9L100.3,234.9z M285.5,244.4c-4.4,2.4-7.9,6.4-9.4,11.6l-6.3,21.7
		l22.9,6.6l4.7-16.5C300.3,258,295,247.8,285.5,244.4L285.5,244.4z"/>
	<path class="st13" d="M192,15.7c35.8,0,64.9,29.1,64.9,64.9s-29.1,64.9-64.9,64.9s-64.9-29.1-64.9-64.9
		C127.1,44.7,156.2,15.7,192,15.7L192,15.7z"/>
	<path class="st11" d="M249.7,81c0,11.6-3.2,22.5-8.8,31.7c-8.8,5.8-19.2,9.1-30.3,9.1c-31.4,0-56.9-26.6-56.9-59.4
		c0-11.6,3.2-22.5,8.8-31.7c8.8-5.8,19.2-9.1,30.3-9.1C224.2,21.6,249.7,48.1,249.7,81L249.7,81z"/>
	<path class="st13" d="M227.3,46.8c9.3,9.3,13.8,20,10,23.8s-14.5-0.7-23.8-10s-13.8-20-10-23.8S218,37.5,227.3,46.8L227.3,46.8z"/>
</g>
</svg>
