<?xml version="1.0" encoding="utf-8"?>
<!-- Generator: Adobe Illustrator 24.1.2, SVG Export Plug-In . SVG Version: 6.00 Build 0)  -->
<svg version="1.1" id="Layer_1" xmlns="http://www.w3.org/2000/svg" xmlns:xlink="http://www.w3.org/1999/xlink" x="0px" y="0px"
	 viewBox="0 0 487 704" style="enable-background:new 0 0 487 704;" xml:space="preserve">
<style type="text/css">
	.st0{fill-rule:evenodd;clip-rule:evenodd;fill:#1a2980;}
</style>
<path class="st0" d="M77.1,104.3c-35.4,41.6-56.6,85.4-67.2,127.6c-11.9,47.4-14,97.6-1.3,143.4c25.3,91.3,81.1,106.1,101.8,194.4
	c11.3,48.1-0.3,81,25.5,107.2c44.1,45,142.4,27.6,204.9-6.7c68.9-37.7,110.2-108.5,129.9-175.6c13.4-45.3,37.5-163.3-24.1-261.4
	c-31.2-49.7-75.4-80.3-65.6-116.6c7.2-26.9,42.4-32.3,42.9-52.3c0.8-33-98.9-77.2-191.6-60.3C186.4,12.3,133.3,38.1,77.1,104.3z"/>
</svg>
