<svg xmlns="http://www.w3.org/2000/svg" viewBox="0 0 512 328.66"><defs><style>.cls-1{fill:#0867ff;}</style></defs><title>Capa 1</title><g id="Warstwa_2" data-name="Warstwa 2"><g id="Capa_1" data-name="Capa 1"><path class="cls-1" d="M198.58,242.94v56H134v-56a32.31,32.31,0,0,1,64.62,0Z" transform="translate(-0.25 -0.25)"/><path d="M512.25,51.31v153a25,25,0,0,1-25,25H445.14a16,16,0,0,1-15.42,11.83H362.11A25,25,0,0,1,340.88,253H228.58v51a25,25,0,0,1-25,25H129a25,25,0,0,1-25-25s0-62.18,0-62.78H82.78A16,16,0,0,1,67.36,229.3H25.25a25,25,0,0,1-25-25v-153L9.7,47.54a666.35,666.35,0,0,1,493.1,0Zm-30,148V164.4a18.27,18.27,0,1,0-36.53,0v34.9Zm0-79.57v-48a636.27,636.27,0,0,0-452,0v48a48.15,48.15,0,0,1,51.09,9.32,54.84,54.84,0,0,1,79.35-1.45,62.21,62.21,0,0,1,95.56-1.1,62.21,62.21,0,0,1,95.56,1.1,54.84,54.84,0,0,1,79.35,1.45,48.15,48.15,0,0,1,51.09-9.32Zm-66.53,91.4V166.25a24.92,24.92,0,0,0-49.84,0v44.88ZM335.88,223V167a32.32,32.32,0,0,0-64.63,0v56Zm-94.63,0V167a32.32,32.32,0,0,0-64.63,0v14.53A62.46,62.46,0,0,1,225.27,223Zm-42.67,76v-56a32.31,32.31,0,0,0-64.62,0v56Zm-52-115.09V166.25a24.92,24.92,0,0,0-49.84,0v44.88h15.94A62.67,62.67,0,0,1,146.62,183.82ZM66.78,199.3V164.4a18.27,18.27,0,1,0-36.53,0v34.9Z" transform="translate(-0.25 -0.25)"/></g></g></svg>