<svg xmlns="http://www.w3.org/2000/svg" viewBox="0 0 512.75 329.5"><defs><style>.cls-1{fill:#0867ff;}.cls-2{fill:none;}.cls-2,.cls-3{stroke:#000;stroke-miterlimit:10;stroke-width:0.75px;}.cls-3{fill:#fff;}</style></defs><title>Warstwa 1</title><g id="Warstwa_2" data-name="Warstwa 2"><g id="Warstwa_1-2" data-name="Warstwa 1"><g id="Capa_1" data-name="Capa 1"><path class="cls-1" d="M215.9,245.47v67.46H113.6V245.47c0-21.5,22.89-38.92,51.14-38.92S215.9,224,215.9,245.47Z"/><path d="M512.38,51.43v153a25,25,0,0,1-25,25H445.26a16,16,0,0,1-15.42,11.83h-67.6A25,25,0,0,1,341,253.12H228.7v51a25,25,0,0,1-25,25H129.13a25,25,0,0,1-25-25V241.34H82.9a16,16,0,0,1-15.41-11.92H25.38a25,25,0,0,1-25-25v-153l9.44-3.76a666.38,666.38,0,0,1,493.1,0Zm-7.9,111.77c.36-13.86-11.56-25.35-26.62-25.67S450.33,148.17,450,162c0,.4,0,.79,0,1.18v47.93l54.5,0Zm-3-37.64V64C343.58-7,169.18-7,11.31,64v61.61c18.85-9.16,40.49-4.48,55.39,12,22.24-28.61,59.86-30.48,84-4.17.67.75,1.36,1.52,2,2.31,23.52-34.2,66-39.34,94.89-11.5a73.73,73.73,0,0,1,8.73,10.09c24.18-33.55,66.76-37.53,95.11-8.91A76.45,76.45,0,0,1,360,135.66c23.09-27.63,60.76-27.87,84.09-.53.67.78,1.33,1.57,2,2.39C461,121.08,482.59,116.4,501.44,125.56Zm-60.95,102V162.38c0-20-17.8-36.19-39.73-36.18s-39.67,16.2-39.68,36.18v65.2Zm-93.64,12.89V165.09c-.38-24-18.75-43.16-41-42.74-21.7.41-39.2,19.31-39.59,42.74v75.39Zm-94.49,0V165.09c-.46-24-21.38-43.16-46.75-42.74-24.73.41-44.68,19.31-45.12,42.74v19.56c32.12,5.18,58.66,26.61,69.15,55.83ZM215.9,312.93V245.47c0-21.5-22.91-38.92-51.16-38.92S113.6,224,113.6,245.47v67.46ZM152.43,185.06l.06-.12-.06,0V160.64c0-19-17.41-34.45-38.87-34.44S74.72,141.62,74.7,160.64V222.7H99.57c12-17.77,30.73-31.17,52.86-37.74Z"/><path d="M152.49,184.94l-.06.12V185Z"/><path class="cls-2" d="M512.38,51.43v153a25,25,0,0,1-25,25H445.26a16,16,0,0,1-15.42,11.83h-67.6A25,25,0,0,1,341,253.12H228.7v51a25,25,0,0,1-25,25H129.13a25,25,0,0,1-25-25V241.34H82.9a16,16,0,0,1-15.41-11.92H25.38a25,25,0,0,1-25-25v-153l9.44-3.76a666.38,666.38,0,0,1,493.1,0Z"/><path class="cls-2" d="M504.48,211.15v-48c.36-13.86-11.56-25.35-26.62-25.67S450.33,148.17,450,162c0,.4,0,.79,0,1.18v47.93Z"/><path class="cls-2" d="M501.44,125.56V64C343.58-7,169.18-7,11.31,64v61.61c18.85-9.16,40.49-4.48,55.39,12,22.24-28.61,59.86-30.48,84-4.17.67.75,1.36,1.52,2,2.31,23.52-34.2,66-39.34,94.89-11.5a73.73,73.73,0,0,1,8.73,10.09c24.18-33.55,66.76-37.53,95.11-8.91A76.45,76.45,0,0,1,360,135.66c23.09-27.63,60.76-27.87,84.09-.53.67.78,1.33,1.57,2,2.39C461,121.08,482.59,116.4,501.44,125.56Z"/><path class="cls-2" d="M440.49,227.59V162.38c0-20-17.8-36.19-39.73-36.18s-39.67,16.2-39.68,36.18v65.2Z"/><path class="cls-2" d="M346.85,240.48V165.09c-.38-24-18.75-43.16-41-42.74-21.7.41-39.2,19.31-39.59,42.74v75.39Z"/><path class="cls-2" d="M252.36,240.48V165.09c-.46-24-21.38-43.16-46.75-42.74-24.73.41-44.68,19.31-45.12,42.74v19.56c32.12,5.18,58.66,26.61,69.15,55.83Z"/><path class="cls-2" d="M215.9,312.93V245.47c0-21.5-22.91-38.92-51.16-38.92S113.6,224,113.6,245.47v67.46Z"/><path class="cls-2" d="M152.43,185V160.64c0-19-17.41-34.45-38.87-34.44S74.72,141.62,74.7,160.64V222.7H99.57C111.53,204.93,130.3,191.53,152.43,185Z"/><path class="cls-2" d="M152.43,185l.06,0-.06.12Z"/><path d="M39.76,135.37c15.35.29,27.51,10.29,23.59,20.22V197.3l-52,2.12V157.71q0-.51,0-1C11.68,144.64,24.4,135.09,39.76,135.37Z"/><path class="cls-2" d="M63.35,197.3V155.59c3.92-9.93-8.24-19.93-23.59-20.22s-28.08,9.27-28.44,21.32q0,.51,0,1v41.71Z"/></g><path class="cls-3" d="M62.8,211.15V160.66c.36-14.59-11.56-26.69-26.61-27S8.65,144.83,8.3,159.42c0,.42,0,.83,0,1.24v50.48Z"/></g></g></svg>