<?xml version="1.0" encoding="utf-8"?>
<!-- Generator: Adobe Illustrator 24.1.2, SVG Export Plug-In . SVG Version: 6.00 Build 0)  -->
<svg version="1.1" id="Layer_1" xmlns="http://www.w3.org/2000/svg" xmlns:xlink="http://www.w3.org/1999/xlink" x="0px" y="0px"
	 viewBox="0 0 314.4 324.3" style="enable-background:new 0 0 314.4 324.3;" xml:space="preserve">
<style type="text/css">
	.st0{fill-rule:evenodd;clip-rule:evenodd;fill:url(#Wypełnienie_gradientem_1_1_);}
	.st1{fill:#FFFFFF;}
</style>
<linearGradient id="Wypełnienie_gradientem_1_1_" gradientUnits="userSpaceOnUse" x1="5113.3657" y1="-5294.208" x2="5113.3657" y2="-3127.1948" gradientTransform="matrix(0.1106 0 0 -0.1106 -408.3327 -345.8676)">
	<stop  offset="0" style="stop-color:#FFFFFF"/>
	<stop  offset="0.41" style="stop-color:#FFFFFF"/>
	<stop  offset="1" style="stop-color:#E2ECF6"/>
</linearGradient>
<path id="Wypełnienie_gradientem_1" class="st0" d="M266.8,40.7c0.4,2.4,0.7,4.8,1.1,7.2c0.4,1.8,0,4,0.4,6v5
	c0,2.1,0.2,4.5-0.2,6.3c0,1-0.1,2-0.1,3c-0.3,1.6-0.5,3.3-0.6,5h0.1c1.2-1.8,3.4-2.9,4.6-4.6c3.2-4.2,6.5-7.3,8.7-12.6
	c1.4-3.4,2-7.7-0.2-10.8c-1.1-1.5-3.2-2.7-5-3.4l-3.6-1.1c3.7,0.1,7.4,0.7,10.3,1.7c4.3,1.4,8,3.3,9.7,7.3c0.4,0.9,0.3,1.8,0.6,3
	c0.3,1.3,0.1,3.1-0.2,4.3c-0.4,1.6-0.9,3.1-1.5,4.5c-1.2,2.6-2.9,5-4.4,7.2c-3.7,5.2-8,9.7-12.5,14c-1.5,1.5-3.1,2.8-4.8,4.1
	c-0.8,0.6-1.4,1.5-2.2,2.1c-0.7,0.5-2.5,1.6-2.7,2.5c-0.9,3.5-1.8,7-2.7,10.5c-1.8,5.4-3.2,11.1-4.8,16.8c-0.9,3.3-1.2,6.6-2.1,10
	c-1.6,5.6-2.2,11.7-3.8,17.3c-0.6,2-0.5,3.9-1.1,5.9c-1.7,6.2-2.4,12.7-4.2,18.9c-1.1,3.8-1.7,7.9-2.9,11.7
	c-3.2,10.3-5.7,20.7-9.6,30.1c-3.7,8.8-7.7,18.5-14.9,23.8c-2.4,1.8-6.7,4.6-11.2,3.1c-2.6-0.9-4.2-3.1-5.5-5.3c-2.5-4-4-9.1-5.6-14
	c-0.3-1.2-0.6-2.4-0.9-3.6c-1.9-5.7-2.8-11.9-4.8-17.7c-2.8-8.4-5.1-16.8-9.4-23.7c-2-3.1-4.3-5.8-6.7-8.4c-1.5,0.3-3,1.4-4.3,2
	c-2.8,1.2-5.6,2.4-8.3,3.6c-6.8,3-13.6,5.3-20.6,8.2c-2.4,1-5,1.7-7.5,2.8c-1.5,0.6-3.2,1.3-4.9,1.8c-0.7,1.8-1.3,3.6-2,5.4
	c-1.2,3.3-2,6.8-3.1,10.2c-0.5,1.4-0.5,2.8-1,4.2c-2.3,7-3.5,14.9-6.2,21.5c-2,4.8-3.8,10.8-8.3,12.8c-5.1,2.3-11.1-1.6-13.6-4.1
	c-5.5-5.4-9.2-12.5-12.5-20.1c-0.7-1.5-1-3-1.7-4.5c-0.9-2.3-1.6-4.7-2.5-7.2c-0.4-1.2-1-2.4-1.2-3.8c-1.1,0-2.2,0.3-3.1,0.6
	c-1.8,0.5-3.7,0.5-5.4,0.9c-3.8,0.5-7.7,1-11.5,1.4c-1.3,0.1-2.6,0.1-3.9,0.2c-3.1,0.7-7.2,0.4-10.7,0.4c-14.4,0-25.9-2.1-34.2-8.1
	c-4.4-3.2-7.7-7.8-7.7-15.4c0-1.6,0-3.1,0.3-4.4c0.8-3.3,1.7-6.2,3-9.1c0.6-1.4,1.3-2.8,2.1-4.1c0.5-0.8,1.2-1.6,1.5-2.5h0.1v0.3
	c-0.7,0.9-0.7,2.3-1.1,3.5c-2,6.4,0.1,12.2,3.5,15.6c6,6,16.7,8.2,28.6,8.2c4.3,0,9.1,0.2,12.7-0.6c0.8,0,1.6-0.1,2.4-0.1
	c3.2-0.4,6.3-0.8,9.5-1.2c1.7-0.4,3.5-0.4,5.3-0.9c6.1-1.6,12.5-2.1,18.4-3.9c6.5-2,13.1-3.4,19.5-5.5c13.5-4.5,26.8-8.9,39.3-14.3
	c2.7-1.2,5.3-2,8-3.2c3.3-1.4,6.6-3.1,9.8-4.5c4.6-2,8.9-4.1,12.7-6.9c0.9-0.7,1.6-1.7,2.4-2.3c1.9-1.5,3.7-3.4,5.2-5.3
	c1.3-1.8,3.1-3.3,4.4-5.1c3-4.1,6-8.3,8.7-12.7c1.1-1.9,1.8-3.9,3-5.8c2.9-4.7,4.8-10.2,7.1-15.5c0.8-1.9,1.5-4,2.3-6.1
	c0.3-0.8,0.7-1.6,0.9-2.5c-0.5-0.1-1.1-0.2-1.5-0.3c-2.3-0.5-4.6,0.5-5.9,1.2c-3,1.6-4.9,3.9-6.6,6.7c-0.9,1.4-1.2,3.1-2.1,4.5
	c-2,3.3-3.9,6.6-6,9.7c-2.1,3.2-4.7,6-7,9c-1.5,2-3.5,4.5-5.5,6c-3.9,2.9-8.1,5.4-12.6,7.4c-2.2,1-4.4,1.6-6.7,2.5
	c-2.2,0.9-4.6,1.8-7.1,2.4v-0.1c0.6-0.5,1-1.4,1.4-2c1.4-1.8,4-3.7,6-5c1.8-1.1,3.8-1.6,5.9-2.4c2.5-1.1,4.8-2.6,6.6-4.4
	c1.2-1.2,3.9-4.8,2.3-7.3c-1.3-2.1-6.7-0.9-8.8-0.2c-4.4,1.5-8.6,3.4-12.5,5.9c-2.4,1.5-5.5,2.6-8.2,3.8
	c-5.7,2.5-13.1,6.1-16.6,10.7c-0.9,1.2-1.9,2.5-2.7,3.8c-0.5,0.9-0.8,1.9-1.3,2.8c-1,1.6-2.9,4.2-4.4,5.3c-2.6,1.9-5.2,3.9-8,5.6
	c-7.6,4.7-16.8,7.8-26,10.8c-2.1,0.7-4.5,1.4-6.6,2.1c-1,0.3-1.9,0.3-3,0.7c-1.2,0.4-2.7,0.9-4.1,1v-0.1h-0.1
	c-0.1-1.4-0.6-2.9-1-4.2c-0.7-2.5-1-5-1.7-7.4c-0.4-1.5-0.4-2.7-0.8-4.2c-1.3-4.8-1.9-10-3.2-14.8c-0.7-2.5-0.9-5-1.5-7.4
	c-0.2-0.8-0.1-2.2-0.7-2.5c-0.7,1-2.1,1.7-3.1,2.4c-2,1.5-3.7,3.4-5.8,4.9c-1.2,0.9-2,2.2-3.2,3.1c-1.9,1.4-3.5,3.1-5,5
	c-1,1.3-2.4,2.3-3.3,3.5c-1.4,1.8-2.6,3.6-3.9,5.5c-2.1,3.2-5.4,9.5-2.4,14.3c1.3,2.1,3.6,3.3,6.1,4.3c0.8,0.3,2,0.2,2.7,0.7
	c-2,0-4.1-0.2-6.1-0.7c-1.3-0.3-2.3-0.3-3.5-0.7c-3.9-1.3-7-2.8-9.1-6c-1.3-2-2.2-5.4-1.3-8.6c0.4-1.2,0.7-2.4,1.1-3.5
	c2-4.6,4.9-8.4,7.7-12.2c0.6-0.8,1.5-1.4,2.1-2.2c1.8-2.3,4-4.8,6.3-6.5c0.7-0.7,1.4-1.5,2.1-2.2c1.8-1.3,3.2-3.1,5-4.4
	c2.7-2,5.1-4.4,7.9-6.4c0.7-0.5,2.9-1.8,3.1-2.7c-0.6-2.4-1.3-4.9-1.9-7.3c-2.4-6.6-3.8-13.9-5.8-20.9c-0.5-1.9-0.5-3.6-1-5.5
	c-0.9-3.3-0.9-7.1-1.8-10.6c-0.3-1.4-0.1-2.9-0.4-4.2c-0.1-2.4-0.3-4.8-0.4-7.2v-3.1c0-2.2-0.2-4.5,0.2-6.4c0.4-1.7-0.1-3.5,0.3-5.2
	c0.4-1.5,0.3-3.2,0.7-4.8c0.7-2.6,1.1-5.5,1.9-8c0.4-1.2,0.5-2.2,0.9-3.4c2.7-8,6-15.6,12.2-20.1C67.8,6.6,74.6,4,82.5,1.8l5.9-1.1
	l2.8-0.2c1.1-0.2,2.5-0.3,3.6-0.3H97c1.5-0.3,5.5,0,7,0.3l2.5,0.2c9.2,2.3,17.9,4.5,26.1,7.9c3.3,1,6.6,2.1,9.8,3.1v0.1h-0.1
	c-0.7,0.9-2,1.5-3,2.2c-2.1,1.5-4.2,3.1-6.4,4.5c-3.9,2.6-7.9,5.2-11.9,7.6c-1.9,1.2-4,1.9-6,3.1c-1.9,1.2-4,2-6.2,3
	c-1,0.4-2,1-3.1,1.3v0.1h0.2c0.8-0.5,1.9-0.5,2.9-0.8c1.8-0.6,3.7-1,5.6-1.7c5.8-1.9,11.8-3.5,17.5-5.6c9.5-3.5,19.5-6.3,28.8-10.2
	c3.7-1.5,7.6-2.5,11.3-4c2-0.8,4.2-1.2,6.3-1.9c4.2-1.4,8.5-2.8,12.6-4.3c5-1.9,10.4-2.9,15.7-4.3c1.6-0.4,3.1-0.2,4.9-0.6
	c1.7-0.4,4.4-0.5,6.1-0.2l4.4,0.1c2.6,0.6,5.3,0.4,7.7,1.1c5,1.4,9.7,2.6,14,4.5c2.6,1.2,5.3,2.7,7.5,4.3c0.8,0.6,2.4,2.4,3.4,2.5
	c1-0.6,4.3-0.2,5.8-0.6c0.9-0.2,2,0,3.1-0.2c2.5-0.6,6.3-0.3,9.2-0.3c2.3,0,5-0.3,7.1,0.2l3,0.1l6.7,0.9c2.4,0.6,5,1,7.3,1.8
	c6.9,2.3,12.4,5.8,15.6,11.8c0.9,1.8,1.3,3.7,1.9,6c0.2,0.9-0.1,1.9,0,2.5c0.1,0.4,0.2,1.5,0,2.2c-0.5,2.1-0.7,4.2-1.3,6.2
	c-0.9,2.6-2.2,5.9-3.5,8.2c-0.7,1.1-1.5,2.3-2.1,3.5h-0.1v-0.3c0.8-0.8,1-3,1.3-4.3c2-7.1-1.1-13.1-5.1-16c-2.8-2.1-5.9-3.6-9.7-4.9
	c-2-0.7-4.2-0.8-6.3-1.3l-6.3-0.7H279c-1.7-0.4-7.3-0.4-9,0c-0.8,0.2-1.8,0-2.4,0.1l-4.6,0.2c-3.2,0.7-6.8,0.6-9.8,1.3
	c-3.2,0.7-6.2,0.6-9.3,1.4c-6.9,1.8-14.1,2.7-20.6,4.8c-1.2,0.4-2.2,0.4-3.4,0.8c-5.6,1.8-11.4,3.2-17,5.1
	c-11.9,4-23.7,8.2-34.8,13.1c-3,1.3-6,2.3-9,3.6c-3,1.3-6.1,2.9-9.1,4.2c-3.6,1.6-6.9,3.1-10,5.2c-4,2.8-8.3,7.5-11.3,11.4
	c-0.4,0.6-1.1,1.1-1.5,1.7c-2,2.7-4.1,5.3-6,8.1c-3.9,5.6-7.1,11.9-10,18.5c-0.8,1.9-1.8,3.9-2.7,5.8c-0.9,2-1.4,3.9-2.2,6
	c-0.7,1.6-1.4,3.4-1.9,5.2h0.2c1.4,1,4.6,0.1,5.8-0.3c4.7-1.8,7-5.4,9.2-9.6c2.4-4.7,4.8-9,7.7-13.2c1.5-2.2,3.4-4.2,5-6.3
	c2.2-3,4.9-6.1,7.9-8.3c4.3-3.2,9.1-5.3,14.4-7.6c1.8-0.8,3.9-1.6,5.8-2.3c0.6-0.2,1.1-0.2,1.7-0.4c1.1-0.4,2.3-1,3.5-1.2v0.1
	c-0.6,0.6-1,1.4-1.5,2.1c-1.4,1.9-4.2,3.8-6.3,5.1c-1.4,0.8-2.8,1.1-4.4,1.8c-2.3,1-6,2.9-7.4,4.6c-1.2,1.5-2.4,2.9-2.9,5.2
	c-0.3,1.3,0.3,2.8,1.1,3.1c0.5,0.5,2.3,0.8,3.5,0.6c2.2-0.5,4.3-0.9,6.3-1.7c3.4-1.3,6.7-2.9,9.8-4.9c1.7-1,3.6-1.7,5.4-2.5
	c3-1.3,6.1-2.8,9.2-4.2c4.9-2.1,9.5-5.7,12.4-9.8c1.1-1.6,1.8-3.5,2.9-5.2c1.3-2.1,3.3-4.4,5.3-5.9c9.5-7.2,21.4-11.9,34-16
	c3.4-1.1,6.7-1.6,10.3-2.7c2.9-0.8,6.2-1.2,9.2-2c1.8-0.4,3.5-0.2,5.3-0.7C260.4,41,263.8,40.8,266.8,40.7z M7.1,159
	c0.1,0.1,0,0,0.1,0.2H7.1V159z"/>
<g>
	<g>
		<path class="st1" d="M4.3,312.6v-37.4h16.4c6.6,0,11.4,1.6,14.4,4.8c3,3.2,4.5,7.8,4.5,13.9c0,6.1-1.5,10.7-4.5,13.9
			c-3,3.2-7.8,4.8-14.4,4.8H4.3z M15.5,304.2h3.8c2.8,0,4.9-0.8,6.5-2.4c1.5-1.6,2.3-4.2,2.3-7.8c0-3.6-0.8-6.2-2.3-7.9
			c-1.5-1.6-3.7-2.4-6.5-2.4h-3.8V304.2z"/>
		<path class="st1" d="M58.3,313.5c-2.9,0-5.6-0.6-7.8-1.8c-2.3-1.2-4.1-2.9-5.3-5.1c-1.3-2.2-1.9-4.7-1.9-7.6c0-5,1.3-8.9,3.8-11.7
			c2.6-2.8,6.3-4.2,11.1-4.2c3.2,0,5.7,0.7,7.7,2c2,1.3,3.4,3.4,4.4,6.1c1,2.7,1.4,6.1,1.4,10.1H50.4l-1.3-6h13.8l-1.1,3.5
			c0-3.1-0.4-5.2-1-6.4c-0.6-1.2-1.7-1.8-3.2-1.8c-0.7,0-1.4,0.2-2.1,0.7c-0.7,0.5-1.2,1.2-1.6,2.2c-0.4,1-0.6,2.4-0.6,4.1
			c0,2.4,0.6,4.3,1.7,5.6s3.1,2,5.9,2c0.9,0,1.9-0.1,2.9-0.4c1-0.3,1.9-0.5,2.7-0.9c0.9-0.3,1.6-0.6,2.1-0.7v8.5
			c-1.3,0.5-2.8,0.9-4.5,1.3C62.6,313.3,60.6,313.5,58.3,313.5z"/>
		<path class="st1" d="M76.7,286.6c0.6-0.3,1.6-0.7,2.8-1.1c1.2-0.4,2.6-0.8,4.2-1.1c1.5-0.3,3.1-0.6,4.7-0.8c1.6-0.2,3-0.3,4.3-0.3
			c2.5,0,4.6,0.3,6.5,0.9c1.9,0.6,3.3,1.6,4.4,3c1,1.4,1.6,3.5,1.6,6.1v19.4H94.8v-17c0-0.7-0.1-1.4-0.3-1.9c-0.2-0.5-0.5-1-0.9-1.3
			c-0.4-0.3-0.9-0.5-1.5-0.7c-0.6-0.1-1.2-0.2-2-0.2c-0.7,0-1.4,0.1-2.1,0.3c-0.7,0.2-1.1,0.4-1.2,0.6v20.2H76.7V286.6z"/>
		<path class="st1" d="M124.6,314c-3.8,0-6.6-0.8-8.4-2.5s-2.6-4-2.6-7.1v-12.7h-3.8v-7.6h3.8v-7.7h10.8v7.7h5.8v7.6h-5.8v11.8
			c0,0.7,0.2,1.2,0.6,1.6s1,0.5,1.7,0.5c0.5,0,1.1-0.1,1.8-0.4c0.7-0.3,1.3-0.6,1.7-1v8.6c-0.9,0.5-1.9,0.9-2.8,1.1
			C126.4,314,125.5,314,124.6,314z"/>
		<path class="st1" d="M147.5,313.5c-1.9,0-3.7-0.2-5.3-0.5c-1.6-0.3-3-0.9-4.2-1.7c-1.2-0.8-2.1-1.8-2.7-3.1c-0.6-1.3-1-3-1-4.9
			c0-1.5,0.3-2.9,1-4.2c0.7-1.3,1.7-2.3,3.2-3c1.5-0.8,3.4-1.1,5.8-1.1c1.2,0,2.3,0.2,3.6,0.4c1.2,0.3,2.3,0.7,3.3,1.2
			c1,0.5,1.7,1,2.2,1.6l0.2,4.2c-0.7-0.4-1.5-0.7-2.3-0.8c-0.8-0.2-1.6-0.3-2.5-0.3c-1.6,0-2.7,0.2-3.4,0.6s-1,1.1-1,2
			c0,0.4,0.1,0.9,0.4,1.3c0.3,0.4,0.7,0.8,1.1,1.1c0.5,0.3,1,0.4,1.5,0.4c1.7,0,2.8-0.1,3.4-0.3c0.6-0.2,0.8-0.6,0.8-1.2v-9.4
			c0-1.5-0.5-2.6-1.5-3.3c-1-0.7-2.5-1-4.3-1c-1.7,0-3.4,0.3-5.1,1c-1.7,0.7-3,1.4-3.9,2.2v-8.8c0.9-0.6,2.3-1.1,4.4-1.7
			c2.1-0.6,4.6-0.8,7.4-0.8c0.7,0,1.6,0.1,2.7,0.2c1.1,0.1,2.2,0.3,3.4,0.7c1.2,0.4,2.3,0.9,3.4,1.7s1.9,1.7,2.6,3
			c0.7,1.3,1,2.8,1,4.8l-0.1,13.3c0,1.5-0.5,2.7-1.6,3.7c-1,1-2.6,1.8-4.7,2.3C153.3,313.2,150.7,313.5,147.5,313.5z"/>
		<path class="st1" d="M178.5,312.6h-10.1v-39.2h10.1V312.6z"/>
		<path class="st1" d="M218.5,313.1c-5.7,0-10.1-1.6-13-4.8c-2.9-3.2-4.3-8-4.3-14.3c0-6.3,1.4-11.1,4.3-14.3
			c2.9-3.2,7.2-4.8,13-4.8c2,0,3.9,0.2,5.8,0.7c1.9,0.5,3.8,1.2,5.5,2v3.9c-1.7-0.9-3.5-1.6-5.3-2.1c-1.8-0.5-3.7-0.7-5.6-0.7
			c-3.1,0-5.7,0.5-7.7,1.6c-2,1.1-3.5,2.8-4.4,5c-1,2.3-1.4,5.2-1.4,8.7c0,3.5,0.5,6.5,1.4,8.7c1,2.3,2.4,3.9,4.4,5
			c2,1.1,4.6,1.6,7.7,1.6c1.9,0,3.8-0.2,5.6-0.7c1.8-0.4,3.6-1.1,5.3-2.1v3.9c-1.2,0.6-2.4,1-3.7,1.5c-1.3,0.4-2.5,0.7-3.8,0.9
			C221.1,313,219.8,313.1,218.5,313.1z"/>
		<path class="st1" d="M247.1,313.5c-1.2,0-2.5-0.1-3.7-0.4c-1.3-0.3-2.4-0.7-3.5-1.3c-1.1-0.6-1.9-1.5-2.6-2.6
			c-0.7-1.1-1-2.5-1-4.2c0-2.3,0.4-4.2,1.3-5.6c0.9-1.4,2.1-2.4,3.6-3c1.5-0.6,3.3-0.9,5.3-0.9c1.5,0,2.9,0.1,4,0.3
			c1.1,0.2,2.1,0.5,3,0.8c0.9,0.4,1.7,0.8,2.4,1.2l0.8,3.7c-0.9-0.6-2.1-1.2-3.7-1.7s-3.4-0.7-5.3-0.7c-2.4,0-4.2,0.4-5.4,1.3
			c-1.3,0.9-1.9,2.2-1.9,3.9c0,1.4,0.4,2.5,1.1,3.3c0.8,0.8,1.7,1.4,2.9,1.7c1.2,0.3,2.4,0.5,3.6,0.5c2.4,0,4.3-0.2,5.5-0.5
			c1.3-0.4,1.9-1.2,1.9-2.4v-12.8c0-2.2-0.6-3.8-1.9-4.8c-1.3-1-3.1-1.5-5.4-1.5c-1.5,0-3.1,0.2-4.7,0.6c-1.7,0.4-3.1,1.1-4.3,2v-4
			c1.2-0.7,2.7-1.3,4.6-1.7c1.9-0.4,3.8-0.6,5.7-0.6c1.2,0,2.4,0.1,3.4,0.4c1,0.2,2,0.6,2.8,1.1c0.8,0.5,1.5,1.1,2.1,1.8
			c0.6,0.7,1,1.6,1.3,2.5c0.3,1,0.5,2,0.5,3.2v13.6c0,2-0.6,3.5-1.8,4.4c-1.2,1-2.7,1.6-4.6,1.9
			C251.3,313.3,249.2,313.5,247.1,313.5z"/>
		<path class="st1" d="M268.5,312.6v-25.7c0.4-0.2,1.3-0.5,2.6-1c1.3-0.4,2.8-0.9,4.6-1.2c1.8-0.4,3.7-0.6,5.6-0.6
			c0.3,0,0.6,0,0.9,0.1c0.3,0.1,0.6,0.1,0.9,0.2v3.6c-1-0.1-1.9-0.2-2.8-0.2c-0.9,0-1.8,0-2.7,0.1c-0.9,0.1-1.7,0.2-2.6,0.4
			c-0.9,0.2-1.7,0.3-2.6,0.4v23.7H268.5z"/>
		<path class="st1" d="M301.1,313.5c-2.7,0-4.9-0.6-6.9-1.7c-1.9-1.1-3.4-2.8-4.5-5c-1-2.2-1.6-4.9-1.6-8.2c0-4.8,1.1-8.4,3.3-10.8
			s5.2-3.6,9-3.6c3,0,5.4,0.7,7.2,2c1.8,1.3,3.1,3.2,3.9,5.4c0.8,2.3,1.2,4.9,1.1,7.7h-22.5l0.3-3.7H310l-1.6,0.6
			c-0.1-2.8-0.8-4.9-2.1-6.3s-3.3-2.1-5.9-2.1c-1.8,0-3.4,0.3-4.6,1c-1.2,0.7-2.1,1.8-2.7,3.5c-0.6,1.7-0.9,4-0.9,7
			c0,3.4,0.8,6,2.4,7.8c1.6,1.8,3.8,2.7,6.7,2.7c1.4,0,2.6-0.1,3.8-0.3c1.2-0.2,2.2-0.5,3.2-0.9c1-0.4,1.8-0.8,2.6-1.2v4.1
			c-1.3,0.6-2.8,1.1-4.5,1.5C304.8,313.3,303.1,313.5,301.1,313.5z"/>
	</g>
</g>
</svg>
